<svg xmlns="http://www.w3.org/2000/svg" width="310" height="381" style="shape-rendering:geometricPrecision;text-rendering:geometricPrecision;image-rendering:optimizeQuality;fill-rule:evenodd;clip-rule:evenodd"><path style="opacity:1" fill="#e8e2dc" d="M-.5-.5h310v209a185.977 185.977 0 0 1-3-2c-1.211.774-1.211 1.607 0 2.5a9.454 9.454 0 0 0-2.5 1.5c-.813-3.266-2.646-3.766-5.5-1.5.836 1.243.503 2.41-1 3.5l-1-4c-1.925.337-3.425 1.67-4.5 4-.667-4-1.333-4-2 0-1.049-1.017-2.216-1.184-3.5-.5 1.154.914.987 1.747-.5 2.5-.667-2.667-1.333-2.667-2 0-1.617-1.036-1.784-2.203-.5-3.5a10.756 10.756 0 0 1-3-2.5c-.379 1.709-1.379 3.543-3 5.5a59.44 59.44 0 0 0 10 3.5c.225 3.556-.608 3.89-2.5 1-4.059.424-4.559 1.924-1.5 4.5-.949.617-1.782.451-2.5-.5-1.674 1.509-3.34 2.176-5 2a6.802 6.802 0 0 0-1.5-3c-3.258 1.452-3.758.786-1.5-2 1.32.299 2.82.466 4.5.5-1.211.893-1.211 1.726 0 2.5a7.293 7.293 0 0 0 3-2 37.714 37.714 0 0 0-8-3.5l1-1a6.802 6.802 0 0 1-3-1.5c1.302-1.701 2.969-2.868 5-3.5l-1-1c4.198-2.695 3.865-4.361-1-5l1.5-1.5c1.458 1.247 2.958 1.247 4.5 0a10.258 10.258 0 0 1 1.5 4c1.713-2.317 1.213-4.317-1.5-6 .965-1.414 1.965-2.247 3-2.5-1.103-.147-2.27-.98-3.5-2.5a26.585 26.585 0 0 0-3.5 2c1.54 1.032 2.04 2.365 1.5 4-1.117-.165-2.284-.498-3.5-1-1.99 4.161-3.323 3.994-4-.5.255-1.326.922-2.326 2-3a3.647 3.647 0 0 1-1-1.5c1.103-.498 2.103-.831 3-1-.825-.886-1.825-1.219-3-1 .321-5.526-.012-10.86-1-16a171.997 171.997 0 0 0-3.5-18c-.383-.556-.883-.889-1.5-1-5.814-24.439-18.814-44.273-39-59.5-19.99-14.324-41.323-25.991-64-35a2761.689 2761.689 0 0 1-63-14c-7.128-1.582-14.128-1.749-21-.5-6.023.002-12.023.335-18 1a925.409 925.409 0 0 0-60 8v-2a1574.155 1574.155 0 0 1 61-9.5c8.82-3.08 17.82-5.413 27-7a26.323 26.323 0 0 0 10-7 21.77 21.77 0 0 0-6-5A1051.143 1051.143 0 0 0 58 22.5a9.468 9.468 0 0 1-2.5 1.5c3.541.709 5.541 2.875 6 6.5-1.241 2.644-3.241 3.477-6 2.5 2.069-.324 2.402-1.157 1-2.5a75.708 75.708 0 0 0-26.5 1 3.943 3.943 0 0 1-2-1c-1.87 1.497-2.87 3.497-3 6-2.265 1.016-4.099 2.182-5.5 3.5-6.747.792-13.414.626-20-.5v-40z"/><path style="opacity:1" fill="#f5f3f1" d="M-.5 57.5v-18c6.586 1.126 13.253 1.292 20 .5 1.401-1.318 3.235-2.484 5.5-3.5.13-2.503 1.13-4.503 3-6a3.943 3.943 0 0 0 2 1 75.708 75.708 0 0 1 26.5-1c1.402 1.343 1.069 2.176-1 2.5 2.759.977 4.759.144 6-2.5-.459-3.625-2.459-5.791-6-6.5a9.468 9.468 0 0 0 2.5-1.5A1051.143 1051.143 0 0 1 91.5 29a21.77 21.77 0 0 1 6 5 26.323 26.323 0 0 1-10 7 169.118 169.118 0 0 0-27 7 1574.155 1574.155 0 0 0-61 9.5z"/><path style="opacity:1" fill="#8e8a84" d="M77.5 50.5c7.225-.318 14.225.516 21 2.5a600.47 600.47 0 0 1-49 0c3.525-.179 6.859-.679 10-1.5a163.245 163.245 0 0 1 18-1z"/><path style="opacity:1" fill="#c4bcb7" d="M77.5 50.5c6.872-1.249 13.872-1.082 21 .5a2761.689 2761.689 0 0 0 63 14c22.677 9.009 44.01 20.676 64 35 20.186 15.227 33.186 35.061 39 59.5-6.74-20.608-18.407-38.108-35-52.5-30.084-24.705-64.417-40.205-103-46.5-5.797-1.899-11.63-2.232-17.5-1l-1.5-1.5c-24.56-3.897-49.226-4.564-74-2a1801.32 1801.32 0 0 1-34 5.5v-2a925.409 925.409 0 0 1 60-8c-3.141.821-6.475 1.321-10 1.5a600.47 600.47 0 0 0 49 0c-6.775-1.984-13.775-2.818-21-2.5z"/><path style="opacity:1" fill="#efedeb" d="M-.5 79.5v-15c15.302-2.879 31.135-5.545 47.5-8a40.053 40.053 0 0 1 11.5 3 32.367 32.367 0 0 1 4.5-3l1 2c2.147-1.224 4.814-1.89 8-2 1.98.13 3.647.796 5 2 4.336-.304 8.336-.638 12-1a25.72 25.72 0 0 1 5.5 1.5 11.362 11.362 0 0 0-1.5 3.5 145.47 145.47 0 0 0-8.5 7.5A542.36 542.36 0 0 0 64 77.5l-1.5-.5c5.105-3.24 5.105-6.406 0-9.5-2.083 1.64-2.416 3.64-1 6-4.084-.457-7.917.21-11.5 2a3.646 3.646 0 0 0-1.5-1 49.946 49.946 0 0 0-12 3c-2.398-.889-4.398-2.389-6-4.5l-5-.5a186.058 186.058 0 0 0-26 7z"/><path style="opacity:1" fill="#e1d9d6" d="M126.5 60.5c1.109.79 2.442 1.29 4 1.5l-2 2a13.194 13.194 0 0 1 5.5 4.5c.353-1.574 1.02-3.24 2-5 2 .667 3.333 2 4 4l1-1c.494 1.634.66 3.3.5 5 4.05-.811 6.716.689 8 4.5l-3 1c1.607 1.049 2.273 2.549 2 4.5-1.859-.04-3.192.794-4 2.5 3.232 1.355 3.898 3.022 2 5 1.943 3.19 2.109 6.357.5 9.5-2.881-4.064-4.214-3.397-4 2-.914-1.154-1.747-.987-2.5.5l1 1c-1.769 1.019-3.436 1.186-5 .5-4.172 2.103-5.172 4.937-3 8.5-1.323.816-1.989 1.983-2 3.5-.166 5.676.001 11.343.5 17 .233 2.28 1.066 4.28 2.5 6-3.622 1.159-7.289 1.325-11 .5-1.256-.417-1.923-1.25-2-2.5l-2-3c1.179-1.941.513-3.274-2-4v-1c3.333 0 5-1.667 5-5h-4c-1.206-1.38-.873-2.547 1-3.5a6.802 6.802 0 0 1-3-1.5c.124-.607.457-.94 1-1 1.15 1.35 1.817 1.184 2-.5a15.894 15.894 0 0 1-1-6.5c-10.81-5.563-21.477-5.229-32 1-1.963-1.184-3.963-2.017-6-2.5-.6 2.935-.6 5.602 0 8-1.696 1.266-3.53 1.1-5.5-.5 1.583 2.913 1.916 5.913 1 9-.691-2.391-1.691-2.391-3 0-.853-1.625-1.853-1.958-3-1-.658-1.608-.158-2.775 1.5-3.5-1.444-.781-2.777-.614-4 .5.4 1.934 1.4 3.434 3 4.5a6.802 6.802 0 0 0-3 1.5 29.453 29.453 0 0 1 6 11.5c-1.858 1.982-4.191 3.148-7 3.5-.966-4.84-2.633-4.84-5 0 1.18 1.698 1.18 3.365 0 5a32.444 32.444 0 0 0-6-1.5c2.095-.556 2.262-1.056.5-1.5-1.646 1.641-2.646 1.307-3-1-1.686 2.522-3.02 2.189-4-1l-1.5 1.5c3.274 3.515 2.608 5.848-2 7 1.667 3.333.667 4.667-3 4a7.292 7.292 0 0 1 3-2c-.862-2.734-1.695-2.901-2.5-.5-.677-2.189-1.844-2.522-3.5-1a73.663 73.663 0 0 1-2.5-9c-1.996.496-3.663 1.496-5 3a20.495 20.495 0 0 1-3.5-2.5c5.194-1.67 5.194-3.17 0-4.5a32.412 32.412 0 0 1-1.5-6 74.383 74.383 0 0 1-5.5 9 4.458 4.458 0 0 1-2-1.5c1.017-1.049 1.184-2.216.5-3.5-1.667 3.157-3.167 3.324-4.5.5l1-3c-1.595.617-2.928.284-4-1l3-1a15.457 15.457 0 0 0-5-3c1.333-.667 1.333-1.333 0-2l1.5-.5c3.165 1.854 5.832 4.854 8 9 3.114-2.976 2.28-4.81-2.5-5.5l1-1c-.97-1.204-1.97-1.704-3-1.5a3.646 3.646 0 0 1 1-1.5c-.97-1.204-1.97-1.704-3-1.5 1.869-2.507 1.869-4.674 0-6.5 4.09-4.585 3.09-6.251-3-5-.649-2.481-1.649-2.814-3-1 .354 1.626.354 3.459 0 5.5 4.575.157 5.742 2.157 3.5 6-.725-1.658-1.892-2.158-3.5-1.5 1.456.423 1.956 1.256 1.5 2.5l-1-1c-.9 1.27-2.066 2.27-3.5 3a175.54 175.54 0 0 0 3 3.5l-3 1 1 1a11.355 11.355 0 0 0-1.5 3.5l-1-3c-.986.671-2.153.671-3.5 0v-52a186.058 186.058 0 0 1 26-7l5 .5c1.602 2.111 3.602 3.611 6 4.5a49.946 49.946 0 0 1 12-3c.586.21 1.086.543 1.5 1 3.583-1.79 7.416-2.457 11.5-2-1.416-2.36-1.083-4.36 1-6 5.105 3.094 5.105 6.26 0 9.5l1.5.5A542.36 542.36 0 0 1 84.5 70c2.723-2.6 5.557-5.1 8.5-7.5.31-1.266.81-2.433 1.5-3.5a25.72 25.72 0 0 0-5.5-1.5c-3.664.362-7.664.696-12 1-1.353-1.204-3.02-1.87-5-2-3.186.11-5.853.776-8 2l-1-2a32.367 32.367 0 0 0-4.5 3 40.053 40.053 0 0 0-11.5-3c-16.365 2.455-32.198 5.121-47.5 8v-3a1801.32 1801.32 0 0 0 34-5.5c24.774-2.564 49.44-1.897 74 2l1.5 1.5c5.87-1.232 11.703-.899 17.5 1z"/><path style="opacity:1" fill="#ded6d2" d="M126.5 60.5c38.583 6.295 72.916 21.795 103 46.5 16.593 14.392 28.26 31.892 35 52.5 4.903 22.345 3.736 44.345-3.5 66-.936 3.268-2.936 5.601-6 7a82.192 82.192 0 0 1-4 12c-1.11 1.537-2.61 2.203-4.5 2-2.386 7.451-6.719 13.451-13 18-.929 1.189-1.262 2.522-1 4h-3c-.123 2.874-1.123 5.374-3 7.5a153.46 153.46 0 0 0-22 19.5 6.846 6.846 0 0 1-4 1c-2.822-.143-5.155.691-7 2.5l1 1a26.943 26.943 0 0 0-7 5c-5.286.973-9.62 3.473-13 7.5a12.795 12.795 0 0 0-6-3c-1.667 1.333-3.333 1.333-5 0a6.547 6.547 0 0 0-3 3c-1.189.929-2.522 1.262-4 1 .262-1.478-.071-2.811-1-4-2.096 1.12-2.43 2.62-1 4.5-1.167.5-2 1.333-2.5 2.5l-4-4c-1.395.93-2.895.93-4.5 0a13.049 13.049 0 0 0-4 3c-.793-.855-.46-1.689 1-2.5-1.399-.595-2.732-.428-4 .5-1.196-.346-1.196-.846 0-1.5-1-.667-2-.667-3 0-1.128 2.831-.128 5.497 3 8-.556.383-.889.883-1 1.5-.617.111-1.117.444-1.5 1l-1-4c-.667-1.333-1.333-1.333-2 0-2.628-1.256-3.628-3.256-3-6 .508 2.404 1.675 3.071 3.5 2l-2-2c.346-1.196.846-1.196 1.5 0 .216-1.884.883-3.551 2-5 1.449 3.801 3.283 3.967 5.5.5a39.027 39.027 0 0 1-4.5-4.5c-1.912 2.494-3.746 2.327-5.5-.5l1-1c-1.544-.29-2.877-.956-4-2-1-.667-2-.667-3 0 1.445 1.71 2.278 3.544 2.5 5.5-.741-1.141-1.575-1.141-2.5 0a6.802 6.802 0 0 1-1.5-3c-2.081 3.058-4.748 4.058-8 3-1.835 3.358-4.002 3.691-6.5 1-4.398 2.565-5.065 1.565-2-3-1.975-1.249-2.309-2.749-1-4.5l-4-1 9-3c1.291-1.292 1.291-2.458 0-3.5-.342-.838-1.008-1.172-2-1 .79-.901 1.79-1.568 3-2 1.431.381 2.264 1.381 2.5 3 5.857-4.676 9.357-10.676 10.5-18a626.115 626.115 0 0 0-3.5-20c-1.715-2.897-4.215-4.231-7.5-4-4.964-2.46-10.298-3.46-16-3l-10 .5c-1.237.232-2.237.732-3 1.5-5.788-.679-9.454 1.655-11 7-4.269 4.815-5.936 10.482-5 17 .284 3.277-.05 6.443-1 9.5a117.39 117.39 0 0 1 6.5 10.5 3.647 3.647 0 0 1 1.5-1 23.602 23.602 0 0 0 3 3.5 44.204 44.204 0 0 0-.5 6.5 7.292 7.292 0 0 1-2-3 22.763 22.763 0 0 0-4 5 7.292 7.292 0 0 0-2-3c-2.695 3.469-4.861 3.803-6.5 1-.687 2.055-1.854 3.721-3.5 5-1.204-.971-1.704-1.971-1.5-3a18.083 18.083 0 0 0-3.5 2c-.667-1-.667-2 0-3 .89 1.388 1.39 1.222 1.5-.5-.609-2.803-2.275-3.803-5-3a11.357 11.357 0 0 0-1.5 3.5c-.317-1.801-.984-2.134-2-1-.658-1.608-.158-2.775 1.5-3.5-2.027-1.396-2.36-3.062-1-5-1.813.046-3.48-.12-5-.5 1.797-1.195 2.797-2.862 3-5a4.934 4.934 0 0 1-3-.5c2.996-.522 5.33-2.022 7-4.5a25.86 25.86 0 0 1-5-3c.692-1.835.358-3.668-1-5.5.559-2.36 1.892-4.693 4-7-2.356.003-4.69.503-7 1.5l-1-.5c4.054-1.941 3.72-2.775-1-2.5a4.932 4.932 0 0 0-.5-3 28.043 28.043 0 0 1-1.5 5c.21.586.543 1.086 1 1.5l-5 1c.825 1.688 1.825 1.855 3 .5 1.083.865 1.25 1.865.5 3-2.824-.442-4.99-2.275-6.5-5.5a8.43 8.43 0 0 0-4-.5c-.14 1.624.527 2.79 2 3.5a8.43 8.43 0 0 1-4 .5c-.17-1.322.163-2.489 1-3.5-3.886-.579-3.886-1.412 0-2.5a3.647 3.647 0 0 1 1.5 1c2.392-4.13 1.725-4.797-2-2a19.212 19.212 0 0 1-3.5-7 10.256 10.256 0 0 0-4-1.5c1.8-.317 2.134-.984 1-2 1.517-1.779 2.35-1.279 2.5 1.5.423-1.456 1.256-1.956 2.5-1.5l-1 1c.379 2.188 1.546 4.355 3.5 6.5.5-1.167 1.333-2 2.5-2.5l-1-1c4.358-1.381 7.692-4.048 10-8-1.612-.72-3.112-.554-4.5.5a9.465 9.465 0 0 0-1.5-2.5c6.063-1.395 6.563-3.895 1.5-7.5-.423 1.456-1.256 1.956-2.5 1.5 1.333-1.667 1.333-3.333 0-5-1.049-.492-2.049-.326-3 .5-1.196-.346-1.196-.846 0-1.5a10.256 10.256 0 0 1-4-1.5 28.043 28.043 0 0 0 1.5-5c1.073.78 2.24.613 3.5-.5-1.167-.5-2-1.333-2.5-2.5-1.148.958-2.148.625-3-1l-1 3c-1.333-1.333-2.667-1.333-4 0-1.688-.825-1.855-1.825-.5-3-2.402-2.201-4.068-4.868-5-8 .866-1.351 1.866-2.184 3-2.5a54.152 54.152 0 0 1-2.5-6.5c-.305 2.057-.305 4.057 0 6-1.82-3.79-3.82-3.79-6 0-.9-1.27-2.066-2.27-3.5-3 .53-1.744.53-3.244 0-4.5a2.429 2.429 0 0 0-2-.5v-75c1.347.671 2.514.671 3.5 0l1 3c.31-1.266.81-2.433 1.5-3.5l-1-1 3-1a175.54 175.54 0 0 1-3-3.5c1.434-.73 2.6-1.73 3.5-3l1 1c.456-1.244-.044-2.077-1.5-2.5 1.608-.658 2.775-.158 3.5 1.5 2.242-3.843 1.075-5.843-3.5-6 .354-2.041.354-3.874 0-5.5 1.351-1.814 2.351-1.481 3 1 6.09-1.251 7.09.415 3 5 1.869 1.826 1.869 3.993 0 6.5 1.03-.204 2.03.296 3 1.5-.457.414-.79.914-1 1.5 1.03-.204 2.03.296 3 1.5l-1 1c4.78.69 5.614 2.524 2.5 5.5-2.168-4.146-4.835-7.146-8-9l-1.5.5c1.333.667 1.333 1.333 0 2a15.457 15.457 0 0 1 5 3l-3 1c1.072 1.284 2.405 1.617 4 1l-1 3c1.333 2.824 2.833 2.657 4.5-.5.684 1.284.517 2.451-.5 3.5a4.458 4.458 0 0 0 2 1.5 74.383 74.383 0 0 0 5.5-9c.31 2.056.81 4.056 1.5 6 5.194 1.33 5.194 2.83 0 4.5a20.495 20.495 0 0 0 3.5 2.5c1.337-1.504 3.004-2.504 5-3a73.663 73.663 0 0 0 2.5 9c1.656-1.522 2.823-1.189 3.5 1 .805-2.401 1.638-2.234 2.5.5a7.292 7.292 0 0 0-3 2c3.667.667 4.667-.667 3-4 4.608-1.152 5.274-3.485 2-7l1.5-1.5c.98 3.189 2.314 3.522 4 1 .354 2.307 1.354 2.641 3 1 1.762.444 1.595.944-.5 1.5 2.056.311 4.056.811 6 1.5 1.18-1.635 1.18-3.302 0-5 2.367-4.84 4.034-4.84 5 0 2.809-.352 5.142-1.518 7-3.5a29.453 29.453 0 0 0-6-11.5 6.802 6.802 0 0 1 3-1.5c-1.6-1.066-2.6-2.566-3-4.5 1.223-1.114 2.556-1.281 4-.5-1.658.725-2.158 1.892-1.5 3.5 1.147-.958 2.147-.625 3 1 1.309-2.391 2.309-2.391 3 0 .916-3.087.583-6.087-1-9 1.97 1.6 3.804 1.766 5.5.5-.6-2.398-.6-5.065 0-8 2.037.483 4.037 1.316 6 2.5a19.168 19.168 0 0 1-2.5 5c-.8 2.867-.634 5.534.5 8 .16 1.653.826 2.986 2 4-1.181 3.138-1.181 6.138 0 9a31.91 31.91 0 0 0 6 1.5c-1.274.977-1.274 1.811 0 2.5 1.623 2.395 3.956 3.728 7 4h4v-3c-4-.667-4-1.333 0-2 .17-1.322-.163-2.489-1-3.5-4.636.597-7.636-1.236-9-5.5h3c1.667 1.333 3.333 1.333 5 0 .791-1.809.791-3.809 0-6h8c.432 1.21 1.099 2.21 2 3 .667 0 1 .333 1 1-.237 1.291.096 2.291 1 3v3c-1 .333-1.667 1-2 2-.973 2.448-1.306 5.115-1 8a10.165 10.165 0 0 1-3 3c-1.322-.17-2.489.163-3.5 1-2.133 2.433-3.3 5.267-3.5 8.5a297.658 297.658 0 0 1 1.5 16.5c1.359 3.507 3.526 6.173 6.5 8 6.273 5.378 13.607 7.378 22 6a31.147 31.147 0 0 1-2 2c.457.798 1.124 1.131 2 1a94.29 94.29 0 0 1-8.5 5c-.956 6.206 1.544 8.206 7.5 6a6.802 6.802 0 0 0-3-1.5c.426-3.592 2.426-5.092 6-4.5v4c-.934 1.068-1.268 2.401-1 4-2.341.492-4.341 1.659-6 3.5l1 1c-4.781 2.882-5.114 6.049-1 9.5 2.411-2.504 4.078-5.504 5-9a71.254 71.254 0 0 0 2 4h1c-.239 1.967.094 3.801 1 5.5l8 1c7.712 4.909 16.046 6.409 25 4.5 10.733-1.738 17.733-7.738 21-18 1.155-6.821 1.321-13.821.5-21-.715-3.141-2.548-5.141-5.5-6-.531-2.124-1.865-3.624-4-4.5 1.545-1.822 2.212-3.989 2-6.5-.007-1.869-.34-3.536-1-5v-5c2.639-1.306 4.639-3.306 6-6 4.192 1.006 8.525 1.006 13 0 6.034-.198 9.367-3.365 10-9.5a15.894 15.894 0 0 1-1-6.5c1.122-1.788 1.289-3.788.5-6a40.594 40.594 0 0 1-4.5-6c2.4-6.601 2.566-13.268.5-20-7.485-7.823-16.652-11.323-27.5-10.5 10.47.82 19.303 4.986 26.5 12.5.749 1.135.583 2.135-.5 3l-5-4.5c-.832-.688-1.498-.521-2 .5a34.832 34.832 0 0 1 7 7c-2.476 3.41-5.81 5.576-10 6.5 2.463-.676 4.63-.509 6.5.5a14.84 14.84 0 0 1 3.5-4l1 2c-.673 2.351-1.34 4.684-2 7a98.432 98.432 0 0 0-14 .5c-.916.278-1.582.778-2 1.5-.958.453-1.792 1.119-2.5 2-1.205-2.034-1.372-4.034-.5-6 3.355.085 6.355-.581 9-2a21.127 21.127 0 0 0-9-1c.329-2.728-.337-5.062-2-7a26.002 26.002 0 0 0-7-5c-4.064-2.072-8.397-3.405-13-4a71.254 71.254 0 0 0-4-2c1.961-1.348 2.128-2.681.5-4a12.135 12.135 0 0 0-3.5 4.5c-2.223.566-4.223 1.4-6 2.5-.992-.172-1.658.162-2 1a22.581 22.581 0 0 0-8 4c-2.667.667-4.333 2.333-5 5l-2 1c.011-1.517.677-2.684 2-3.5-2.172-3.563-1.172-6.397 3-8.5 1.564.686 3.231.519 5-.5l-1-1c.753-1.487 1.586-1.654 2.5-.5-.214-5.397 1.119-6.064 4-2 1.609-3.143 1.443-6.31-.5-9.5 1.898-1.978 1.232-3.645-2-5 .808-1.706 2.141-2.54 4-2.5.273-1.951-.393-3.451-2-4.5l3-1c-1.284-3.811-3.95-5.311-8-4.5a12.93 12.93 0 0 0-.5-5l-1 1c-.667-2-2-3.333-4-4-.98 1.76-1.647 3.426-2 5a13.194 13.194 0 0 0-5.5-4.5l2-2c-1.558-.21-2.891-.71-4-1.5z"/><path style="opacity:1" fill="#57462b" d="M146.5 104.5c1.333 0 2 .667 2 2v1a32.607 32.607 0 0 0-10 4v-3a22.581 22.581 0 0 1 8-4z"/><path style="opacity:1" fill="#492c13" d="M161.5 102.5c4.603.595 8.936 1.928 13 4v3c-5.7-2.551-11.7-3.551-18-3v-4h5z"/><path style="opacity:1" fill="#926a31" d="M146.5 104.5c.342-.838 1.008-1.172 2-1h5v3h-5c0-1.333-.667-2-2-2z"/><path style="opacity:1" fill="#d8cfc5" d="M148.5 107.5h6v3c-4.895-.034-9.228 1.3-13 4-2.894 1.382-5.394 3.382-7.5 6a8.43 8.43 0 0 1-.5-4 25.965 25.965 0 0 1 5-5 32.607 32.607 0 0 1 10-4z"/><path style="opacity:1" fill="#dcb178" d="M174.5 106.5a26.002 26.002 0 0 1 7 5c1.267 7.676.267 7.676-3 0a71.254 71.254 0 0 1-4-2v-3z"/><path style="opacity:1" fill="#ccb697" d="M204.5 123.5c-.896 1.006-1.562 1.006-2 0 .66-2.316 1.327-4.649 2-7l-1-2a14.84 14.84 0 0 0-3.5 4c-1.87-1.009-4.037-1.176-6.5-.5 4.19-.924 7.524-3.09 10-6.5a34.832 34.832 0 0 0-7-7c.502-1.021 1.168-1.188 2-.5l5 4.5c1.083-.865 1.249-1.865.5-3-7.197-7.514-16.03-11.68-26.5-12.5 10.848-.823 20.015 2.677 27.5 10.5 2.066 6.732 1.9 13.399-.5 20z"/><path style="opacity:1" fill="#cc9d61" d="M138.5 108.5v3a25.965 25.965 0 0 0-5 5v-3c.667-2.667 2.333-4.333 5-5z"/><path style="opacity:1" fill="#6f6551" d="M166.5 111.5c2.436 1.371 5.103 2.371 8 3 .219 1.175-.114 2.175-1 3a9.108 9.108 0 0 0-5-1c-2.407-1.212-4.74-2.712-7-4.5a12.93 12.93 0 0 1 5-.5z"/><path style="opacity:1" fill="#a5875c" d="M166.5 111.5a12.93 12.93 0 0 0-5 .5c2.26 1.788 4.593 3.288 7 4.5 3.553 1.055 6.886 2.388 10 4-6.867-.401-13.2-2.401-19-6a10.014 10.014 0 0 0-3 1c-4.415-1.409-8.748-1.076-13 1-1.196-.346-1.196-.846 0-1.5a2.428 2.428 0 0 0-2-.5c3.772-2.7 8.105-4.034 13-4 1.8-1.105 2.967-.439 3.5 2 2.698-2.173 5.531-2.506 8.5-1z"/><path style="opacity:1" fill="#d2c8bc" d="M97.5 110.5v3c4.64-.525 8.973.142 13 2 .61.891.943 1.891 1 3l-8-1c-3.265-.292-6.265.375-9 2-1.213-.247-1.88-.914-2-2 .73-1.212 1.73-2.212 3-3-.356-1.022-1.022-1.689-2-2 .683-1.676 2.017-2.343 4-2z"/><path style="opacity:1" fill="#d5c4ad" d="M161.5 102.5h-5v4c6.3-.551 12.3.449 18 3a71.254 71.254 0 0 0 4 2c3.267 7.676 4.267 7.676 3 0 1.663 1.938 2.329 4.272 2 7-.283.789-.783 1.456-1.5 2-2.081-2.587-4.581-4.587-7.5-6-2.897-.629-5.564-1.629-8-3-2.969-1.506-5.802-1.173-8.5 1-.533-2.439-1.7-3.105-3.5-2v-3h-6v-1h5v-3h-5c1.777-1.1 3.777-1.934 6-2.5a12.135 12.135 0 0 1 3.5-4.5c1.628 1.319 1.461 2.652-.5 4a71.254 71.254 0 0 1 4 2z"/><path style="opacity:1" fill="#a99271" d="M117.5 116.5c-.543.06-.876.393-1 1a6.802 6.802 0 0 0 3 1.5c-1.873.953-2.206 2.12-1 3.5-2.121-.175-4.121.159-6 1 .011-1.517.677-2.684 2-3.5-1.566-.3-2.899.2-4 1.5-.543-.06-.876-.393-1-1a31.147 31.147 0 0 0 2-2 5.727 5.727 0 0 0-1-3c.951-1.419 1.284-3.085 1-5 2.063-1.049 4.063-.716 6 1-2.054 2.121-2.054 3.788 0 5z"/><path style="opacity:1" fill="#cdb189" d="M117.5 116.5c-2.054-1.212-2.054-2.879 0-5-1.937-1.716-3.937-2.049-6-1-1.978-2.168-4.312-2.835-7-2-2.045-1.975-3.712-1.975-5 0-5.234-1.591-5.9-.925-2 2-1.983-.343-3.317.324-4 2-3.17 1.292-3.504 2.958-1 5 .12 1.086.787 1.753 2 2 2.735-1.625 5.735-2.292 9-2-1.668 1.979-2.334 4.312-2 7-2.1.023-3.933-.644-5.5-2-2.582 2.406-5.248 2.406-8 0l-1 1c-1.507-3.736-2.34-3.736-2.5 0-1.134-2.466-1.3-5.133-.5-8a19.168 19.168 0 0 0 2.5-5c10.523-6.229 21.19-6.563 32-1a15.894 15.894 0 0 0 1 6.5c-.183 1.684-.85 1.85-2 .5z"/><path style="opacity:1" fill="#7d551e" d="M93.5 112.5c.978.311 1.644.978 2 2-1.27.788-2.27 1.788-3 3-2.504-2.042-2.17-3.708 1-5z"/><path style="opacity:1" fill="#513415" d="M111.5 110.5c.284 1.915-.049 3.581-1 5-4.027-1.858-8.36-2.525-13-2v-3c-3.9-2.925-3.234-3.591 2-2 1.288-1.975 2.955-1.975 5 0 2.688-.835 5.022-.168 7 2z"/><path style="opacity:1" fill="#7e6540" d="m103.5 117.5 8 1a31.147 31.147 0 0 1-2 2c.124.607.457.94 1 1a5.727 5.727 0 0 1-1 3h-8c-.334-2.688.332-5.021 2-7z"/><path style="opacity:1" fill="#231a10" d="M112.5 123.5c-.934 1.068-1.268 2.401-1 4-.901-.79-1.568-1.79-2-3a5.727 5.727 0 0 0 1-3c1.101-1.3 2.434-1.8 4-1.5-1.323.816-1.989 1.983-2 3.5z"/><path style="opacity:1" fill="#cc9c5d" d="M118.5 122.5h4c0 3.333-1.667 5-5 5-.235-.597-.735-.93-1.5-1a11.803 11.803 0 0 0-3.5 2c0-.667-.333-1-1-1-.268-1.599.066-2.932 1-4 1.879-.841 3.879-1.175 6-1z"/><path style="opacity:1" fill="#3d2b15" d="M117.5 127.5v1c-2.473-.412-3.806.588-4 3-.904-.709-1.237-1.709-1-3a11.803 11.803 0 0 1 3.5-2c.765.07 1.265.403 1.5 1z"/><path style="opacity:1" fill="#2a2114" d="M101.5 124.5c.791 2.191.791 4.191 0 6-2.14-1.737-4.473-2.904-7-3.5a6.544 6.544 0 0 0 3 3c-.228.399-.562.565-1 .5h-3a20.691 20.691 0 0 1-5-1l-2-2c-1.174-1.014-1.84-2.347-2-4 .16-3.736.993-3.736 2.5 0l1-1c2.752 2.406 5.418 2.406 8 0 1.567 1.356 3.4 2.023 5.5 2z"/><path style="opacity:1" fill="#897a5f" d="M101.5 130.5c-1.667 1.333-3.333 1.333-5 0 .438.065.772-.101 1-.5a6.544 6.544 0 0 1-3-3c2.527.596 4.86 1.763 7 3.5z"/><path style="opacity:1" fill="#a67f4c" d="M117.5 128.5c2.513.726 3.179 2.059 2 4a13.227 13.227 0 0 0-5-2c-.17 1.322.163 2.489 1 3.5a2.428 2.428 0 0 1-2 .5v-3c.194-2.412 1.527-3.412 4-3z"/><path style="opacity:1" fill="#e5cdab" d="M202.5 123.5c.438 1.006 1.104 1.006 2 0a40.594 40.594 0 0 0 4.5 6c.789 2.212.622 4.212-.5 6a2.428 2.428 0 0 0-.5-2c-2.265 1.416-3.431 3.416-3.5 6h-1c-3.758-1.754-7.758-2.421-12-2a20.69 20.69 0 0 1-5-1 17.477 17.477 0 0 0-3-5.5l1-1.5c1.352 1.018 2.352 2.351 3 4a66.678 66.678 0 0 1 5.5 2 4.934 4.934 0 0 0 .5-3c-4.738-.102-4.738-1.435 0-4 .886-.825 1.219-1.825 1-3-1.992-.172-3.658.495-5 2-.765-1.112-1.765-1.779-3-2 .418-.722 1.084-1.222 2-1.5a98.432 98.432 0 0 1 14-.5z"/><path style="opacity:1" fill="#4f412c" d="M88.5 129.5c1.617.538 3.284.871 5 1 1.364 4.264 4.364 6.097 9 5.5.837 1.011 1.17 2.178 1 3.5-4 .667-4 1.333 0 2v3h-4c-.38-1.431-1.38-2.264-3-2.5 1.456-.423 1.956-1.256 1.5-2.5-1.7.906-3.533 1.239-5.5 1-1.274-.689-1.274-1.523 0-2.5a31.91 31.91 0 0 1-6-1.5c2.606-1.35 2.606-2.85 0-4.5 1.256-.417 1.923-1.25 2-2.5z"/><path style="opacity:1" fill="#c0a988" d="m86.5 127.5 2 2c-.077 1.25-.744 2.083-2 2.5 2.606 1.65 2.606 3.15 0 4.5-1.181-2.862-1.181-5.862 0-9z"/><path style="opacity:1" fill="#483720" d="m119.5 132.5 2 3h-3c.667 3.333-.667 5.333-4 6-1.041-2.491-1.874-2.491-2.5 0a12.93 12.93 0 0 1-.5-5c.333-1 1-1.667 2-2a2.428 2.428 0 0 0 2-.5c-.837-1.011-1.17-2.178-1-3.5 1.822.331 3.489.998 5 2z"/><path style="opacity:1" fill="#d3b994" d="M133.5 113.5v3a8.43 8.43 0 0 0 .5 4c2.106-2.618 4.606-4.618 7.5-6-1.885 1.553-2.885 3.553-3 6a514.367 514.367 0 0 1-3 4c1.13 1.122 1.797 2.456 2 4v3a14.698 14.698 0 0 1-3.5-3c1.357 5.684 5.023 9.017 11 10 1.681-.108 2.848-.775 3.5-2 2.541.35 4.874.35 7 0 2.292-1.186 4.626-1.186 7 0h2c3.652-.997 7.318-1.164 11-.5l1-1c-2.435-.075-3.102-.908-2-2.5 3.287-.773 4.787-2.773 4.5-6a33.673 33.673 0 0 0-5.5 4c-.111-.617-.444-1.117-1-1.5 3.22-1.266 5.553-3.433 7-6.5a43.836 43.836 0 0 1-1-2c-3.114-1.612-6.447-2.945-10-4a9.108 9.108 0 0 1 5 1c.886-.825 1.219-1.825 1-3 2.919 1.413 5.419 3.413 7.5 6 .717-.544 1.217-1.211 1.5-2a21.127 21.127 0 0 1 9 1c-2.645 1.419-5.645 2.085-9 2-.872 1.966-.705 3.966.5 6 .708-.881 1.542-1.547 2.5-2 1.235.221 2.235.888 3 2 1.342-1.505 3.008-2.172 5-2 .219 1.175-.114 2.175-1 3-4.738 2.565-4.738 3.898 0 4a4.934 4.934 0 0 1-.5 3 66.678 66.678 0 0 0-5.5-2c-.648-1.649-1.648-2.982-3-4l-1 1.5a17.477 17.477 0 0 1 3 5.5h-1c-2.354-.994-3.354.006-3 3-1.643.02-2.976-.647-4-2a4.457 4.457 0 0 0-1.5 2c-2.351-2.543-3.517-1.877-3.5 2 1.624-.14 2.79.527 3.5 2 1.085-2.157 2.251-2.324 3.5-.5-2.667.667-2.667 1.333 0 2a27.603 27.603 0 0 0-5 1.5c-1.573-3.393-4.24-4.726-8-4a31.686 31.686 0 0 0-6-2c-.366-1.195-1.199-1.861-2.5-2-2.669.516-5.169 1.183-7.5 2a5.727 5.727 0 0 0-3 1c-2.181-.216-3.847.617-5 2.5a18.453 18.453 0 0 1-6 .5c.641-.982 1.307-1.982 2-3-4.116-1.781-8.449-2.447-13-2-5.631.878-10.965 2.545-16 5-.306-2.885.027-5.552 1-8a12.93 12.93 0 0 0 .5 5c.626-2.491 1.459-2.491 2.5 0 3.333-.667 4.667-2.667 4-6h3c.077 1.25.744 2.083 2 2.5 3.711.825 7.378.659 11-.5-1.434-1.72-2.267-3.72-2.5-6a145.053 145.053 0 0 1-.5-17l2-1z"/><path style="opacity:1" fill="#d6ccc2" d="M137.5 131.5c2.112 2.271 4.779 3.604 8 4 .709.904 1.709 1.237 3 1-.652 1.225-1.819 1.892-3.5 2-5.977-.983-9.643-4.316-11-10a14.698 14.698 0 0 0 3.5 3z"/><path style="opacity:1" fill="#b18d59" d="M160.5 131.5h11a2.428 2.428 0 0 0 .5 2c.671-.752 1.504-1.086 2.5-1-1.102 1.592-.435 2.425 2 2.5l-1 1c-3.682-.664-7.348-.497-11 .5 1.16-.765 2.16-1.765 3-3-2.136-1.293-4.136-1.293-6 0h-7c-1.915.284-3.581-.049-5-1 3.871.315 7.538-.018 11-1z"/><path style="opacity:1" fill="#462c11" d="M154.5 133.5h7c.61.891.943 1.891 1 3-2.374-1.186-4.708-1.186-7 0a5.727 5.727 0 0 1-1-3z"/><path style="opacity:1" fill="#cc9345" d="M144.5 131.5a20.69 20.69 0 0 0 5 1c1.419.951 3.085 1.284 5 1a5.727 5.727 0 0 0 1 3c-2.126.35-4.459.35-7 0-1.291.237-2.291-.096-3-1l-1-4z"/><path style="opacity:1" fill="#a66d24" d="M164.5 136.5h-2a5.727 5.727 0 0 0-1-3c1.864-1.293 3.864-1.293 6 0-.84 1.235-1.84 2.235-3 3z"/><path style="opacity:1" fill="#d89f51" d="M174.5 132.5c-.996-.086-1.829.248-2.5 1a2.428 2.428 0 0 1-.5-2l2-1a33.673 33.673 0 0 1 5.5-4c.287 3.227-1.213 5.227-4.5 6z"/><path style="opacity:1" fill="#261d11" d="M137.5 128.5a32.508 32.508 0 0 0 7 3l1 4c-3.221-.396-5.888-1.729-8-4v-3z"/><path style="opacity:1" fill="#ddd4ce" d="M178.5 120.5c.304.65.637 1.317 1 2-1.447 3.067-3.78 5.234-7 6.5.556.383.889.883 1 1.5l-2 1h-8c-5.788-3.662-8.121-8.995-7-16a10.014 10.014 0 0 1 3-1c5.8 3.599 12.133 5.599 19 6z"/><path style="opacity:1" fill="#ddd4cc" d="M160.5 131.5c-3.462.982-7.129 1.315-11 1a20.69 20.69 0 0 1-5-1 32.508 32.508 0 0 1-7-3c-.203-1.544-.87-2.878-2-4a514.367 514.367 0 0 0 3-4c4.831-3.209 10.164-4.876 16-5-.742 6.491 1.258 11.825 6 16z"/><path style="opacity:1" fill="#978a76" d="M141.5 114.5a2.428 2.428 0 0 1 2 .5c-1.196.654-1.196 1.154 0 1.5 4.252-2.076 8.585-2.409 13-1-1.121 7.005 1.212 12.338 7 16h-3c-4.742-4.175-6.742-9.509-6-16-5.836.124-11.169 1.791-16 5 .115-2.447 1.115-4.447 3-6z"/><path style="opacity:1" fill="#130f0a" d="M126.5 139.5c4.551-.447 8.884.219 13 2a185.977 185.977 0 0 0-2 3h-1c-3.462-.982-7.129-1.315-11-1-.067-1.459.266-2.792 1-4z"/><path style="opacity:1" fill="#8d6d40" d="M161.5 140.5h-10c2.331-.817 4.831-1.484 7.5-2 1.301.139 2.134.805 2.5 2z"/><path style="opacity:1" fill="#362311" d="M151.5 140.5h10a31.686 31.686 0 0 1 6 2v2c-5.597-2.086-11.264-2.419-17-1h-1l-1-2a5.727 5.727 0 0 1 3-1z"/><path style="opacity:1" fill="#a59379" d="M99.5 144.5c-3.044-.272-5.377-1.605-7-4 1.967.239 3.8-.094 5.5-1 .456 1.244-.044 2.077-1.5 2.5 1.62.236 2.62 1.069 3 2.5z"/><path style="opacity:1" fill="#8a612d" d="M185.5 136.5h1a20.69 20.69 0 0 0 5 1c-.447 3.024-1.28 3.357-2.5 1-1.487.753-1.654 1.586-.5 2.5a11.333 11.333 0 0 0-1.5 3.5c-1.183 1.231-2.349 1.231-3.5 0 .468-1.634 1.468-2.8 3-3.5a6.802 6.802 0 0 1-3-1.5c.897-.169 1.897-.502 3-1a43.836 43.836 0 0 1-1-2z"/><path style="opacity:1" fill="#a57228" d="M203.5 139.5h4c.268 1.599-.066 2.932-1 4-2.741-.207-5.074-1.207-7-3 1.599.268 2.932-.066 4-1z"/><path style="opacity:1" fill="#332312" d="M126.5 139.5c-.734 1.208-1.067 2.541-1 4-3.64-.025-5.973 1.642-7 5 0 .667-.333 1-1 1v-3c-3.396.384-6.396 1.718-9 4-.904-.709-1.237-1.709-1-3a10.165 10.165 0 0 0 3-3c5.035-2.455 10.369-4.122 16-5z"/><path style="opacity:1" fill="#c7bdb1" d="M125.5 143.5c3.871-.315 7.538.018 11 1v3c-3.798.983-7.798 1.317-12 1h-6c1.027-3.358 3.36-5.025 7-5z"/><path style="opacity:1" fill="#cb9a55" d="M167.5 142.5c3.76-.726 6.427.607 8 4l3 2c-1.459-.067-2.792.266-4 1a18.33 18.33 0 0 0-6-4c0-.667-.333-1-1-1v-2z"/><path style="opacity:1" fill="#6b431b" d="m148.5 141.5 1 2c-1.443.835-2.443 2.168-3 4a83.7 83.7 0 0 1-9-3 18.453 18.453 0 0 0 6-.5c1.153-1.883 2.819-2.716 5-2.5z"/><path style="opacity:1" fill="#796c57" d="M167.5 144.5c.667 0 1 .333 1 1a118.435 118.435 0 0 1-16 1l-2-3c5.736-1.419 11.403-1.086 17 1z"/><path style="opacity:1" fill="#62340b" d="M199.5 140.5c1.926 1.793 4.259 2.793 7 3-1.027 3.358-3.36 5.025-7 5a54.968 54.968 0 0 1-12-1c2.156-4.369 5.49-7.369 10-9 1.213.247 1.88.914 2 2z"/><path style="opacity:1" fill="#a08e71" d="M208.5 135.5a15.894 15.894 0 0 0 1 6.5c-.633 6.135-3.966 9.302-10 9.5-1.333-1-1.333-2 0-3 3.64.025 5.973-1.642 7-5 .934-1.068 1.268-2.401 1-4h-3c.069-2.584 1.235-4.584 3.5-6 .464.594.631 1.261.5 2z"/><path style="opacity:1" fill="#dbd2ca" d="M168.5 145.5a18.33 18.33 0 0 1 6 4c.912 1.238 1.079 2.572.5 4a58.44 58.44 0 0 1-9-3l-4 2c-2.04-2.646-4.04-2.646-6 0-.627-2.427-1.794-4.427-3.5-6 5.362.028 10.695-.306 16-1z"/><path style="opacity:1" fill="#cfc3b6" d="M117.5 149.5c-.904.709-1.237 1.709-1 3a19.22 19.22 0 0 0-6 1c-2.928 1.091-5.094 3.091-6.5 6-.079-3.763 1.421-6.763 4.5-9 2.604-2.282 5.604-3.616 9-4v3z"/><path style="opacity:1" fill="#554b3d" d="M136.5 147.5c5.323.85 5.323 2.017 0 3.5.906 1.699 1.239 3.533 1 5.5-1.604-.787-2.271-2.12-2-4h-9c-1.478.262-2.811-.071-4-1 1.112-.765 1.779-1.765 2-3 4.202.317 8.202-.017 12-1z"/><path style="opacity:1" fill="#735b36" d="M187.5 147.5a54.968 54.968 0 0 0 12 1c-1.333 1-1.333 2 0 3-4.475 1.006-8.808 1.006-13 0-1.256.039-2.256-.461-3-1.5a51.22 51.22 0 0 1 4-2.5z"/><path style="opacity:1" fill="#7e6e55" d="M118.5 148.5h6c-.221 1.235-.888 2.235-2 3 1.189.929 2.522 1.262 4 1-7.311.884-13.644 3.884-19 9-.767-.672-1.434-1.505-2-2.5a38.47 38.47 0 0 0 5-5.5 19.22 19.22 0 0 1 6-1c-.237-1.291.096-2.291 1-3 .667 0 1-.333 1-1z"/><path style="opacity:1" fill="#aa8c60" d="M185.5 136.5c.304.65.637 1.317 1 2-1.103.498-2.103.831-3 1a6.802 6.802 0 0 0 3 1.5c-1.532.7-2.532 1.866-3 3.5 1.151 1.231 2.317 1.231 3.5 0a11.333 11.333 0 0 1 1.5-3.5c-1.154-.914-.987-1.747.5-2.5 1.22 2.357 2.053 2.024 2.5-1 4.242-.421 8.242.246 12 2-1.068.934-2.401 1.268-4 1-.12-1.086-.787-1.753-2-2-4.51 1.631-7.844 4.631-10 9a51.22 51.22 0 0 0-4 2.5c.744 1.039 1.744 1.539 3 1.5-1.361 2.694-3.361 4.694-6 6-4.669-2.344-4.669-3.844 0-4.5a8.905 8.905 0 0 0-4-3c1.941-.743 3.774-.576 5.5.5 2.311-2.017 1.977-3.351-1-4-1.011.556-1.844 1.222-2.5 2l-3-2a27.603 27.603 0 0 1 5-1.5c-2.667-.667-2.667-1.333 0-2-1.249-1.824-2.415-1.657-3.5.5-.71-1.473-1.876-2.14-3.5-2-.017-3.877 1.149-4.543 3.5-2a4.457 4.457 0 0 1 1.5-2c1.024 1.353 2.357 2.02 4 2-.354-2.994.646-3.994 3-3z"/><path style="opacity:1" fill="#cdb28c" d="M149.5 143.5h1l2 3c1.706 1.573 2.873 3.573 3.5 6 1.96-2.646 3.96-2.646 6 0l4-2a58.44 58.44 0 0 0 9 3c.579-1.428.412-2.762-.5-4 1.208-.734 2.541-1.067 4-1 .656-.778 1.489-1.444 2.5-2 2.977.649 3.311 1.983 1 4-1.726-1.076-3.559-1.243-5.5-.5a8.905 8.905 0 0 1 4 3c-4.669.656-4.669 2.156 0 4.5v2a89.247 89.247 0 0 1-4-2c-1.845 1.438-3.011 1.104-3.5-1a8.43 8.43 0 0 0-.5 4h-5l1-2a7.47 7.47 0 0 0 3-2 19.175 19.175 0 0 0-6.5-2 75.943 75.943 0 0 1-8.5 3v7c-.997.03-1.664-.47-2-1.5-.143-3.82-1.81-6.653-5-8.5-2.109-2.557-4.775-3.723-8-3.5a11.333 11.333 0 0 1 1.5 3.5c.671.752 1.504 1.086 2.5 1 2.336 1.573 2.336 2.906 0 4a4.934 4.934 0 0 1-3-.5c1.196-.654 1.196-1.154 0-1.5-1.022.355-1.689 1.022-2 2h-1c-.901-.79-1.568-1.79-2-3 .239-1.967-.094-3.801-1-5.5 5.323-1.483 5.323-2.65 0-3.5v-3h1a83.7 83.7 0 0 0 9 3c.557-1.832 1.557-3.165 3-4z"/><path style="opacity:1" fill="#dbd3cd" d="M126.5 152.5h9c-.271 1.88.396 3.213 2 4 .432 1.21 1.099 2.21 2 3a56.045 56.045 0 0 0-3 14h-4c-10.039 1.226-18.872-1.441-26.5-8-.3-1.566.2-2.899 1.5-4 5.356-5.116 11.689-8.116 19-9z"/><path style="opacity:1" fill="#514027" d="M149.5 154.5c-1.068.934-2.401 1.268-4 1-.996.086-1.829-.248-2.5-1a11.333 11.333 0 0 0-1.5-3.5c3.225-.223 5.891.943 8 3.5z"/><path style="opacity:1" fill="#64563e" d="M168.5 158.5c-3.798-.983-7.798-1.317-12-1a75.943 75.943 0 0 0 8.5-3c2.292.281 4.458.948 6.5 2a7.47 7.47 0 0 1-3 2z"/><path style="opacity:1" fill="#513112" d="m145.5 159.5-1 2c-1.208.734-2.541 1.067-4 1v-3c.311-.978.978-1.645 2-2 1.196.346 1.196.846 0 1.5a4.934 4.934 0 0 0 3 .5z"/><path style="opacity:1" fill="#f0d2aa" d="M146.5 162.5v-1c2.851-1.385 5.184-.719 7 2a4.457 4.457 0 0 1-1.5 2 827.868 827.868 0 0 0-5.5-3z"/><path style="opacity:1" fill="#cfa367" d="M149.5 154.5c3.19 1.847 4.857 4.68 5 8.5.336 1.03 1.003 1.53 2 1.5l-1 6a44.093 44.093 0 0 0-2 3c-.798-.457-1.131-1.124-1-2a81.316 81.316 0 0 0-3-2.5l1-1c-1.917.027-3.584.861-5 2.5-.886-.825-1.219-1.825-1-3v-1c1.479-1.326 2.145-2.659 2-4 1.8.973 3.634 1.973 5.5 3a4.457 4.457 0 0 0 1.5-2c-1.816-2.719-4.149-3.385-7-2h-2l1-2c2.336-1.094 2.336-2.427 0-4 1.599.268 2.932-.066 4-1z"/><path style="opacity:1" fill="#dbd2cb" d="M156.5 157.5c4.202-.317 8.202.017 12 1l-1 2c-1.314 2.914-.147 4.581 3.5 5a19.953 19.953 0 0 0 4.5-3c1.214 2.359 1.214 4.692 0 7-.958.453-1.792 1.119-2.5 2a79.547 79.547 0 0 0-17.5-1l1-6v-7z"/><path style="opacity:1" fill="#a78352" d="M180.5 159.5v3c-1.13 3.134-1.796 6.134-2 9a185.977 185.977 0 0 0-3-2c1.214-2.308 1.214-4.641 0-7a19.953 19.953 0 0 1-4.5 3c-3.647-.419-4.814-2.086-3.5-5h5a8.43 8.43 0 0 1 .5-4c.489 2.104 1.655 2.438 3.5 1 1.367.725 2.7 1.392 4 2z"/><path style="opacity:1" fill="#9c7747" d="M139.5 159.5h1v3c1.459.067 2.792-.266 4-1h2v1c.145 1.341-.521 2.674-2 4-1.049.098-2.215.098-3.5 0a10.756 10.756 0 0 1-2.5 3c.825.886 1.825 1.219 3 1a5.727 5.727 0 0 0-1 3h-4a56.045 56.045 0 0 1 3-14z"/><path style="opacity:1" fill="#d0b691" d="M107.5 147.5c-.237 1.291.096 2.291 1 3-3.079 2.237-4.579 5.237-4.5 9 1.406-2.909 3.572-4.909 6.5-6a38.47 38.47 0 0 1-5 5.5c.566.995 1.233 1.828 2 2.5-1.3 1.101-1.8 2.434-1.5 4 7.628 6.559 16.461 9.226 26.5 8-1.419.951-3.085 1.284-5 1-6.949.571-13.282-1.096-19-5-.886.825-1.219 1.825-1 3-.958-.453-1.792-1.119-2.5-2 .222 1.956 1.055 3.79 2.5 5.5 4.147 2.74 8.48 4.907 13 6.5-4.21-.237-8.044-1.57-11.5-4a4.934 4.934 0 0 0-.5 3c-2.974-1.827-5.141-4.493-6.5-8a297.658 297.658 0 0 0-1.5-16.5c.2-3.233 1.367-6.067 3.5-8.5 1.011-.837 2.178-1.17 3.5-1z"/><path style="opacity:1" fill="#5e3414" d="M144.5 166.5v1c-.6 1.4-1.6 2.4-3 3-1.175.219-2.175-.114-3-1a10.756 10.756 0 0 0 2.5-3c1.285.098 2.451.098 3.5 0z"/><path style="opacity:1" fill="#9c5f1c" d="M144.5 167.5c-.219 1.175.114 2.175 1 3 1.416-1.639 3.083-2.473 5-2.5l-1 1a81.316 81.316 0 0 1 3 2.5c-.876-.131-1.543.202-2 1 .826.951.992 1.951.5 3a14.972 14.972 0 0 1-3.5-3c-.607.124-.94.457-1 1a9.175 9.175 0 0 0-4.5 2c-.383-.556-.883-.889-1.5-1v-1a5.727 5.727 0 0 1 1-3c1.4-.6 2.4-1.6 3-3z"/><path style="opacity:1" fill="#d3b892" d="M180.5 162.5c.66 1.464.993 3.131 1 5 .212 2.511-.455 4.678-2 6.5 2.135.876 3.469 2.376 4 4.5v1a17.902 17.902 0 0 0-6-4 23.954 23.954 0 0 0-9-3l-13-2a79.547 79.547 0 0 1 17.5 1c.708-.881 1.542-1.547 2.5-2 .982.641 1.982 1.307 3 2 .204-2.866.87-5.866 2-9z"/><path style="opacity:1" fill="#160f08" d="M127.5 174.5a39.445 39.445 0 0 1 5 2.5 84.902 84.902 0 0 1-13 .5c-4.517-.597-8.517-2.263-12-5-.219-1.175.114-2.175 1-3 5.718 3.904 12.051 5.571 19 5z"/><path style="opacity:1" fill="#462812" d="M132.5 173.5h8v1a892.751 892.751 0 0 0-6 4c-5.195.321-10.195-.013-15-1a84.902 84.902 0 0 0 13-.5 39.445 39.445 0 0 0-5-2.5c1.915.284 3.581-.049 5-1z"/><path style="opacity:1" fill="#533a1d" d="m155.5 170.5 13 2a21.341 21.341 0 0 0-9 1.5c2.208.191 4.208.691 6 1.5h-10c-2.439 1.527-4.439 3.527-6 6-1.454-1.02-1.787-2.187-1-3.5-3.443-.221-3.776-1.221-1-3-.228-.399-.562-.565-1-.5v-1c.06-.543.393-.876 1-1a14.972 14.972 0 0 0 3.5 3c.492-1.049.326-2.049-.5-3 .457-.798 1.124-1.131 2-1-.131.876.202 1.543 1 2a44.093 44.093 0 0 1 2-3z"/><path style="opacity:1" fill="#d7cec6" d="M155.5 175.5h12v2c-3.382 2.132-7.049 2.465-11 1a5.576 5.576 0 0 1-1-3z"/><path style="opacity:1" fill="#2f1f0c" d="M168.5 172.5a23.954 23.954 0 0 1 9 3 5.727 5.727 0 0 1-1 3h-1v-1c-2.06-1.311-4.226-1.311-6.5 0-.278-.916-.778-1.582-1.5-2h-2c-1.792-.809-3.792-1.309-6-1.5a21.341 21.341 0 0 1 9-1.5z"/><path style="opacity:1" fill="#6e4d21" d="M167.5 175.5c.722.418 1.222 1.084 1.5 2 2.274-1.311 4.44-1.311 6.5 0a13.139 13.139 0 0 0-6 2c-1.213-.247-1.88-.914-2-2v-2z"/><path style="opacity:1" fill="#d6ccc4" d="M107.5 172.5c3.483 2.737 7.483 4.403 12 5 4.805.987 9.805 1.321 15 1 .438-.065.772.101 1 .5a6.547 6.547 0 0 1-3 3 72.367 72.367 0 0 1-12 .5c-4.52-1.593-8.853-3.76-13-6.5-1.445-1.71-2.278-3.544-2.5-5.5.708.881 1.542 1.547 2.5 2z"/><path style="opacity:1" fill="#bba483" d="M155.5 175.5a5.576 5.576 0 0 0 1 3c3.951 1.465 7.618 1.132 11-1 .12 1.086.787 1.753 2 2a13.139 13.139 0 0 1 6-2v1a30.233 30.233 0 0 1-3 3.5c.916.278 1.582.778 2 1.5-.996-.086-1.829.248-2.5 1-2.101-3.045-5.101-4.378-9-4a85.81 85.81 0 0 0-7.5 1c-1.951-1.141-3.951-1.141-6 0 1.561-2.473 3.561-4.473 6-6z"/><path style="opacity:1" fill="#b87d30" d="M177.5 175.5a17.902 17.902 0 0 1 6 4c-2.512 1.367-4.845 1.034-7-1a5.727 5.727 0 0 0 1-3z"/><path style="opacity:1" fill="#62543e" d="M174.5 183.5a44.433 44.433 0 0 1 5.5 3c.528 1.316.028 1.983-1.5 2-7.626-3.876-15.626-4.876-24-3 .418-.722 1.084-1.222 2-1.5-.752-.671-1.086-1.504-1-2.5a85.81 85.81 0 0 1 7.5-1c3.899-.378 6.899.955 9 4 .671-.752 1.504-1.086 2.5-1z"/><path style="opacity:1" fill="#50493b" d="M120.5 182.5c3.462.982 7.129 1.315 11 1 .067 1.459-.266 2.792-1 4-8.393 1.378-15.727-.622-22-6a4.934 4.934 0 0 1 .5-3c3.456 2.43 7.29 3.763 11.5 4z"/><path style="opacity:1" fill="#aa7b3a" d="M146.5 174.5c.438-.065.772.101 1 .5-2.776 1.779-2.443 2.779 1 3-.787 1.313-.454 2.48 1 3.5 2.049-1.141 4.049-1.141 6 0-.086.996.248 1.829 1 2.5-.916.278-1.582.778-2 1.5.219 1.175-.114 2.175-1 3-1.391-1.145-2.724-1.145-4 0a10.776 10.776 0 0 0 6 2v3c-1.613.444-2.78 1.444-3.5 3-1.5-2.167-3.333-4-5.5-5.5-3.022-.098-5.689-.932-8-2.5.789-.283 1.456-.783 2-1.5a14.72 14.72 0 0 1-5-1.5c1.32-5.987 4.987-9.654 11-11z"/><path style="opacity:1" fill="#e4c28f" d="M148.5 183.5c1.929-.269 3.595.231 5 1.5a76.452 76.452 0 0 0-10 2c1.455-1.626 3.122-2.792 5-3.5z"/><path style="opacity:1" fill="#6c3b0f" d="M143.5 180.5c3.808.939 3.808 2.272 0 4-2.625-1.365-2.625-2.698 0-4z"/><path style="opacity:1" fill="#dbd3cb" d="M178.5 188.5c1.603 1.096 3.103 2.43 4.5 4 .711 1.867.211 3.367-1.5 4.5-7.4 4.099-15.4 5.933-24 5.5.237-1.291-.096-2.291-1-3l-1-6v-3a10.776 10.776 0 0 1-6-2c1.276-1.145 2.609-1.145 4 0 .886-.825 1.219-1.825 1-3 8.374-1.876 16.374-.876 24 3z"/><path style="opacity:1" fill="#8f6f43" d="M138.5 188.5c2.311 1.568 4.978 2.402 8 2.5 2.167 1.5 4 3.333 5.5 5.5.72-1.556 1.887-2.556 3.5-3l1 6c.065.438-.101.772-.5 1a26.813 26.813 0 0 0-7.5-3.5c-1.393-1.171-2.227-2.671-2.5-4.5a4.457 4.457 0 0 1-1.5 2c-2.779-2.781-4.779-2.281-6 1.5.184 1.376.851 2.209 2 2.5v1c-.904.709-1.237 1.709-1 3h-3c-.453-.958-1.119-1.792-2-2.5a4.934 4.934 0 0 1 3-.5c.51-2.888-.156-5.221-2-7a22.836 22.836 0 0 0 3-4z"/><path style="opacity:1" fill="#cbb9a0" d="M146.5 173.5v1c-6.013 1.346-9.68 5.013-11 11a14.72 14.72 0 0 0 5 1.5c-.544.717-1.211 1.217-2 1.5a22.836 22.836 0 0 1-3 4c-2 0-3 1-3 3-3.574-.592-5.574.908-6 4.5a6.802 6.802 0 0 1 3 1.5c-5.956 2.206-8.456.206-7.5-6a94.29 94.29 0 0 0 8.5-5c-.876.131-1.543-.202-2-1a31.147 31.147 0 0 0 2-2c.734-1.208 1.067-2.541 1-4-3.871.315-7.538-.018-11-1a72.367 72.367 0 0 0 12-.5 6.547 6.547 0 0 0 3-3c-.228-.399-.562-.565-1-.5a892.751 892.751 0 0 1 6-4c.617.111 1.117.444 1.5 1a9.175 9.175 0 0 1 4.5-2z"/><path style="opacity:1" fill="#784e25" d="M130.5 190.5c1.251-2.061 2.918-2.394 5-1-1.465 1.924-3.132 2.257-5 1z"/><path style="opacity:1" fill="#2c1e0e" d="M135.5 192.5c1.844 1.779 2.51 4.112 2 7a4.934 4.934 0 0 0-3 .5c.881.708 1.547 1.542 2 2.5h-3c.295-2.235-.039-4.235-1-6v-1c0-2 1-3 3-3z"/><path style="opacity:1" fill="#291b0e" d="M140.5 199.5a57.56 57.56 0 0 0 15 6 21.127 21.127 0 0 1 9 1 31.116 31.116 0 0 1-11 1 56.573 56.573 0 0 1-14-5c-.237-1.291.096-2.291 1-3z"/><path style="opacity:1" fill="#caac80" d="M140.5 199.5v-1c4.267 1.455 8.6 2.955 13 4.5 5.696.17 11.362.67 17 1.5a44.093 44.093 0 0 1 3 2c-2.157.907-4.49 1.573-7 2 .734-1.208 1.067-2.541 1-4-4.202-.317-8.202.017-12 1a57.56 57.56 0 0 1-15-6z"/><path style="opacity:1" fill="#8e6f40" d="M132.5 196.5c.961 1.765 1.295 3.765 1 6h3c.104 2.203.77 4.203 2 6a18.748 18.748 0 0 1-5 4h-1c-1.333-4.333-1.333-8.667 0-13v-3z"/><path style="opacity:1" fill="#dccbb4" d="M175.5 178.5h1c2.155 2.034 4.488 2.367 7 1v-1c2.952.859 4.785 2.859 5.5 6 .821 7.179.655 14.179-.5 21a175.015 175.015 0 0 1-.5-14 31.177 31.177 0 0 1-4.5 6 3.647 3.647 0 0 0 1 1.5 71.83 71.83 0 0 1-6 4.5c.124.607.457.94 1 1-1.714 1.238-3.714 1.905-6 2a44.093 44.093 0 0 0-3-2 146.655 146.655 0 0 0-17-1.5c-4.4-1.545-8.733-3.045-13-4.5-1.149-.291-1.816-1.124-2-2.5 1.221-3.781 3.221-4.281 6-1.5a4.457 4.457 0 0 0 1.5-2c.273 1.829 1.107 3.329 2.5 4.5 2.72.797 5.22 1.963 7.5 3.5.399-.228.565-.562.5-1 .904.709 1.237 1.709 1 3 8.6.433 16.6-1.401 24-5.5 1.711-1.133 2.211-2.633 1.5-4.5-1.397-1.57-2.897-2.904-4.5-4 1.528-.017 2.028-.684 1.5-2a44.433 44.433 0 0 0-5.5-3c-.418-.722-1.084-1.222-2-1.5a30.233 30.233 0 0 0 3-3.5z"/><path style="opacity:1" fill="#e4ddd7" d="M269.5 178.5c.988 5.14 1.321 10.474 1 16 1.175-.219 2.175.114 3 1-.897.169-1.897.502-3 1a3.647 3.647 0 0 0 1 1.5c-1.078.674-1.745 1.674-2 3 .677 4.494 2.01 4.661 4 .5 1.216.502 2.383.835 3.5 1 .54-1.635.04-2.968-1.5-4a26.585 26.585 0 0 1 3.5-2c1.23 1.52 2.397 2.353 3.5 2.5-1.035.253-2.035 1.086-3 2.5 2.713 1.683 3.213 3.683 1.5 6a10.258 10.258 0 0 0-1.5-4c-1.542 1.247-3.042 1.247-4.5 0l-1.5 1.5c4.865.639 5.198 2.305 1 5l1 1c-2.031.632-3.698 1.799-5 3.5a6.802 6.802 0 0 0 3 1.5l-1 1a37.714 37.714 0 0 1 8 3.5 7.293 7.293 0 0 1-3 2c-1.211-.774-1.211-1.607 0-2.5-1.68-.034-3.18-.201-4.5-.5-2.258 2.786-1.758 3.452 1.5 2a6.802 6.802 0 0 1 1.5 3c1.66.176 3.326-.491 5-2 .718.951 1.551 1.117 2.5.5-3.059-2.576-2.559-4.076 1.5-4.5 1.892 2.89 2.725 2.556 2.5-1a59.44 59.44 0 0 1-10-3.5c1.621-1.957 2.621-3.791 3-5.5a10.756 10.756 0 0 0 3 2.5c-1.284 1.297-1.117 2.464.5 3.5.667-2.667 1.333-2.667 2 0 1.487-.753 1.654-1.586.5-2.5 1.284-.684 2.451-.517 3.5.5.667-4 1.333-4 2 0 1.075-2.33 2.575-3.663 4.5-4l1 4c1.503-1.09 1.836-2.257 1-3.5 2.854-2.266 4.687-1.766 5.5 1.5a9.454 9.454 0 0 1 2.5-1.5c-1.211-.893-1.211-1.726 0-2.5 1.018.693 2.018 1.359 3 2v81c-1.911-.074-3.078-1.074-3.5-3l-1.5 1.5c.808 1.706 2.141 2.539 4 2.5.087 3.098-.413 3.432-1.5 1-1 1.333-2 1.333-3 0a4.934 4.934 0 0 0-.5 3c-1.609-.406-2.943-.406-4 0 .605 1.981 1.605 2.315 3 1a26.585 26.585 0 0 1 2 3.5c-2.806-.1-5.472-.933-8-2.5a4.457 4.457 0 0 1 2-1.5c-3.645-.259-6.478 1.241-8.5 4.5-1.779-2.776-2.779-2.443-3 1-2.783-6.077-5.283-6.41-7.5-1-1.196-.346-1.196-.846 0-1.5-3.455-1.644-6.455-.811-9 2.5a3.647 3.647 0 0 1-1.5-1l-1 4-1-1c-1.294 1.354-1.46 2.688-.5 4-2.423 2.706-3.59 2.039-3.5-2a4.934 4.934 0 0 0-.5 3c-1.793 1.572-4.459 2.905-8 4-1.383-2.576-2.217-2.242-2.5 1l-1-3c-.423 1.456-1.256 1.956-2.5 1.5l1-1a7.293 7.293 0 0 1-3-2c1.333-.667 1.333-1.333 0-2-3.451-.747-3.784-.08-1 2-1.451-.263-2.784-.096-4 .5a14.972 14.972 0 0 1 3 3.5c-2.447-.288-3.78-1.788-4-4.5-2.738-.535-4.572.465-5.5 3a11.38 11.38 0 0 1-2.5-2c1.985-.104 3.485-1.437 4.5-4 3.014 2.765 5.514 2.265 7.5-1.5l-1.5-1.5a30.935 30.935 0 0 1-8 3l-1-1-3 6c-.605-1.981-1.605-2.315-3-1-.311 1.242.189 2.242 1.5 3-1.574 1.131-3.241 1.298-5 .5 1.402-1.342 1.069-2.176-1-2.5a4.933 4.933 0 0 0-2.5 1 6.802 6.802 0 0 0-1.5-3 67.557 67.557 0 0 1-7 4c-.194-1.54-1.027-3.206-2.5-5-.782 4.931-3.282 8.597-7.5 11a32.087 32.087 0 0 0-4-3.5 4.457 4.457 0 0 0 2-1.5l-3-4c1.935-.713 2.268-1.713 1-3a2447.74 2447.74 0 0 1 20-16 744.892 744.892 0 0 0 29-35c2.828-6.999 6.662-13.332 11.5-19 7.9-18.11 11.4-37.11 10.5-57z"/><path style="opacity:1" fill="#dbd2ca" d="M140.5 212.5c-.16-1.653-.826-2.986-2-4-1.23-1.797-1.896-3.797-2-6h3a56.573 56.573 0 0 0 14 5c4.134.985 8.468 1.318 13 1 2.51-.427 4.843-1.093 7-2 2.286-.095 4.286-.762 6-2 2.575-1.068 4.742-2.735 6.5-5l.5 3c-1.817 3.611-4.15 6.945-7 10 .774 1.211 1.607 1.211 2.5 0 .667.667.667 1.333 0 2a89.809 89.809 0 0 1-7.5 5c-1.352-1.396-3.019-2.063-5-2-10.567 2.6-20.233.933-29-5z"/><path style="opacity:1" fill="#6b4b27" d="M155.5 205.5c3.798-.983 7.798-1.317 12-1 .067 1.459-.266 2.792-1 4-4.532.318-8.866-.015-13-1a31.116 31.116 0 0 0 11-1 21.127 21.127 0 0 0-9-1z"/><path style="opacity:1" fill="#c5af8f" d="M188.5 205.5c-3.267 10.262-10.267 16.262-21 18-.077-1.25-.744-2.083-2-2.5-8.201.456-15.868-1.211-23-5-1.323-.816-1.989-1.983-2-3.5 8.767 5.933 18.433 7.6 29 5 1.981-.063 3.648.604 5 2a89.809 89.809 0 0 0 7.5-5c.667-.667.667-1.333 0-2-.893 1.211-1.726 1.211-2.5 0 2.85-3.055 5.183-6.389 7-10l-.5-3c-1.758 2.265-3.925 3.932-6.5 5-.543-.06-.876-.393-1-1a71.83 71.83 0 0 0 6-4.5 3.647 3.647 0 0 1-1-1.5 31.177 31.177 0 0 0 4.5-6c-.024 4.556.142 9.223.5 14z"/><path style="opacity:1" fill="#bcb0a2" d="M132.5 199.5c-1.333 4.333-1.333 8.667 0 13a71.254 71.254 0 0 1-2-4c-.922 3.496-2.589 6.496-5 9-4.114-3.451-3.781-6.618 1-9.5l-1-1c1.659-1.841 3.659-3.008 6-3.5-.268-1.599.066-2.932 1-4z"/><path style="opacity:1" fill="#6e5e46" d="M138.5 208.5c1.174 1.014 1.84 2.347 2 4 .011 1.517.677 2.684 2 3.5 7.132 3.789 14.799 5.456 23 5 1.256.417 1.923 1.25 2 2.5-8.954 1.909-17.288.409-25-4.5l-8-1c-.906-1.699-1.239-3.533-1-5.5a18.748 18.748 0 0 0 5-4z"/><path style="opacity:1" fill="#bc915c" d="M111.5 249.5a81.316 81.316 0 0 0 3 2.5 2.428 2.428 0 0 1-2 .5c-10.35-6.109-20.85-6.443-31.5-1-.239-1.288.261-2.288 1.5-3 .763-.768 1.763-1.268 3-1.5l10-.5c5.702-.46 11.036.54 16 3z"/><path style="opacity:1" fill="#ddd5d0" d="m113.5 260.5 2 1a27.555 27.555 0 0 1 2 10 6.846 6.846 0 0 0-4 1c-.864 1.697-2.197 2.863-4 3.5a4.457 4.457 0 0 1 2 1.5 9.425 9.425 0 0 1-3 3c1.789 1.123 2.122 2.456 1 4-1.449-1.117-3.116-1.784-5-2-9.907 2.94-19.574 2.44-29-1.5a24.09 24.09 0 0 0-4.5-6.5 12.935 12.935 0 0 1-.5-5c1.616-4.557 4.616-7.89 9-10 11.996-4.321 23.33-3.988 34 1z"/><path style="opacity:1" fill="#d5c9bb" d="M112.5 252.5a37.84 37.84 0 0 1 5.5 5c.749 1.135.583 2.135-.5 3a185.977 185.977 0 0 0-3-2c-9.592-6.307-19.925-7.64-31-4-1.083.865-1.25 1.865-.5 3 10.487-4.268 20.654-3.601 30.5 2v1c-10.67-4.988-22.004-5.321-34-1-1.208-1.282-2.542-1.282-4 0l-6 7c-.814-2.452-.314-4.785 1.5-7l7.5-7.5c-1-.667-2-.667-3 0a19.565 19.565 0 0 1-4 3.5c1.546-5.345 5.212-7.679 11-7-1.239.712-1.739 1.712-1.5 3 10.65-5.443 21.15-5.109 31.5 1z"/><path style="opacity:1" fill="#b89d77" d="M114.5 258.5c0 .667-.333 1-1 1-9.846-5.601-20.013-6.268-30.5-2-.75-1.135-.583-2.135.5-3 11.075-3.64 21.408-2.307 31 4z"/><path style="opacity:1" fill="#d6bc98" d="M111.5 249.5c3.285-.231 5.785 1.103 7.5 4a626.115 626.115 0 0 1 3.5 20c-1.143 7.324-4.643 13.324-10.5 18-.236-1.619-1.069-2.619-2.5-3 4.369-1.197 7.369-4.031 9-8.5l-1-1.5a22.755 22.755 0 0 0-5 4l-1-1.5c3.265-2.595 5.765-5.761 7.5-9.5 1.245-4.265.078-7.598-3.5-10l-2-1v-1c.667 0 1-.333 1-1 .982.641 1.982 1.307 3 2 1.083-.865 1.249-1.865.5-3a37.84 37.84 0 0 0-5.5-5 2.428 2.428 0 0 0 2-.5 81.316 81.316 0 0 1-3-2.5z"/><path style="opacity:1" fill="#dbd3cf" d="M-.5 206.5a2.429 2.429 0 0 1 2 .5c.53 1.256.53 2.756 0 4.5 1.434.73 2.6 1.73 3.5 3 2.18-3.79 4.18-3.79 6 0-.305-1.943-.305-3.943 0-6a54.152 54.152 0 0 0 2.5 6.5c-1.134.316-2.134 1.149-3 2.5.932 3.132 2.598 5.799 5 8-1.355 1.175-1.188 2.175.5 3 1.333-1.333 2.667-1.333 4 0l1-3c.852 1.625 1.852 1.958 3 1 .5 1.167 1.333 2 2.5 2.5-1.26 1.113-2.427 1.28-3.5.5a28.043 28.043 0 0 1-1.5 5 10.256 10.256 0 0 0 4 1.5c-1.196.654-1.196 1.154 0 1.5.951-.826 1.951-.992 3-.5 1.333 1.667 1.333 3.333 0 5 1.244.456 2.077-.044 2.5-1.5 5.063 3.605 4.563 6.105-1.5 7.5a9.465 9.465 0 0 1 1.5 2.5c1.388-1.054 2.888-1.22 4.5-.5-2.308 3.952-5.642 6.619-10 8l1 1c-1.167.5-2 1.333-2.5 2.5-1.954-2.145-3.121-4.312-3.5-6.5l1-1c-1.244-.456-2.077.044-2.5 1.5-.15-2.779-.983-3.279-2.5-1.5 1.134 1.016.8 1.683-1 2 1.438.219 2.771.719 4 1.5a19.212 19.212 0 0 0 3.5 7c3.725-2.797 4.392-2.13 2 2a3.647 3.647 0 0 0-1.5-1c-3.886 1.088-3.886 1.921 0 2.5-.837 1.011-1.17 2.178-1 3.5a8.43 8.43 0 0 0 4-.5c-1.473-.71-2.14-1.876-2-3.5a8.43 8.43 0 0 1 4 .5c1.51 3.225 3.676 5.058 6.5 5.5.75-1.135.583-2.135-.5-3-1.175 1.355-2.175 1.188-3-.5l5-1a3.646 3.646 0 0 1-1-1.5 28.043 28.043 0 0 0 1.5-5c.483.948.65 1.948.5 3 4.72-.275 5.054.559 1 2.5l1 .5c2.31-.997 4.644-1.497 7-1.5-2.108 2.307-3.441 4.64-4 7 1.358 1.832 1.692 3.665 1 5.5a25.86 25.86 0 0 0 5 3c-1.67 2.478-4.004 3.978-7 4.5a4.934 4.934 0 0 0 3 .5c-.203 2.138-1.203 3.805-3 5 1.52.38 3.187.546 5 .5-1.36 1.938-1.027 3.604 1 5-1.658.725-2.158 1.892-1.5 3.5 1.016-1.134 1.683-.801 2 1 .31-1.266.81-2.433 1.5-3.5 2.725-.803 4.391.197 5 3-.11 1.722-.61 1.888-1.5.5-.667 1-.667 2 0 3a18.083 18.083 0 0 1 3.5-2c-.204 1.029.296 2.029 1.5 3 1.646-1.279 2.813-2.945 3.5-5 1.639 2.803 3.805 2.469 6.5-1a7.292 7.292 0 0 1 2 3 22.763 22.763 0 0 1 4-5 7.292 7.292 0 0 0 2 3c.015-2.291.182-4.458.5-6.5a23.602 23.602 0 0 1-3-3.5 3.647 3.647 0 0 0-1.5 1 117.39 117.39 0 0 0-6.5-10.5c.95-3.057 1.284-6.223 1-9.5.688 11.221 6.355 19.055 17 23.5 7.46.963 14.794.463 22-1.5l3-3c1.291 1.042 1.291 2.208 0 3.5l-9 3 4 1c-1.309 1.751-.975 3.251 1 4.5-3.065 4.565-2.398 5.565 2 3 2.498 2.691 4.665 2.358 6.5-1 3.252 1.058 5.919.058 8-3a6.802 6.802 0 0 0 1.5 3c.925-1.141 1.759-1.141 2.5 0-.222-1.956-1.055-3.79-2.5-5.5 1-.667 2-.667 3 0 1.123 1.044 2.456 1.71 4 2l-1 1c1.754 2.827 3.588 2.994 5.5.5a39.027 39.027 0 0 0 4.5 4.5c-2.217 3.467-4.051 3.301-5.5-.5-1.117 1.449-1.784 3.116-2 5-.654-1.196-1.154-1.196-1.5 0l2 2c-1.825 1.071-2.992.404-3.5-2-.628 2.744.372 4.744 3 6 .667-1.333 1.333-1.333 2 0l1 4c.383-.556.883-.889 1.5-1 .086.996-.248 1.829-1 2.5l3 1c-2.254 1.15-4.587 1.484-7 1 2.667-1 2.667-2 0-3 1.771-.535 2.104-1.369 1-2.5-1.561.847-3.061.514-4.5-1-1.044 1.123-1.71 2.456-2 4a455.529 455.529 0 0 1-4-3l-2 2a15.454 15.454 0 0 1-3-5c-1.827 1.74-1.66 3.407.5 5a4.457 4.457 0 0 1-1.5 2c-3.155-3.064-4.488-2.73-4 1a11.532 11.532 0 0 0-4.5-3.5l1-1c-3.472-.872-6.472-.039-9 2.5-1.656-1.522-2.823-1.189-3.5 1-2.2-2.331-4.2-2.331-6 0a11.392 11.392 0 0 1-2.5-2c1.33-3.349.83-3.682-1.5-1-3.09-2.392-2.59-4.226 1.5-5.5-4.047-3.492-7.38-2.825-10 2-1.399.595-2.732.428-4-.5l-2 2c-2.245-.245-4.578-.245-7 0-.952-1.545-1.285-3.212-1-5 3.589.016 3.755-.984.5-3a3.944 3.944 0 0 0-2 1c.068 2.838-.099 5.504-.5 8a9.864 9.864 0 0 1-1-6h-3a8.435 8.435 0 0 1-.5 4 40.954 40.954 0 0 1-5-7c-1.097 1.467-2.597 2.301-4.5 2.5l1 1c-1.665.788-3.331 1.122-5 1a18.117 18.117 0 0 1 4.5-5.5c.573-3.632-.26-4.298-2.5-2a11.462 11.462 0 0 0-2.5-1l-5 4a11.064 11.064 0 0 1-3.5-2c-1.104 1.131-.77 1.965 1 2.5a11.339 11.339 0 0 0-3.5 1.5l-1-1c-.833 1.5-2 2.667-3.5 3.5a7.292 7.292 0 0 1 3 2c-1.153 1.883-2.82 2.716-5 2.5a6.846 6.846 0 0 0-1-4 25.94 25.94 0 0 1 4-4.5c-2.017-2.432-4.517-4.265-7.5-5.5-1.653.32-2.653 1.32-3 3a80.966 80.966 0 0 0-6.5 0c-1.383-2.576-2.217-2.242-2.5 1a12.175 12.175 0 0 0-4.5-3.5c1.265-1.337 1.765-2.837 1.5-4.5-1.016 1.134-1.683.801-2-1-.805 2.401-1.638 2.234-2.5-.5 1.066-1.159.733-1.992-1-2.5v-92z"/><path style="opacity:1" fill="#c5bcb4" d="M264.5 159.5c.617.111 1.117.444 1.5 1a171.997 171.997 0 0 1 3.5 18c.9 19.89-2.6 38.89-10.5 57-4.838 5.668-8.672 12.001-11.5 19a744.892 744.892 0 0 1-29 35 2447.74 2447.74 0 0 0-20 16 516.815 516.815 0 0 1-26 16.5 4900.334 4900.334 0 0 0-33 15c-2.04 3.607-4.54 4.774-7.5 3.5a101.453 101.453 0 0 1-10.5 4.5 208.927 208.927 0 0 1-32 7l-5 2.5a750.11 750.11 0 0 1-67.5 8 79.546 79.546 0 0 0-17.5-1v-3c22.043.31 44.043-.524 66-2.5a163.307 163.307 0 0 0 21-6 2801.998 2801.998 0 0 0-30 4 733.248 733.248 0 0 1-57 1.5v-3c2.62.268 5.12-.065 7.5-1 .804 1.304 1.97 1.971 3.5 2 3.553-1.221 7.053-1.221 10.5 0l4-2c10.295.878 20.462.878 30.5 0a229.055 229.055 0 0 1 38-4.5 356.696 356.696 0 0 0 64.5-22.5 11.821 11.821 0 0 0 3.5-4.5 195.097 195.097 0 0 0 30-14c2.715-.875 4.048-2.708 4-5.5 2.867.131 4.533-1.203 5-4a6.846 6.846 0 0 0 4-1 153.46 153.46 0 0 1 22-19.5c1.877-2.126 2.877-4.626 3-7.5h3c-.262-1.478.071-2.811 1-4 6.281-4.549 10.614-10.549 13-18 1.89.203 3.39-.463 4.5-2a82.192 82.192 0 0 0 4-12c3.064-1.399 5.064-3.732 6-7 7.236-21.655 8.403-43.655 3.5-66z"/><path style="opacity:1" fill="#ded7d0" d="M309.5 289.5v24c-1.94 4.524-3.94 4.691-6 .5-1.701-.345-3.034.322-4 2 1.154.914.987 1.747-.5 2.5l-1-1c-1.204.971-1.704 1.971-1.5 3-.929-1.189-1.262-2.522-1-4-4.338.122-4.672.455-1 1 .146 2.442-.687 3.109-2.5 2a9.454 9.454 0 0 1-2.5 1.5c.951.718 1.117 1.551.5 2.5-2.454-1.513-4.121-.846-5 2 .035-3.745-.965-4.412-3-2a7.248 7.248 0 0 0-2.5-2c-.238 3.471-.738 7.137-1.5 11a12.93 12.93 0 0 1-.5-5c-2.266.359-4.099-.308-5.5-2-.837 1.507-2.004 2.007-3.5 1.5l1-1c-1.382-4.705-2.049-4.539-2 .5-3.396.133-3.729 1.133-1 3a14.72 14.72 0 0 1-5 1.5c2.58 1.481 3.413 3.648 2.5 6.5l-1-2c-.7 1.532-1.866 2.532-3.5 3-1.587 1.585-2.42 3.252-2.5 5-3.184-1.697-4.85-4.364-5-8l-1 5a6.802 6.802 0 0 0-1.5-3l-1 1c1.409 4.786.742 5.12-2 1-.054 1.187-.387 2.52-1 4-1.587-1.585-2.42-3.252-2.5-5-1.171 1.393-2.671 2.227-4.5 2.5 2.807 1.397 3.307 3.231 1.5 5.5-1.616-2.693-3.282-4.693-5-6l-1 5c-1.011-.837-2.178-1.17-3.5-1-.16-3.736-.993-3.736-2.5 0-1.113-1.829-2.613-2.663-4.5-2.5a6.547 6.547 0 0 0 3 3c-2.264-.698-4.097-.198-5.5 1.5-1.592-2.818-3.758-2.651-6.5.5 1.172.353 2.338.187 3.5-.5-.058 1.48 1.109 2.313 3.5 2.5-1.833.5-3 1.667-3.5 3.5a57.29 57.29 0 0 0-6.5 0 10.94 10.94 0 0 0-4.5 3c-1.963-3.446-3.296-3.446-4 0-2.612-4.827-5.612-5.16-9-1-1.395-1.315-2.395-.981-3 1-1.356-.88-2.856-1.214-4.5-1a4.934 4.934 0 0 1-.5 3c-1.66.176-3.326-.491-5-2l-1 3c-.423-1.456-1.256-1.956-2.5-1.5 1.272 1.246 1.605 2.413 1 3.5-2.223-1.869-4.723-4.202-7.5-7a26.67 26.67 0 0 1-1.5 6.5c2.773-1.19 5.106-.524 7 2a11.333 11.333 0 0 0-1.5 3.5c-1.493-4.541-4.16-5.208-8-2-1.229-2.447-2.729-2.613-4.5-.5 2.401.805 2.234 1.638-.5 2.5-1.008-.482-2.175-.648-3.5-.5a3.647 3.647 0 0 0 1-1.5 29.825 29.825 0 0 0-5-2c-.827 1.662-1.993 2.995-3.5 4-.988-2.42-.655-4.753 1-7-1.787-.843-3.62-1.01-5.5-.5l1-3a11.333 11.333 0 0 1-3.5-1.5c-.85.924-1.85.924-3 0-.945.405-1.612 1.072-2 2l-1-1c-.089 1.613.745 2.78 2.5 3.5-1.393 2.683-2.726 2.85-4 .5a7.293 7.293 0 0 1-3 2c-1.448-1.862-3.115-2.528-5-2l-2.5 3c-1.191-2.347-3.024-3.18-5.5-2.5 2.823 2.114 3.323 4.614 1.5 7.5l-1-2c-1.049 1.017-2.216 1.184-3.5.5 1.123-1.044 2.456-1.71 4-2-3.562-4.742-4.895-4.575-4 .5-4.523-.523-5.523.81-3 4a11.38 11.38 0 0 1-2.5 2 20.64 20.64 0 0 1-2-6 6.547 6.547 0 0 1-3-3c-.043 2.717-1.043 3.384-3 2-1.892 2.89-2.725 2.556-2.5-1 2.836.298 3.336-.369 1.5-2l-4 2c-1.998-2.385-4.165-3.718-6.5-4-.144 3.512-1.81 5.846-5 7-1.299-.59-2.132-1.59-2.5-3-1.113 1.26-1.28 2.427-.5 3.5l-2 1c1.658.725 2.158 1.892 1.5 3.5-1.612-.452-2.612-1.785-3-4l-1 4c-.827-1.162-1.66-2.329-2.5-3.5.444-1.762.944-1.595 1.5.5.699-1.574.365-2.907-1-4-.667 1.333-1.333 1.333-2 0l-2 6c-.336-1.574-1.17-2.908-2.5-4-.847 1.561-.514 3.061 1 4.5l-2 1c1.333.667 1.333 1.333 0 2l2 1c-2.02.513-3.52 1.68-4.5 3.5-2.003-2.225-1.503-3.892 1.5-5a25.235 25.235 0 0 0-6.5-8c-1.445 2.112-1.278 4.278.5 6.5a9.465 9.465 0 0 0-1.5 2.5c-.667-1.333-1.333-1.333-2 0-.127-1.277.373-2.443 1.5-3.5-2.153-1.388-3.486-2.888-4-4.5a15.645 15.645 0 0 1-4 2.5c4.012.57 4.512 1.737 1.5 3.5a22.763 22.763 0 0 1-4-5c-2.545 1.297-5.045 1.131-7.5-.5.753-1.487 1.586-1.654 2.5-.5 1.044-1.123 1.71-2.456 2-4 2.42.988 4.753.655 7-1 1.583-.007 3.25.326 5 1 .739-1.074 1.739-1.741 3-2a341.943 341.943 0 0 1 15.5 0c1.51-2.189 3.51-3.523 6-4l5-2.5a208.927 208.927 0 0 0 32-7 101.453 101.453 0 0 0 10.5-4.5c2.96 1.274 5.46.107 7.5-3.5a4900.334 4900.334 0 0 1 33-15 516.815 516.815 0 0 0 26-16.5c1.268 1.287.935 2.287-1 3l3 4a4.457 4.457 0 0 1-2 1.5 32.087 32.087 0 0 1 4 3.5c4.218-2.403 6.718-6.069 7.5-11 1.473 1.794 2.306 3.46 2.5 5a67.557 67.557 0 0 0 7-4 6.802 6.802 0 0 1 1.5 3 4.933 4.933 0 0 1 2.5-1c2.069.324 2.402 1.158 1 2.5 1.759.798 3.426.631 5-.5-1.311-.758-1.811-1.758-1.5-3 1.395-1.315 2.395-.981 3 1l3-6 1 1a30.935 30.935 0 0 0 8-3l1.5 1.5c-1.986 3.765-4.486 4.265-7.5 1.5-1.015 2.563-2.515 3.896-4.5 4a11.38 11.38 0 0 0 2.5 2c.928-2.535 2.762-3.535 5.5-3 .22 2.712 1.553 4.212 4 4.5a14.972 14.972 0 0 0-3-3.5c1.216-.596 2.549-.763 4-.5-2.784-2.08-2.451-2.747 1-2 1.333.667 1.333 1.333 0 2a7.293 7.293 0 0 0 3 2l-1 1c1.244.456 2.077-.044 2.5-1.5l1 3c.283-3.242 1.117-3.576 2.5-1 3.541-1.095 6.207-2.428 8-4a4.934 4.934 0 0 1 .5-3c-.09 4.039 1.077 4.706 3.5 2-.96-1.312-.794-2.646.5-4l1 1 1-4c.414.457.914.791 1.5 1 2.545-3.311 5.545-4.144 9-2.5-1.196.654-1.196 1.154 0 1.5 2.217-5.41 4.717-5.077 7.5 1 .221-3.443 1.221-3.776 3-1 2.022-3.259 4.855-4.759 8.5-4.5a4.457 4.457 0 0 0-2 1.5c2.528 1.567 5.194 2.4 8 2.5a26.585 26.585 0 0 0-2-3.5c-1.395 1.315-2.395.981-3-1 1.057-.406 2.391-.406 4 0a4.934 4.934 0 0 1 .5-3c1 1.333 2 1.333 3 0 1.087 2.432 1.587 2.098 1.5-1-1.859.039-3.192-.794-4-2.5l1.5-1.5c.422 1.926 1.589 2.926 3.5 3z"/><path style="opacity:1" fill="#cbaf89" d="M79.5 259.5c-4.384 2.11-7.384 5.443-9 10-2.424 2.42-2.591 5.087-.5 8 8.025 8.597 17.859 11.43 29.5 8.5a87.287 87.287 0 0 0 7-2.5l1 1c-4.655 3.122-9.822 4.456-15.5 4-6.179-.008-12.012-1.342-17.5-4-1.432.233-1.932.9-1.5 2 5.31 5.459 11.81 7.792 19.5 7l8-.5a13.483 13.483 0 0 1 6-2.5c.992-.172 1.658.162 2 1l-3 3c-7.206 1.963-14.54 2.463-22 1.5-10.645-4.445-16.312-12.279-17-23.5-.936-6.518.731-12.185 5-17a19.565 19.565 0 0 0 4-3.5c1-.667 2-.667 3 0l-7.5 7.5c-1.814 2.215-2.314 4.548-1.5 7l6-7c1.458-1.282 2.792-1.282 4 0z"/><path style="opacity:1" fill="#d5cac0" d="M115.5 261.5c3.578 2.402 4.745 5.735 3.5 10-1.735 3.739-4.235 6.905-7.5 9.5l1 1.5a22.755 22.755 0 0 1 5-4l1 1.5c-1.631 4.469-4.631 7.303-9 8.5-1.21.432-2.21 1.099-3 2a13.483 13.483 0 0 0-6 2.5l-8 .5c-7.69.792-14.19-1.541-19.5-7-.432-1.1.068-1.767 1.5-2 5.488 2.658 11.321 3.992 17.5 4 5.678.456 10.845-.878 15.5-4l-1-1a87.287 87.287 0 0 1-7 2.5c-11.641 2.93-21.475.097-29.5-8.5-2.091-2.913-1.924-5.58.5-8-.16 1.699.007 3.366.5 5a24.09 24.09 0 0 1 4.5 6.5c9.426 3.94 19.093 4.44 29 1.5 1.884.216 3.551.883 5 2 1.122-1.544.789-2.877-1-4a9.425 9.425 0 0 0 3-3 4.457 4.457 0 0 0-2-1.5c1.803-.637 3.136-1.803 4-3.5a6.846 6.846 0 0 1 4-1 27.555 27.555 0 0 0-2-10z"/><path style="opacity:1" fill="#d7cfcb" d="M200.5 296.5c-.467 2.797-2.133 4.131-5 4 .048 2.792-1.285 4.625-4 5.5a195.097 195.097 0 0 1-30 14 11.821 11.821 0 0 1-3.5 4.5A356.696 356.696 0 0 1 93.5 347a229.055 229.055 0 0 0-38 4.5c-10.038.878-20.205.878-30.5 0l-4 2c-3.447-1.221-6.947-1.221-10.5 0-1.53-.029-2.696-.696-3.5-2-2.38.935-4.88 1.268-7.5 1v-54c1.733.508 2.066 1.341 1 2.5.862 2.734 1.695 2.901 2.5.5.317 1.801.984 2.134 2 1 .265 1.663-.235 3.163-1.5 4.5a12.175 12.175 0 0 1 4.5 3.5c.283-3.242 1.117-3.576 2.5-1a80.966 80.966 0 0 1 6.5 0c.347-1.68 1.347-2.68 3-3 2.983 1.235 5.483 3.068 7.5 5.5a25.94 25.94 0 0 0-4 4.5 6.846 6.846 0 0 1 1 4c2.18.216 3.847-.617 5-2.5a7.292 7.292 0 0 0-3-2c1.5-.833 2.667-2 3.5-3.5l1 1a11.339 11.339 0 0 1 3.5-1.5c-1.77-.535-2.104-1.369-1-2.5a11.064 11.064 0 0 0 3.5 2l5-4c.873.235 1.706.569 2.5 1 2.24-2.298 3.073-1.632 2.5 2a18.117 18.117 0 0 0-4.5 5.5c1.669.122 3.335-.212 5-1l-1-1c1.903-.199 3.403-1.033 4.5-2.5a40.954 40.954 0 0 0 5 7 8.435 8.435 0 0 0 .5-4h3a9.864 9.864 0 0 0 1 6c.401-2.496.568-5.162.5-8a3.944 3.944 0 0 1 2-1c3.255 2.016 3.089 3.016-.5 3-.285 1.788.048 3.455 1 5 2.422-.245 4.755-.245 7 0l2-2c1.268.928 2.601 1.095 4 .5 2.62-4.825 5.953-5.492 10-2-4.09 1.274-4.59 3.108-1.5 5.5 2.33-2.682 2.83-2.349 1.5 1a11.392 11.392 0 0 0 2.5 2c1.8-2.331 3.8-2.331 6 0 .677-2.189 1.844-2.522 3.5-1 2.528-2.539 5.528-3.372 9-2.5l-1 1a11.532 11.532 0 0 1 4.5 3.5c-.488-3.73.845-4.064 4-1a4.457 4.457 0 0 0 1.5-2c-2.16-1.593-2.327-3.26-.5-5a15.454 15.454 0 0 0 3 5l2-2c1.137.864 2.47 1.864 4 3 .29-1.544.956-2.877 2-4 1.439 1.514 2.939 1.847 4.5 1 1.104 1.131.771 1.965-1 2.5 2.667 1 2.667 2 0 3 2.413.484 4.746.15 7-1l-3-1c.752-.671 1.086-1.504 1-2.5.111-.617.444-1.117 1-1.5-3.128-2.503-4.128-5.169-3-8 1-.667 2-.667 3 0-1.196.654-1.196 1.154 0 1.5 1.268-.928 2.601-1.095 4-.5-1.46.811-1.793 1.645-1 2.5a13.049 13.049 0 0 1 4-3c1.605.93 3.105.93 4.5 0l4 4c.5-1.167 1.333-2 2.5-2.5-1.43-1.88-1.096-3.38 1-4.5.929 1.189 1.262 2.522 1 4 1.478.262 2.811-.071 4-1a6.547 6.547 0 0 1 3-3c1.667 1.333 3.333 1.333 5 0 2.274.47 4.274 1.47 6 3 3.38-4.027 7.714-6.527 13-7.5a26.943 26.943 0 0 1 7-5l-1-1c1.845-1.809 4.178-2.643 7-2.5z"/><path style="opacity:1" fill="#d9d2cb" d="M309.5 313.5v25c-1.911-.074-3.078-1.074-3.5-3-.741 1.141-1.575 1.141-2.5 0-.11 1.598-.443 3.265-1 5a10.258 10.258 0 0 0 4 1.5c-.825 1.688-1.825 1.855-3 .5a4.457 4.457 0 0 0-1.5 2c-2.518-.364-5.018-1.531-7.5-3.5.705-1.557.039-2.723-2-3.5a17.354 17.354 0 0 0-7 3.5l4 1c-1.162.827-2.329 1.66-3.5 2.5-.945-.405-1.612-1.072-2-2-1.017 2.528-2.184 2.528-3.5 0-1.234 1.898-.901 3.565 1 5a4.457 4.457 0 0 1-1.5 2c-2.167-1.964-4.501-2.298-7-1-.914-3.685-1.581-3.352-2 1-.667-2.667-1.333-2.667-2 0l-3-2a26.67 26.67 0 0 1-6.5 1.5c-1.524 3.291-2.857 3.125-4-.5.05 1.348-.283 2.848-1 4.5-1.244.456-2.077-.044-2.5-1.5-2.085 1.545-4.252 1.878-6.5 1-1.861 1.028-3.195 2.528-4 4.5a4.934 4.934 0 0 1-3 .5c.171 3.297-.495 3.631-2 1-1.299.59-2.132 1.59-2.5 3l-3-2c-1.688 1.545-3.688 2.545-6 3-1.682-2.054-3.349-1.721-5 1-.718-.951-1.551-1.117-2.5-.5-.89 3.292-2.557 3.959-5 2 5.194-1.995 5.194-3.828 0-5.5-.972 2.136-2.639 3.303-5 3.5l2 1c-1.902.199-3.402 1.033-4.5 2.5-1.388-1.054-2.888-1.22-4.5-.5l2 1c-.835 3.475-2.335 3.308-4.5-.5-1.074 5.185-3.074 5.852-6 2l-1 3-1-1a14.444 14.444 0 0 1-5.5 2.5c1.196.654 1.196 1.154 0 1.5a6.802 6.802 0 0 1-1.5-3c-1.333 1.333-2.667 1.333-4 0-1.204.971-1.704 1.971-1.5 3-2.404-.508-3.071-1.675-2-3.5-3.527-.882-4.193-.382-2 1.5l-1 1c-4.276-.399-7.942 1.101-11 4.5 1.098.77 1.098 1.603 0 2.5H-.5v-19a79.546 79.546 0 0 1 17.5 1 750.11 750.11 0 0 0 67.5-8c-2.49.477-4.49 1.811-6 4a341.943 341.943 0 0 0-15.5 0c-1.261.259-2.261.926-3 2-1.75-.674-3.417-1.007-5-1-2.247 1.655-4.58 1.988-7 1-.29 1.544-.956 2.877-2 4-.914-1.154-1.747-.987-2.5.5 2.455 1.631 4.955 1.797 7.5.5a22.763 22.763 0 0 0 4 5c3.012-1.763 2.512-2.93-1.5-3.5a15.645 15.645 0 0 0 4-2.5c.514 1.612 1.847 3.112 4 4.5-1.127 1.057-1.627 2.223-1.5 3.5.667-1.333 1.333-1.333 2 0a9.465 9.465 0 0 1 1.5-2.5c-1.778-2.222-1.945-4.388-.5-6.5a25.235 25.235 0 0 1 6.5 8c-3.003 1.108-3.503 2.775-1.5 5 .98-1.82 2.48-2.987 4.5-3.5l-2-1c1.333-.667 1.333-1.333 0-2l2-1c-1.514-1.439-1.847-2.939-1-4.5 1.33 1.092 2.164 2.426 2.5 4l2-6c.667 1.333 1.333 1.333 2 0 1.365 1.093 1.699 2.426 1 4-.556-2.095-1.056-2.262-1.5-.5.84 1.171 1.673 2.338 2.5 3.5l1-4c.388 2.215 1.388 3.548 3 4 .658-1.608.158-2.775-1.5-3.5l2-1c-.78-1.073-.613-2.24.5-3.5.368 1.41 1.201 2.41 2.5 3 3.19-1.154 4.856-3.488 5-7 2.335.282 4.502 1.615 6.5 4l4-2c1.836 1.631 1.336 2.298-1.5 2-.225 3.556.608 3.89 2.5 1 1.957 1.384 2.957.717 3-2a6.547 6.547 0 0 0 3 3 20.64 20.64 0 0 0 2 6 11.38 11.38 0 0 0 2.5-2c-2.523-3.19-1.523-4.523 3-4-.895-5.075.438-5.242 4-.5-1.544.29-2.877.956-4 2 1.284.684 2.451.517 3.5-.5l1 2c1.823-2.886 1.323-5.386-1.5-7.5 2.476-.68 4.309.153 5.5 2.5l2.5-3c1.885-.528 3.552.138 5 2a7.293 7.293 0 0 0 3-2c1.274 2.35 2.607 2.183 4-.5-1.755-.72-2.589-1.887-2.5-3.5l1 1c.388-.928 1.055-1.595 2-2 1.15.924 2.15.924 3 0a11.333 11.333 0 0 0 3.5 1.5l-1 3c1.88-.51 3.713-.343 5.5.5-1.655 2.247-1.988 4.58-1 7 1.507-1.005 2.673-2.338 3.5-4a29.825 29.825 0 0 1 5 2 3.647 3.647 0 0 1-1 1.5c1.325-.148 2.492.018 3.5.5 2.734-.862 2.901-1.695.5-2.5 1.771-2.113 3.271-1.947 4.5.5 3.84-3.208 6.507-2.541 8 2a11.333 11.333 0 0 1 1.5-3.5c-1.894-2.524-4.227-3.19-7-2a26.67 26.67 0 0 0 1.5-6.5c2.777 2.798 5.277 5.131 7.5 7 .605-1.087.272-2.254-1-3.5 1.244-.456 2.077.044 2.5 1.5l1-3c1.674 1.509 3.34 2.176 5 2a4.934 4.934 0 0 0 .5-3c1.644-.214 3.144.12 4.5 1 .605-1.981 1.605-2.315 3-1 3.388-4.16 6.388-3.827 9 1 .704-3.446 2.037-3.446 4 0a10.94 10.94 0 0 1 4.5-3 57.29 57.29 0 0 1 6.5 0c.5-1.833 1.667-3 3.5-3.5-2.391-.187-3.558-1.02-3.5-2.5-1.162.687-2.328.853-3.5.5 2.742-3.151 4.908-3.318 6.5-.5 1.403-1.698 3.236-2.198 5.5-1.5a6.547 6.547 0 0 1-3-3c1.887-.163 3.387.671 4.5 2.5 1.507-3.736 2.34-3.736 2.5 0 1.322-.17 2.489.163 3.5 1l1-5c1.718 1.307 3.384 3.307 5 6 1.807-2.269 1.307-4.103-1.5-5.5 1.829-.273 3.329-1.107 4.5-2.5.08 1.748.913 3.415 2.5 5 .613-1.48.946-2.813 1-4 2.742 4.12 3.409 3.786 2-1l1-1a6.802 6.802 0 0 1 1.5 3l1-5c.15 3.636 1.816 6.303 5 8 .08-1.748.913-3.415 2.5-5 1.634-.468 2.8-1.468 3.5-3l1 2c.913-2.852.08-5.019-2.5-6.5a14.72 14.72 0 0 0 5-1.5c-2.729-1.867-2.396-2.867 1-3-.049-5.039.618-5.205 2-.5l-1 1c1.496.507 2.663.007 3.5-1.5 1.401 1.692 3.234 2.359 5.5 2a12.93 12.93 0 0 0 .5 5c.762-3.863 1.262-7.529 1.5-11a7.248 7.248 0 0 1 2.5 2c2.035-2.412 3.035-1.745 3 2 .879-2.846 2.546-3.513 5-2 .617-.949.451-1.782-.5-2.5a9.454 9.454 0 0 0 2.5-1.5c1.813 1.109 2.646.442 2.5-2-3.672-.545-3.338-.878 1-1-.262 1.478.071 2.811 1 4-.204-1.029.296-2.029 1.5-3l1 1c1.487-.753 1.654-1.586.5-2.5.966-1.678 2.299-2.345 4-2 2.06 4.191 4.06 4.024 6-.5z"/><path style="opacity:1" fill="#a9a097" d="M-.5 358.5v-3c19.02.239 38.02-.261 57-1.5a2801.998 2801.998 0 0 1 30-4 163.307 163.307 0 0 1-21 6 636.055 636.055 0 0 1-66 2.5z"/><path style="opacity:1" fill="#d4cbc5" d="M309.5 338.5v20c-2.464 2.716-4.63 2.382-6.5-1l-1 1-2-4c-.518 2.523-1.852 4.523-4 6-1.016-1.134-1.683-.801-2 1-2.129-1.363-2.629-1.029-1.5 1-.365 1.402-1.199 2.402-2.5 3a43.286 43.286 0 0 0-5.5-3c-.791.566-.791 1.399 0 2.5-.509 1.169-1.342 2.002-2.5 2.5-1.176-3.802-3.009-4.468-5.5-2a25.635 25.635 0 0 0-5.5-1c-2.873.914-3.04 2.414-.5 4.5-1.694 1.728-2.861 1.228-3.5-1.5-.7 1.532-1.866 2.532-3.5 3-1.268-.928-2.601-1.095-4-.5-.459 4.487-2.292 4.654-5.5.5-2.734.862-2.901 1.695-.5 2.5-2.201.825-4.034.325-5.5-1.5-2.811 2.757-6.311 4.591-10.5 5.5 1.134 1.016.801 1.683-1 2 .916.278 1.582.778 2 1.5h-77c1.098-.897 1.098-1.73 0-2.5 3.058-3.399 6.724-4.899 11-4.5l1-1c-2.193-1.882-1.527-2.382 2-1.5-1.071 1.825-.404 2.992 2 3.5-.204-1.029.296-2.029 1.5-3 1.333 1.333 2.667 1.333 4 0a6.802 6.802 0 0 0 1.5 3c1.196-.346 1.196-.846 0-1.5a14.444 14.444 0 0 0 5.5-2.5l1 1 1-3c2.926 3.852 4.926 3.185 6-2 2.165 3.808 3.665 3.975 4.5.5l-2-1c1.612-.72 3.112-.554 4.5.5 1.098-1.467 2.598-2.301 4.5-2.5l-2-1c2.361-.197 4.028-1.364 5-3.5 5.194 1.672 5.194 3.505 0 5.5 2.443 1.959 4.11 1.292 5-2 .949-.617 1.782-.451 2.5.5 1.651-2.721 3.318-3.054 5-1 2.312-.455 4.312-1.455 6-3l3 2c.368-1.41 1.201-2.41 2.5-3 1.505 2.631 2.171 2.297 2-1a4.934 4.934 0 0 0 3-.5c.805-1.972 2.139-3.472 4-4.5 2.248.878 4.415.545 6.5-1 .423 1.456 1.256 1.956 2.5 1.5.717-1.652 1.05-3.152 1-4.5 1.143 3.625 2.476 3.791 4 .5a26.67 26.67 0 0 0 6.5-1.5l3 2c.667-2.667 1.333-2.667 2 0 .419-4.352 1.086-4.685 2-1 2.499-1.298 4.833-.964 7 1a4.457 4.457 0 0 0 1.5-2c-1.901-1.435-2.234-3.102-1-5 1.316 2.528 2.483 2.528 3.5 0 .388.928 1.055 1.595 2 2 1.171-.84 2.338-1.673 3.5-2.5l-4-1a17.354 17.354 0 0 1 7-3.5c2.039.777 2.705 1.943 2 3.5 2.482 1.969 4.982 3.136 7.5 3.5a4.457 4.457 0 0 1 1.5-2c1.175 1.355 2.175 1.188 3-.5a10.258 10.258 0 0 1-4-1.5c.557-1.735.89-3.402 1-5 .925 1.141 1.759 1.141 2.5 0 .422 1.926 1.589 2.926 3.5 3z"/><path style="opacity:1" fill="#cdc4bd" d="M309.5 358.5v22h-71c-.418-.722-1.084-1.222-2-1.5 1.801-.317 2.134-.984 1-2 4.189-.909 7.689-2.743 10.5-5.5 1.466 1.825 3.299 2.325 5.5 1.5-2.401-.805-2.234-1.638.5-2.5 3.208 4.154 5.041 3.987 5.5-.5 1.399-.595 2.732-.428 4 .5 1.634-.468 2.8-1.468 3.5-3 .639 2.728 1.806 3.228 3.5 1.5-2.54-2.086-2.373-3.586.5-4.5 1.798.12 3.631.453 5.5 1 2.491-2.468 4.324-1.802 5.5 2 1.158-.498 1.991-1.331 2.5-2.5-.791-1.101-.791-1.934 0-2.5 1.929.88 3.763 1.88 5.5 3 1.301-.598 2.135-1.598 2.5-3-1.129-2.029-.629-2.363 1.5-1 .317-1.801.984-2.134 2-1 2.148-1.477 3.482-3.477 4-6l2 4 1-1c1.87 3.382 4.036 3.716 6.5 1z"/></svg>