<svg width="497" height="423" fill="none" xmlns="http://www.w3.org/2000/svg"><path d="M352.533 34.172c51.341 12.705 93.562 68.359 92.908 123.233-.642 54.755-44.166 108.728-80.586 160.671-36.317 51.949-65.325 101.9-102.04 104.547-36.76 2.607-81.17-42.143-117.917-71.827-36.863-29.676-65.98-44.3-91.06-70.383-25.08-26.084-46.02-63.641-41.117-97.268 4.903-33.627 35.663-63.304 67.834-79.496 32.281-16.304 65.864-19.116 112.95-35.645 47.086-16.529 107.636-46.629 159.028-33.832z" fill="#F8F8F8"/><path d="m326.548 288.128-67.122-136.632c-2.047-1.23-10.268-6.676-10.268-6.676M254.613 162.315c-.802-2.733-3.209-8.364-3.209-8.364-1.469-.093-11.699-5.518-11.699-5.518M236.779 148.935l31.806-13.379" stroke="#DFDFDF" stroke-width="5" stroke-linecap="round" stroke-linejoin="round"/><path d="m8.332 357.645-8.176 7.788 19.625 26.534 6.071-5.539-9.344-23.609-8.176-5.174zM166.803 333.427l-6.758 12.837 16.776 26.931 7.065-1.88-4.633-35.148-12.45-2.74z" fill="#000"/><path d="M243.281 151.496c5.515 0 9.986-3.439 9.986-7.682s-4.471-7.682-9.986-7.682c-5.515 0-9.986 3.439-9.986 7.682s4.471 7.682 9.986 7.682z" fill="#D37C59"/><path d="M110.019 151.926c-4.492 6.617-103.214 206.5-103.214 206.5l11.166 7.027 130.278-145.36-38.23-68.167z" fill="#56CAD8"/><path d="M195.072 103.424c2.567 2.263 10.088 11.064 12.546 12.665 2.458 1.601 30.65 19.732 35.939 21.333 5.288 1.601-5.95 6.365-5.95 6.365s-36.727-8.397-39.442-10.262c-2.715-1.866-18.804-15.219-18.804-18.799s15.711-11.302 15.711-11.302z" fill="#D37C59"/><path d="M173.553 86.22c8.195-9.164 24.2 12.572 23.854 15.768-.347 3.196-11.667 16.602-18.842 16.602-2.15 0-10.769-25.931-5.012-32.37z" fill="#FCC486"/><path d="M108.749 153.938c-1.926 2.646-10.268 23.82-10.268 31.099 0 49.626 71.761 62.503 82.068 62.503-1.489 6.928-17.276 85.616-16.532 87.343.744 1.727 13.843 5.253 16.532 4.797 10.268-5.763 43.415-86.02 40.925-97.434-3.498-15.993-58.4-62.767-66.333-67.426-7.932-4.658-46.392-20.882-46.392-20.882z" fill="#74D5DE"/><path d="M156.156 65.708c55.236 0 12.444 107.048 2.727 112.851-6.417 3.824-46.206-10.72-50.468-25.31-1.456-4.982 17.219-87.541 47.741-87.541z" fill="#FED385"/><path d="M234.874 155.115c5.515 0 9.986-3.439 9.986-7.682s-4.471-7.682-9.986-7.682c-5.515 0-9.985 3.439-9.985 7.682s4.47 7.682 9.985 7.682z" fill="#DE8E68"/><path d="M138.525 115.136c.135 5.4 1.887 30.18 4.063 30.927 26.312 9.052 71.877 5.062 79.745 4.52 7.868-.543 12.912-6.253 12.521-7.61-.392-1.356-25.138-11.758-68.098-12.982-.795-5.002 1.111-20.122-.853-21.472-1.964-1.35-27.378 6.617-27.378 6.617z" fill="#DE8E68"/><path d="M145.835 70.294c22.853-4.817 26.954 39.172 24.759 42.414-2.195 3.242-31.312 7.828-35.111 4.996-3.799-2.832-6.976-43.764 10.352-47.41z" fill="#FED892"/><path d="M161.385 38.354c-1.053 4.142-8.234 27.857-7.791 29.114.443 1.257 10.326 6.802 14.119 6.194.147-1.807 1.758-11.48 5.057-17.297 3.298-5.816-11.385-18.011-11.385-18.011z" fill="#D37C59"/><path d="M190.65 38.473c1.236-12.615-4.353-23.529-12.483-24.375-8.13-.847-15.723 8.693-16.958 21.309-1.236 12.615 4.352 23.528 12.483 24.375 8.13.847 15.722-8.694 16.958-21.309z" fill="#DE8E68"/><path d="M159.787 38.354c-1.681-.953-4.871-6.564-4.871-11.778 0-8.159 7.887-12.804 13.207-15.219 4.024-1.86 7.445-10.494 16.609-10.494 7.31 0 7.798 7.59 11.16 7.88 8.716.748 13.606 1.086 13.606 7.617 0 4.797-5.969 17.865-18.143 17.865 0-2.422-.789-8.436-2.092-11.328-7.316.377-13.272 10.07-23.418 10.031-2.175-.04-6.058 5.426-6.058 5.426z" fill="#FD8369"/><path d="M163.618 42.417c2.489 0 4.506-2.539 4.506-5.67 0-3.133-2.017-5.671-4.506-5.671-2.488 0-4.505 2.538-4.505 5.67s2.017 5.671 4.505 5.671z" fill="#DE8E68"/><path d="M487.97 339.686H278.294v-46.907c11.468-1.045 174.488-16.926 174.488-16.926V173.868l-198.169-11.554 23.681 130.479M295.147 365.605c5.373 0 9.729-4.491 9.729-10.031 0-5.54-4.356-10.032-9.729-10.032-5.373 0-9.729 4.492-9.729 10.032s4.356 10.031 9.729 10.031zM485.167 365.605c5.373 0 9.729-4.491 9.729-10.031 0-5.54-4.356-10.032-9.729-10.032-5.374 0-9.729 4.492-9.729 10.032s4.355 10.031 9.729 10.031zM262.354 204.947h190.429M267.617 233.942h185.167M220.678 155.705l16.101-6.769" stroke="#DFDFDF" stroke-width="5" stroke-linecap="round" stroke-linejoin="round"/><path d="M283.731 233.942c-2.086-6.081-24.213-71.356-24.213-71.356" stroke="#DFDFDF" stroke-width="5" stroke-linecap="round" stroke-linejoin="round"/></svg>