<svg width="24" height="25" fill="none" xmlns="http://www.w3.org/2000/svg"><g clip-path="url(#a)"><path d="M20.452 8.418c-.098.062-2.44 1.362-2.44 4.244.11 3.287 2.956 4.44 3.004 4.44-.048.062-.43 1.57-1.557 3.152-.895 1.363-1.89 2.736-3.398 2.736-1.435 0-1.95-.908-3.606-.908-1.779 0-2.282.908-3.643.908-1.51 0-2.576-1.447-3.52-2.797-1.227-1.766-2.27-4.538-2.306-7.2-.025-1.41.246-2.796.932-3.974.969-1.644 2.698-2.76 4.587-2.797 1.447-.049 2.735.994 3.618.994.847 0 2.43-.994 4.22-.994.773.001 2.833.234 4.11 2.196zm-8.45-2.477c-.259-1.288.453-2.576 1.115-3.398.846-.994 2.183-1.668 3.336-1.668a4.803 4.803 0 0 1-1.226 3.471C14.479 5.34 13.19 6.088 12 5.941z" fill="#000"/></g><defs><clipPath id="a"><path fill="#fff" transform="translate(0 .59)" d="M0 0h24v24H0z"/></clipPath></defs></svg>