<svg width="11" height="18" fill="none" xmlns="http://www.w3.org/2000/svg"><path d="M5.031 3.111c1.018 0 1.845.8 1.845 1.782 0 .98-.827 1.778-1.845 1.778-1.017 0-1.845-.799-1.845-1.778 0-.983.828-1.782 1.845-1.782zm0 6.081c2.459 0 4.457-1.929 4.457-4.3C9.488 2.52 7.49.59 5.031.59 2.573.59.578 2.52.578 4.893c0 2.37 1.995 4.3 4.453 4.3zm1.803 3.51a8.567 8.567 0 0 0 2.587-1.036c.61-.37.793-1.148.41-1.737a1.331 1.331 0 0 0-1.802-.396 5.833 5.833 0 0 1-5.999 0 1.328 1.328 0 0 0-1.799.396c-.383.589-.199 1.367.411 1.737.806.489 1.68.835 2.587 1.036L.737 15.105a1.23 1.23 0 0 0 0 1.781 1.34 1.34 0 0 0 1.848 0l2.446-2.361 2.45 2.361a1.334 1.334 0 0 0 1.845 0 1.23 1.23 0 0 0 0-1.781l-2.492-2.403z" fill="#EE8208"/></svg>