<svg width="33" height="33" fill="none" xmlns="http://www.w3.org/2000/svg"><path d="M13.242 18.582s-.346 3.127-.366 3.263c-.02.136.236.207.47.046.762-.524 2.193-1.813 2.193-1.813l-2.297-1.496z" fill="#158CC7"/><path d="M21.8 10.697c-.423.109-4.307 1.356-7.831 2.583-3.121 1.086-5.712 2.07-5.953 2.175-.782.227-1.597.719-.313 1.224.602.261 3.55 1.087 3.55 1.087s8.313-4.665 8.564-4.803c.384-.227.634-.021.26.317-.165.139-6.84 5.302-6.84 5.302.116 0 5.265 3.418 5.535 3.671.887.64 1.623.292 1.776-.408.031-.126.864-3.167 1.514-5.982.47-2.035.847-4.041.94-4.487.136-.752-.182-.93-1.201-.68z" fill="#158CC7"/></svg>