<svg width="22" height="18" fill="none" xmlns="http://www.w3.org/2000/svg"><path d="M8.75.59c-1.522 0-2.696 1.326-2.697 3.757 0 1.588 2.403 5.661 4.534 9.227C10.587 4.34 10.36 3.34 8.75.59zm4.5 0c-1.641 2.703-1.837 3.75-1.837 12.985 2.13-3.567 4.534-7.64 4.534-9.228C15.946 1.915 14.773.59 13.25.59zm-9.75 3C1.266 5.15 2 8.84 3.128 10.046c.745.78 3.635 2.184 6.372 4.044l-6-10.5zm15 0-6 10.5c2.738-1.86 5.627-3.264 6.372-4.044C20 8.84 20.734 5.149 18.5 3.59zm-18 6c.036 4.157 2.573 5.25 4.288 5.25h4.286L.5 9.59zm21 0-8.574 5.25h4.286c1.715 0 4.252-1.093 4.288-5.25zm-18.662 6c.24 1.24.78 2.25 2.34 2.25 1.559 0 3.066-.9 3.896-2.25H2.838zm10.088 0c.83 1.35 2.338 2.25 3.897 2.25 1.559 0 2.1-1.01 2.34-2.25h-6.237z" fill="#C8102E"/></svg>