<svg width="26" height="25" fill="none" xmlns="http://www.w3.org/2000/svg"><g clip-path="url(#a)"><path fill-rule="evenodd" clip-rule="evenodd" d="M12.52 24.59c-5.43 0-8.146 0-9.833-1.687C1 21.216 1 18.501 1 13.07v-.96c0-5.43 0-8.146 1.687-9.833C4.374.59 7.09.59 12.52.59h.96c5.43 0 8.146 0 9.833 1.687C25 3.964 25 6.68 25 12.11v.96c0 5.43 0 8.146-1.687 9.833-1.687 1.687-4.402 1.687-9.833 1.687h-.96z" fill="#07F"/><path d="M14.877 15.38a1.448 1.448 0 0 1-1.1-1.403V6.161c0-.753.712-1.306 1.447-1.122l4.65 1.161c.648.162 1.1.74 1.1 1.404v7.816c0 .753-.711 1.306-1.446 1.122l-4.65-1.162zM6.123 18.98a1.448 1.448 0 0 1-1.1-1.404V9.76c0-.753.712-1.306 1.447-1.123L11.12 9.8c.647.162 1.1.74 1.1 1.404v7.816c0 .753-.712 1.306-1.446 1.122L6.123 18.98z" fill="#fff"/><path d="M10.5 17.18a1.448 1.448 0 0 1-1.1-1.403V7.96c0-.754.712-1.306 1.447-1.123L15.498 8c.647.162 1.1.74 1.1 1.403v7.816c0 .754-.712 1.306-1.446 1.123L10.5 17.18z" fill="#fff"/><path d="M13.546 17.942a.473.473 0 0 1-.356-.442l-.202-5.969c-.059-.79-.645-1.418-1.258-1.603a.082.082 0 0 0-.091.033.07.07 0 0 0 .016.095c.151.117.568.499.568 1.158l-.002 6.393 1.325.335zM17.923 16.141a.47.47 0 0 1-.356-.44l-.202-5.968c-.059-.79-.645-1.419-1.258-1.604a.082.082 0 0 0-.091.034.07.07 0 0 0 .016.094c.151.117.567.5.567 1.158v6.395l1.324.331z" fill="#2B71F6"/></g><defs><clipPath id="a"><path fill="#fff" transform="translate(.5 .59)" d="M0 0h25v24H0z"/></clipPath></defs></svg>