<svg width="26" height="25" fill="none" xmlns="http://www.w3.org/2000/svg"><path fill-rule="evenodd" clip-rule="evenodd" d="M4.905 2.894c-.225.242-.354.614-.354 1.097v17.192c0 .483.129.855.362 1.088l.061.052 9.633-9.633v-.216L4.966 2.842l-.061.051z" fill="url(#a)"/><path fill-rule="evenodd" clip-rule="evenodd" d="M17.81 15.914 14.599 12.7v-.225l3.214-3.214.07.043 3.8 2.16c1.09.614 1.09 1.624 0 2.246l-3.8 2.161-.071.043z" fill="url(#b)"/><path fill-rule="evenodd" clip-rule="evenodd" d="m17.88 15.87-3.282-3.283-9.694 9.694c.354.38.95.424 1.616.052l11.36-6.462z" fill="url(#c)"/><path fill-rule="evenodd" clip-rule="evenodd" d="M17.88 9.305 6.52 2.85c-.665-.38-1.262-.329-1.616.052l9.693 9.684 3.284-3.282z" fill="url(#d)"/><defs><linearGradient id="a" x1="20.346" y1="-2.807" x2="-.442" y2="2.736" gradientUnits="userSpaceOnUse"><stop stop-color="#047ED6"/><stop offset="1" stop-color="#50E6FF"/></linearGradient><linearGradient id="b" x1="23.1" y1="12.586" x2="12.323" y2="12.586" gradientUnits="userSpaceOnUse"><stop stop-color="#FFDA1C"/><stop offset="1" stop-color="#FEB705"/></linearGradient><linearGradient id="c" x1="16.093" y1="14.371" x2="3.707" y2="35.221" gradientUnits="userSpaceOnUse"><stop stop-color="#D9414F"/><stop offset="1" stop-color="#8C193F"/></linearGradient><linearGradient id="d" x1="2.462" y1="-2.827" x2="7.988" y2="6.486" gradientUnits="userSpaceOnUse"><stop stop-color="#33C481"/><stop offset="1" stop-color="#61E3A7"/></linearGradient></defs></svg>