<svg xmlns="http://www.w3.org/2000/svg" width="310" height="381" style="shape-rendering:geometricPrecision;text-rendering:geometricPrecision;image-rendering:optimizeQuality;fill-rule:evenodd;clip-rule:evenodd"><path style="opacity:1" fill="#fefefd" d="M-.5-.5h94a502.449 502.449 0 0 0-9 23 342.351 342.351 0 0 0-9 28c-1.914 4.621-3.414 9.621-4.5 15a330.407 330.407 0 0 0-10.5 22c-.342.838-1.008 1.172-2 1-2.222-.322-4.056.345-5.5 2a1115.403 1115.403 0 0 0-3.5 15c-1.713 1.135-2.38 2.802-2 5-1.123 2.188-1.123 4.521 0 7-1.406.473-2.073 1.473-2 3-1.142 2.472-3.142 3.472-6 3v8a208.89 208.89 0 0 1-5 4.5 103.926 103.926 0 0 0-18 7 123.755 123.755 0 0 1-17 15.5V-.5z"/><path style="opacity:1" fill="#f6f0e3" d="M169.5-.5h5a16.336 16.336 0 0 0-2 5 368.711 368.711 0 0 1-10 13.5c-1.561.188-2.228-.645-2-2.5 2.988-5.306 5.988-10.64 9-16z"/><path style="opacity:1" fill="#fefefd" d="M209.5-.5h100v159a54.293 54.293 0 0 0-9 2c-1.806-1.359-3.306-1.025-4.5 1-8.66.307-17.16.307-25.5 0l-6 2c-1.932-1.02-3.932-1.187-6-.5 1.206 1.018.873 1.518-1 1.5a95.496 95.496 0 0 1-9.5-1 1165.462 1165.462 0 0 0-36.5 4c-8.444-1.321-16.61-1.321-24.5 0-2.993-2.041-6.159-2.374-9.5-1-3.322-.299-5.322-1.965-6-5a409.243 409.243 0 0 0 30-35 45.59 45.59 0 0 0 7-9 78.995 78.995 0 0 0 12-17 45.428 45.428 0 0 1 8-8c3.734-2.731 6.734-6.064 9-10l4-8 2-2c2.741-2.475 4.741-5.475 6-9v-1a45.773 45.773 0 0 0 3-7c5.361-12.983 1.028-18.316-13-16a174.932 174.932 0 0 0-15 9 512.469 512.469 0 0 0-3 4 73.56 73.56 0 0 0-7.5 7 388.17 388.17 0 0 1-15.5 22c-1.068.934-2.401 1.268-4 1l-1-2c-1.453-1.325-1.119-2.158 1-2.5a4.451 4.451 0 0 1-2-1.5c1.189-.929 2.522-1.262 4-1 .584-2.785-.416-4.452-3-5a10.177 10.177 0 0 1-3-3 321.003 321.003 0 0 1 7-43 201.547 201.547 0 0 0 12-24v-1z"/><path style="opacity:1" fill="#a07661" d="M194.5-.5h15v1c-.876-.13-1.543.202-2 1a64.28 64.28 0 0 1-6 12c-2.381 1.893-5.047 2.393-8 1.5a9.457 9.457 0 0 1-1.5-2.5c-2.515.791-4.349-.209-5.5-3 2.91-1.402 5.41-3.402 7.5-6a8.43 8.43 0 0 0 .5-4z"/><path style="opacity:1" fill="#b49381" d="M123.5-.5h12c-3.377 11.035-10.043 19.369-20 25-1.193-.47-1.86-1.47-2-3 1.149-8.435 4.482-15.768 10-22z"/><path style="opacity:1" fill="#a57660" d="M146.5-.5h23c-3.012 5.36-6.012 10.694-9 16-.603 2.675-1.936 5.008-4 7-1.664-1.449-2.498-3.449-2.5-6-5.649-1.759-9.149.241-10.5 6a13.118 13.118 0 0 1-7-1 40.814 40.814 0 0 1 7.5-11c.107-3.92.94-7.587 2.5-11z"/><path style="opacity:1" fill="#bba495" d="M174.5-.5h13c-4.471 3.582-7.471 8.25-9 14a25.647 25.647 0 0 1-6 6c.972 2.137 2.639 3.303 5 3.5 4.341.093 8.674.093 13 0-1.26 2.317-3.26 4.65-6 7-1.244.456-2.077-.044-2.5-1.5a42.46 42.46 0 0 0-7.5 6 18.915 18.915 0 0 1 3 5c1.268-.928 2.601-1.095 4-.5l-1 1a20.681 20.681 0 0 1-9-.5v-3c-1.56-.02-3.06-.352-4.5-1a65.714 65.714 0 0 0-9.5 3c.552-1.83.552-3.497 0-5a20.84 20.84 0 0 0 2.5-1c.301-2.591-.866-3.425-3.5-2.5-.649 2.48-1.649 2.814-3 1l2-3a20.883 20.883 0 0 0 6.5-3.5c3.446 1.261 5.446-.072 6-4 5.934-2.806 5.768-4.806-.5-6 2.762-2.857 4.429-6.19 5-10a16.336 16.336 0 0 1 2-5z"/><path style="opacity:1" fill="#c9b3a4" d="M98.5 32.5c-2.194 1.721-3.361 4.055-3.5 7a55.587 55.587 0 0 0-12 16c-5.461 4.893-9.461 10.893-12 18-1.107 1.212-1.607.879-1.5-1a28.522 28.522 0 0 1 4.5-9 41.07 41.07 0 0 0 1.5-13 342.351 342.351 0 0 1 9-28c4.636-1.328 9.303-1.328 14 0 .476 3.24.476 6.573 0 10z"/><path style="opacity:1" fill="#b1927f" d="M143.5-.5h3c-1.56 3.413-2.393 7.08-2.5 11a40.814 40.814 0 0 0-7.5 11 13.118 13.118 0 0 0 7 1c1.351-5.759 4.851-7.759 10.5-6 .002 2.551.836 4.551 2.5 6-3.442 2.768-7.275 3.435-11.5 2l-5 4c-1.5 4.167-4.333 7-8.5 8.5a92.879 92.879 0 0 1-12 11.5c-1.114-1.223-1.281-2.556-.5-4a180.531 180.531 0 0 0 12.5-23 25.501 25.501 0 0 0 4.5-4 24.834 24.834 0 0 1 5-8 32.078 32.078 0 0 1 2.5-10z"/><path style="opacity:1" fill="#ccb9ad" d="M93.5-.5h9a114.586 114.586 0 0 0-1.5 26c6.362-7.725 10.862-16.391 13.5-26h9c-5.518 6.232-8.851 13.565-10 22 .14 1.53.807 2.53 2 3a106.328 106.328 0 0 0-12 16c-.825.886-1.825 1.219-3 1 1.165-3.193 2.831-6.193 5-9a292.72 292.72 0 0 0-7 0c.476-3.427.476-6.76 0-10-4.697-1.328-9.364-1.328-14 0 2.78-7.66 5.78-15.327 9-23z"/><path style="opacity:1" fill="#faf6ec" d="M102.5-.5h12c-2.638 9.609-7.138 18.275-13.5 26a114.586 114.586 0 0 1 1.5-26z"/><path style="opacity:1" fill="#d3c5b9" d="M135.5-.5h4c-1.212 8.305-4.545 15.638-10 22-.825.886-1.825 1.219-3 1 .607 4.403-1.06 5.736-5 4-2.07 2.142-4.57 3.476-7.5 4a133.158 133.158 0 0 0-5 12 126.347 126.347 0 0 0-12 15c-2.16 3.139-1.827 5.806 1 8 .617-.95.45-1.782-.5-2.5A244.14 244.14 0 0 1 115 43.5c.781 1.444.614 2.777-.5 4-5.498 5.97-8.831 12.637-10 20-2.813-2.77-5.48-2.603-8 .5 1.943-.305 3.943-.305 6 0 1.098.77 1.098 1.603 0 2.5-1.315 2.476-2.482 2.142-3.5-1a102.208 102.208 0 0 0-15.5 6c-1.317-.321-2.65-.654-4-1-3.35 1.343-6.683 2.677-10 4-2.147-1.822-2.147-3.822 0-6-.107 1.879.393 2.212 1.5 1 2.539-7.107 6.539-13.107 12-18a55.587 55.587 0 0 1 12-16c.139-2.945 1.306-5.279 3.5-7a292.72 292.72 0 0 1 7 0c-2.169 2.807-3.835 5.807-5 9 1.175.219 2.175-.114 3-1a106.328 106.328 0 0 1 12-16c9.957-5.631 16.623-13.965 20-25z"/><path style="opacity:1" fill="#c5b3a4" d="M139.5-.5h4a32.078 32.078 0 0 0-2.5 10 24.834 24.834 0 0 0-5 8 25.501 25.501 0 0 1-4.5 4 180.531 180.531 0 0 1-12.5 23c-.781 1.444-.614 2.777.5 4a92.879 92.879 0 0 0 12-11.5c4.167-1.5 7-4.333 8.5-8.5l5-4c4.225 1.435 8.058.768 11.5-2 2.064-1.992 3.397-4.325 4-7-.228 1.855.439 2.688 2 2.5a368.711 368.711 0 0 0 10-13.5c-.571 3.81-2.238 7.143-5 10 6.268 1.194 6.434 3.194.5 6-.554 3.928-2.554 5.261-6 4a20.883 20.883 0 0 1-6.5 3.5l-2 3c1.351 1.814 2.351 1.48 3-1 2.634-.925 3.801-.091 3.5 2.5-.92.43-1.753.764-2.5 1 .552 1.503.552 3.17 0 5-2.043 1.08-3.376 2.746-4 5-5.536 3.705-10.203 8.205-14 13.5-1.544.29-2.877.956-4 2 .924.85.924 1.85 0 3 .405.945 1.072 1.612 2 2-4.307 1.021-4.641 2.188-1 3.5 1.149-2.425 1.816-2.425 2 0-2.377 1.172-4.71.839-7-1-.812-1.493-2.145-2.16-4-2a50.79 50.79 0 0 1-7 1c-2.726-.236-5.059.597-7 2.5a2.427 2.427 0 0 0 2 .5c-3.74 1.103-7.406.77-11-1 1.169-7.363 4.502-14.03 10-20 1.114-1.223 1.281-2.556.5-4A244.14 244.14 0 0 0 97.5 63c.95.718 1.117 1.55.5 2.5-2.827-2.194-3.16-4.861-1-8a126.347 126.347 0 0 1 12-15 133.158 133.158 0 0 1 5-12c2.93-.524 5.43-1.858 7.5-4 3.94 1.736 5.607.403 5-4 1.175.219 2.175-.114 3-1 5.455-6.362 8.788-13.695 10-22z"/><path style="opacity:1" fill="#ab8a76" d="M187.5-.5h7a8.43 8.43 0 0 1-.5 4c-2.09 2.598-4.59 4.598-7.5 6 1.151 2.791 2.985 3.791 5.5 3 .374.916.874 1.75 1.5 2.5 2.953.893 5.619.393 8-1.5a64.28 64.28 0 0 0 6-12c.457-.798 1.124-1.13 2-1a201.547 201.547 0 0 1-12 24c-3.338-.39-4.338.776-3 3.5a65.832 65.832 0 0 0-1.5 8.5 111.482 111.482 0 0 1-4.5 10 8.435 8.435 0 0 0-4 .5 132.872 132.872 0 0 0-12 6.5 41.767 41.767 0 0 1-7-4.5l1-1c-5.571-.969-10.405.531-14.5 4.5a10.1 10.1 0 0 0-1.5 6c-2.395.864-4.729.864-7 0 .728-4.154 2.895-7.154 6.5-9a30.126 30.126 0 0 0 3.5-6c.624-2.254 1.957-3.92 4-5a65.714 65.714 0 0 1 9.5-3c1.44.648 2.94.98 4.5 1v3c2.969.829 5.969.995 9 .5l1-1c-1.399-.595-2.732-.428-4 .5a18.915 18.915 0 0 0-3-5 42.46 42.46 0 0 1 7.5-6c.423 1.456 1.256 1.956 2.5 1.5 2.74-2.35 4.74-4.683 6-7-4.326.093-8.659.093-13 0-2.361-.197-4.028-1.363-5-3.5a25.647 25.647 0 0 0 6-6c1.529-5.75 4.529-10.418 9-14z"/><path style="opacity:1" fill="#b9a492" d="M197.5 24.5a321.003 321.003 0 0 0-7 43c-2.891-.903-5.891-1.236-9-1v3c-1.915-.284-3.581.049-5 1-14.471-1.203-14.471-2.037 0-2.5l1-1a12.412 12.412 0 0 0-4-2.5 68.719 68.719 0 0 0-10 1c-1.831-1.43-3.831-1.93-6-1.5 2.145.743 2.311 1.576.5 2.5-.945-.405-1.612-1.072-2-2-1.113 1.211-2.28 1.211-3.5 0l-1 .5c1.123 1.044 2.456 1.71 4 2-.228.399-.562.565-1 .5l-2 1h-4v-3a81.916 81.916 0 0 1-10 2c-.184-2.425-.851-2.425-2 0-3.641-1.312-3.307-2.479 1-3.5-.928-.388-1.595-1.055-2-2 .924-1.15.924-2.15 0-3 1.123-1.044 2.456-1.71 4-2 3.797-5.295 8.464-9.795 14-13.5a30.126 30.126 0 0 1-3.5 6c-3.605 1.846-5.772 4.846-6.5 9 2.271.864 4.605.864 7 0a10.1 10.1 0 0 1 1.5-6c4.095-3.969 8.929-5.469 14.5-4.5l-1 1a41.767 41.767 0 0 0 7 4.5c3.87-2.362 7.87-4.529 12-6.5a8.435 8.435 0 0 1 4-.5 111.482 111.482 0 0 0 4.5-10 65.832 65.832 0 0 1 1.5-8.5c-1.338-2.724-.338-3.89 3-3.5z"/><path style="opacity:1" fill="#c4aea0" d="M239.5 39.5a216.41 216.41 0 0 0-6 12.5c2.171 1.174 3.171 3.007 3 5.5-2.07-.051-3.903.615-5.5 2a11.47 11.47 0 0 1-2.5-1c-3.482 3.934-5.315 8.6-5.5 14-2.255.542-4.088 1.709-5.5 3.5 1.473.71 2.14 1.876 2 3.5-5.387 6.208-12.053 10.708-20 13.5-1.763 3.012-2.93 2.512-3.5-1.5-.383.556-.883.89-1.5 1-2.597-.22-2.597-.72 0-1.5-1.918-2.109-2.251-4.275-1-6.5.838-.342 1.172-1.008 1-2 1.599.268 2.932-.066 4-1 .876-.13 1.543.203 2 1-1.617 2.132-2.117 4.465-1.5 7 3.094-.293 4.594-1.96 4.5-5a8.435 8.435 0 0 0 4-.5 3.647 3.647 0 0 1-1-1.5c5.981-2.061 6.314-4.561 1-7.5 1.319-3.467 3.486-6.3 6.5-8.5 1.505-1.798 1.672-3.632.5-5.5 2.947-2.436 5.28-5.269 7-8.5a512.469 512.469 0 0 1 3-4c4.89-3.274 9.89-6.274 15-9z"/><path style="opacity:1" fill="#b69689" d="M252.5 55.5c1.318-7.994-1.848-10.994-9.5-9-.092 3.047.408 6.047 1.5 9l-.5 1c-2.351-2.933-3.351-2.6-3 1 1.985 3.077 4.818 4.743 8.5 5v1c-1.32 1.442-2.986 2.109-5 2a21.434 21.434 0 0 1-1 7l-2 2c.371-3.503-.629-6.503-3-9 .14-1.624-.527-2.79-2-3.5a24.939 24.939 0 0 0-7-.5v5c-1.624-.14-2.79.527-3.5 2-.743 1.94-.576 3.774.5 5.5a9.465 9.465 0 0 0-2.5 1.5c-1.388-1.054-2.888-1.22-4.5-.5 1.301 1.615 1.301 3.115 0 4.5.14-1.624-.527-2.79-2-3.5 1.412-1.791 3.245-2.958 5.5-3.5.185-5.4 2.018-10.066 5.5-14a11.47 11.47 0 0 0 2.5 1c1.597-1.385 3.43-2.051 5.5-2 .171-2.493-.829-4.326-3-5.5a216.41 216.41 0 0 1 6-12.5c14.028-2.316 18.361 3.017 13 16z"/><path style="opacity:1" fill="#a57768" d="M252.5 55.5a45.773 45.773 0 0 1-3 7c-3.682-.257-6.515-1.923-8.5-5-.351-3.6.649-3.933 3-1l.5-1c-1.092-2.953-1.592-5.953-1.5-9 7.652-1.994 10.818 1.006 9.5 9z"/><path style="opacity:1" fill="#f4eedd" d="M75.5 50.5a41.07 41.07 0 0 1-1.5 13 28.522 28.522 0 0 0-4.5 9c-2.147 2.178-2.147 4.178 0 6a59.859 59.859 0 0 1-4 7 16.328 16.328 0 0 0-5 2 330.407 330.407 0 0 1 10.5-22c1.086-5.379 2.586-10.379 4.5-15z"/><path style="opacity:1" fill="#d4ceb7" d="M249.5 63.5c-1.259 3.525-3.259 6.525-6 9a21.434 21.434 0 0 0 1-7c2.014.109 3.68-.558 5-2z"/><path style="opacity:1" fill="#94684a" d="M176.5 70.5c-.17 1.322.163 2.489 1 3.5-1.544.29-2.877.956-4 2l10.5 1.5a16.23 16.23 0 0 0 3.5-1.5c-1.558-.21-2.891-.71-4-1.5h8v5c-1.478.948-2.478 2.28-3 4v-3c-3.831-.084-7.498.582-11 2 .418-.722 1.084-1.222 2-1.5-3.186.114-6.186-.053-9-.5a18.452 18.452 0 0 1 .5-6c1.676.205 3.176-.628 4.5-2.5-3.709-.212-7.209.622-10.5 2.5a2.429 2.429 0 0 1-.5-2c-1.701-1.684-4.368-2.35-8-2-1.548-.321-2.215-1.321-2-3 .438.065.772-.101 1-.5-1.544-.29-2.877-.956-4-2l1-.5c1.22 1.211 2.387 1.211 3.5 0 .388.928 1.055 1.595 2 2 1.811-.924 1.645-1.757-.5-2.5 2.169-.43 4.169.07 6 1.5a68.719 68.719 0 0 1 10-1 12.412 12.412 0 0 1 4 2.5l-1 1c-14.471.463-14.471 1.297 0 2.5z"/><path style="opacity:1" fill="#8f5b3d" d="M152.5 68.5c-1.423 2.045-3.423 3.045-6 3v-3h-6v3c-2.865-.445-5.365.222-7.5 2l-1-3c-.77 1.098-1.603 1.098-2.5 0 .418-.722 1.084-1.222 2-1.5-1.098-.77-1.098-1.603 0-2.5 2.29 1.839 4.623 2.172 7 1a81.916 81.916 0 0 0 10-2v3h4z"/><path style="opacity:1" fill="#986844" d="M190.5 67.5a10.177 10.177 0 0 0 3 3l-1.5 3a7.248 7.248 0 0 0-2.5-2c-3.14.59-6.14 1.256-9 2-1.274-.69-1.274-1.523 0-2.5a8.435 8.435 0 0 0-4-.5c1.419-.951 3.085-1.284 5-1v-3c3.109-.236 6.109.097 9 1z"/><path style="opacity:1" fill="#8b4d30" d="M102.5 70.5c4.919.438 9.919.605 15 .5-.88 1.356-1.214 2.856-1 4.5-7.543.583-14.876-.084-22-2l-5 3.5 3 1c-6.005 4.835-12.671 8.335-20 10.5-1.859.04-3.192-.794-4-2.5 5.57.723 10.237-1.11 14-5.5l-2-2c1.27-.788 2.27-1.788 3-3a102.208 102.208 0 0 1 15.5-6c1.018 3.142 2.185 3.476 3.5 1z"/><path style="opacity:1" fill="#6e3a1f" d="M176.5 70.5a8.435 8.435 0 0 1 4 .5c-1.274.977-1.274 1.81 0 2.5.709.904 1.709 1.237 3 1 1.109.79 2.442 1.29 4 1.5a16.23 16.23 0 0 1-3.5 1.5L173.5 76c1.123-1.044 2.456-1.71 4-2-.837-1.011-1.17-2.178-1-3.5z"/><path style="opacity:1" fill="#e6d8c5" d="M156.5 70.5c3.632-.35 6.299.316 8 2h-3c-3.192-.096-6.192.571-9 2-.838.342-1.172 1.008-1 2l-2-1c2.08-1.887 4.414-3.554 7-5z"/><path style="opacity:1" fill="#aa8669" d="M170.5 80.5c-.958-.453-1.792-1.12-2.5-2l-1 2a8.43 8.43 0 0 1-.5-4c3.672-.545 3.338-.878-1-1a20.691 20.691 0 0 1-1 5l-4-1a21.434 21.434 0 0 0 1-7h3a2.429 2.429 0 0 0 .5 2c3.291-1.878 6.791-2.712 10.5-2.5-1.324 1.872-2.824 2.705-4.5 2.5a18.452 18.452 0 0 0-.5 6z"/><path style="opacity:1" fill="#af8d77" d="M131.5 66.5c-1.098.897-1.098 1.73 0 2.5-.916.278-1.582.778-2 1.5.897 1.098 1.73 1.098 2.5 0l1 3c2.135-1.778 4.635-2.445 7.5-2v-3h6v3c2.577.045 4.577-.955 6-3l2-1c-.215 1.679.452 2.679 2 3-2.586 1.446-4.92 3.113-7 5a19.168 19.168 0 0 0-5 2.5c1.256.417 1.923 1.25 2 2.5h-2c-2.466-1.134-5.133-1.3-8-.5a54.644 54.644 0 0 1-7 2c-1.238.69-1.238 1.19 0 1.5v1a49.393 49.393 0 0 0-11-1c2.805-.82 5.805-1.32 9-1.5a111.46 111.46 0 0 1-12.5-2.5 273.327 273.327 0 0 1-18 4c-3.542-2.141-6.042-1.308-7.5 2.5a34.784 34.784 0 0 1-10 2c-2.058 3.397-5.058 5.063-9 5a105.084 105.084 0 0 1-12 6.5 43.112 43.112 0 0 0 5-9c2.234-.12 4.401.213 6.5 1 1.31-.63 2.144-1.63 2.5-3 7.329-2.165 13.995-5.665 20-10.5l-3-1 5-3.5c7.124 1.916 14.457 2.583 22 2-.214-1.644.12-3.144 1-4.5a137.06 137.06 0 0 1-15-.5c1.098-.897 1.098-1.73 0-2.5-2.057-.305-4.057-.305-6 0 2.52-3.103 5.187-3.27 8-.5 3.594 1.77 7.26 2.103 11 1 2.82.252 5.486-.248 8-1.5-1.237-.232-2.237-.732-3-1.5a50.79 50.79 0 0 0 7-1c1.855-.16 3.188.507 4 2z"/><path style="opacity:1" fill="#8b5236" d="M129.5 74.5c2.614-.223 4.281.944 5 3.5-3.958 2.558-5.624 1.392-5-3.5z"/><path style="opacity:1" fill="#8d4f30" d="M129.5 70.5c.077 1.25.744 2.083 2 2.5l-2 .5c-3.012-2.06-6.345-3.226-10-3.5l4.5-1.5c1.8.82 3.634 1.486 5.5 2z"/><path style="opacity:1" fill="#905936" d="M120.5 65.5c.763.768 1.763 1.268 3 1.5-2.514 1.252-5.18 1.752-8 1.5a2.427 2.427 0 0 1-2-.5c1.941-1.903 4.274-2.736 7-2.5z"/><path style="opacity:1" fill="#dfd4b3" d="M193.5 70.5c2.584.548 3.584 2.215 3 5-1.478-.262-2.811.071-4 1a4.451 4.451 0 0 0 2 1.5c-2.119.342-2.453 1.175-1 2.5-.992.172-1.658-.162-2-1v-5h-8c-1.291.237-2.291-.096-3-1 2.86-.744 5.86-1.41 9-2a7.248 7.248 0 0 1 2.5 2l1.5-3z"/><path style="opacity:1" fill="#d3c2b3" d="M221.5 52.5c-1.72 3.231-4.053 6.064-7 8.5 1.172 1.868 1.005 3.702-.5 5.5-3.014 2.2-5.181 5.033-6.5 8.5 5.314 2.939 4.981 5.439-1 7.5a3.647 3.647 0 0 0 1 1.5 8.435 8.435 0 0 1-4 .5c.094 3.04-1.406 4.707-4.5 5-.617-2.535-.117-4.868 1.5-7-.457-.797-1.124-1.13-2-1a388.17 388.17 0 0 0 15.5-22 73.56 73.56 0 0 1 7.5-7z"/><path style="opacity:1" fill="#b79880" d="M152.5 74.5a61.284 61.284 0 0 0 5.5 2l1-1c.483.948.649 1.948.5 3a53.796 53.796 0 0 1-8-2c-.172-.992.162-1.658 1-2z"/><path style="opacity:1" fill="#966548" d="M161.5 72.5a21.434 21.434 0 0 1-1 7c-.762 1.762-2.096 2.762-4 3 .131-.876-.202-1.543-1-2-2.023 1.673-4.356 2.34-7 2 0-1.333-.667-2-2-2-.077-1.25-.744-2.083-2-2.5a19.168 19.168 0 0 1 5-2.5l2 1a53.796 53.796 0 0 0 8 2 4.934 4.934 0 0 0-.5-3l-1 1a61.284 61.284 0 0 1-5.5-2c2.808-1.429 5.808-2.096 9-2z"/><path style="opacity:1" fill="#ede3d2" d="M144.5 80.5h-1c-.667 0-1 .333-1 1a55.387 55.387 0 0 0-13 2c-1.238-.31-1.238-.81 0-1.5a54.644 54.644 0 0 0 7-2c2.867-.8 5.534-.634 8 .5z"/><path style="opacity:1" fill="#835133" d="M170.5 80.5c2.814.447 5.814.614 9 .5-.916.278-1.582.778-2 1.5a68.492 68.492 0 0 0-14 4.5 47.181 47.181 0 0 1-12 1.5 51.19 51.19 0 0 0 4-2.5 46.23 46.23 0 0 0 12-2l1-1c-1.566-.608-2.9-1.442-4-2.5a20.691 20.691 0 0 0 1-5c4.338.122 4.672.455 1 1a8.43 8.43 0 0 0 .5 4l1-2c.708.88 1.542 1.547 2.5 2z"/><path style="opacity:1" fill="#b18565" d="M83.5 75.5c-.73 1.212-1.73 2.212-3 3l2 2c-3.763 4.39-8.43 6.223-14 5.5.808 1.706 2.141 2.54 4 2.5-.356 1.37-1.19 2.37-2.5 3a15.902 15.902 0 0 0-6.5-1c.06-2.55 1.394-4.05 4-4.5a2.428 2.428 0 0 0-2-.5 59.859 59.859 0 0 0 4-7c3.317-1.323 6.65-2.657 10-4 1.35.346 2.683.679 4 1z"/><path style="opacity:1" fill="#9b6e56" d="M238.5 65.5c2.371 2.497 3.371 5.497 3 9l-4 8c-3.734 2.731-6.734 6.064-9 10a45.428 45.428 0 0 0-8 8c-1.517.011-2.684.677-3.5 2-.991-1.439-2.324-2.439-4-3a20.428 20.428 0 0 0-1.5-5.5 33.685 33.685 0 0 1 4-5.5c.934-1.068 1.268-2.401 1-4 3.645.82 5.978-.513 7-4 .825-.886 1.825-1.219 3-1a114.953 114.953 0 0 1 4-16c3.013-.393 5.68.274 8 2z"/><path style="opacity:1" fill="#915e47" d="M142.5 81.5a94.47 94.47 0 0 0-10.5 4c-.671-.752-1.504-1.086-2.5-1v-1a55.387 55.387 0 0 1 13-2z"/><path style="opacity:1" fill="#5d2f1b" d="M191.5 79.5c.342.838 1.008 1.172 2 1l1 2c.172.992-.162 1.658-1 2-.06-.543-.393-.876-1-1-.886.825-1.219 1.825-1 3-1.599.268-2.932-.066-4-1l1-2c.522-1.72 1.522-3.052 3-4z"/><path style="opacity:1" fill="#b08c72" d="M143.5 80.5c.262 1.478-.071 2.811-1 4a78.972 78.972 0 0 1-12 3c0-.667-.333-1-1-1v-2c.996-.086 1.829.248 2.5 1a94.47 94.47 0 0 1 10.5-4c0-.667.333-1 1-1z"/><path style="opacity:1" fill="#ab7a5d" d="M111.5 84.5c-.067 1.459.266 2.792 1 4a12.935 12.935 0 0 0-5 .5c.556.383.889.883 1 1.5a56.935 56.935 0 0 0-9.5 2c-2.257-2.786-1.757-3.453 1.5-2 .642-3.297 1.809-3.63 3.5-1 .617-.95.451-1.782-.5-2.5l2-1c-3.515.001-7.015.501-10.5 1.5-1.301-.139-2.134-.805-2.5-2a123.928 123.928 0 0 1 19-1z"/><path style="opacity:1" fill="#8b482c" d="M118.5 83.5a49.393 49.393 0 0 1 11 1v2c-1.322.17-2.489-.163-3.5-1-4.153 2.01-8.653 3.01-13.5 3-.734-1.208-1.067-2.541-1-4a21.445 21.445 0 0 1 7-1z"/><path style="opacity:1" fill="#6f341c" d="m160.5 79.5 4 1c1.1 1.058 2.434 1.892 4 2.5l-1 1a46.23 46.23 0 0 1-12 2 51.19 51.19 0 0 1-4 2.5h-9a23.455 23.455 0 0 0-10.5 2c-2.578-.182-3.078-1.182-1.5-3a78.972 78.972 0 0 0 12-3c.929-1.189 1.262-2.522 1-4h3c1.333 0 2 .667 2 2-.543.06-.876.393-1 1 3.126 1.11 6.126.777 9-1 1.904-.238 3.238-1.238 4-3z"/><path style="opacity:1" fill="#cab297" d="M156.5 82.5c-2.874 1.777-5.874 2.11-9 1 .124-.607.457-.94 1-1 2.644.34 4.977-.327 7-2 .798.457 1.131 1.124 1 2z"/><path style="opacity:1" fill="#c2a48e" d="M92.5 85.5c.366 1.195 1.199 1.861 2.5 2 3.485-.999 6.985-1.499 10.5-1.5l-2 1c.951.718 1.117 1.55.5 2.5-1.691-2.63-2.858-2.297-3.5 1-3.257-1.453-3.757-.786-1.5 2a56.935 56.935 0 0 1 9.5-2c-1.926 1.793-4.259 2.793-7 3a32.437 32.437 0 0 1-8-.5 6.807 6.807 0 0 0 3-1.5c-.438-1.006-1.104-1.006-2 0a19.228 19.228 0 0 1-3-5c0-.667.333-1 1-1z"/><path style="opacity:1" fill="#955c39" d="M65.5 85.5a2.428 2.428 0 0 1 2 .5c-2.606.45-3.94 1.95-4 4.5a43.112 43.112 0 0 1-5 9 5.727 5.727 0 0 1-3 1h-1a30.943 30.943 0 0 0-2-2c1.545-.952 3.212-1.285 5-1 .285-1.915-.049-3.581-1-5v-1c.282-1.278.949-2.278 2-3 .992.172 1.658-.162 2-1a16.328 16.328 0 0 1 5-2z"/><path style="opacity:1" fill="#decab6" d="M129.5 86.5c-.558 1.29-1.558 2.123-3 2.5-5.977.83-11.977 1.33-18 1.5-.111-.617-.444-1.117-1-1.5a12.935 12.935 0 0 1 5-.5c4.847.01 9.347-.99 13.5-3 1.011.837 2.178 1.17 3.5 1z"/><path style="opacity:1" fill="#d1c1b1" d="M118.5 83.5a21.445 21.445 0 0 0-7 1c-6.369-.153-12.703.18-19 1-.667 0-1 .333-1 1-2.674 1-3.34 2.666-2 5-1.653.16-2.986.826-4 2-4.795.705-9.128 2.372-13 5 .457.797 1.124 1.13 2 1-.359 1.871-1.359 3.371-3 4.5a52.161 52.161 0 0 0-7.5 3.5c-.965-.43-1.465-1.096-1.5-2-1.184-1.188-1.184-2.355 0-3.5a94.079 94.079 0 0 1 11-7c-5.16.918-9.493 3.418-13 7.5-2.198.38-3.865-.287-5-2a5.727 5.727 0 0 0 3-1 105.084 105.084 0 0 0 12-6.5c3.942.063 6.942-1.603 9-5a34.784 34.784 0 0 0 10-2c1.458-3.808 3.958-4.641 7.5-2.5a273.327 273.327 0 0 0 18-4 111.46 111.46 0 0 0 12.5 2.5c-3.195.18-6.195.68-9 1.5z"/><path style="opacity:1" fill="#e1e0c0" d="M237.5 82.5c-2.266 3.936-5.266 7.269-9 10 2.266-3.936 5.266-7.269 9-10z"/><path style="opacity:1" fill="#a26b4d" d="M91.5 86.5a19.228 19.228 0 0 0 3 5c.896-1.006 1.562-1.006 2 0a6.807 6.807 0 0 1-3 1.5c2.646.497 5.313.664 8 .5-2.805.82-5.805 1.32-9 1.5-1.167.5-2 1.333-2.5 2.5.284-2.18.117-4.18-.5-6-1.34-2.334-.674-4 2-5z"/><path style="opacity:1" fill="#f8f2e3" d="M56.5 91.5v5h-4c-.303-3.088 1.03-4.754 4-5z"/><path style="opacity:1" fill="#a47f64" d="m188.5 83.5-1 2c-2.084 2.33-4.751 3.497-8 3.5l2 1c-1.333.667-1.333 1.333 0 2-1.27.9-2.27 2.066-3 3.5-1.175-1.355-2.175-1.188-3 .5l2 1c-1.284.684-2.451.517-3.5-.5a9.457 9.457 0 0 1-1.5 2.5c2.803 1.112 3.803 2.946 3 5.5a6.802 6.802 0 0 1-1.5-3l-1 2c-3.057-1.352-3.89-.519-2.5 2.5-1.356 1.567-2.023 3.4-2 5.5-4.567.829-8.233 3.162-11 7-2.162 1.52-4.495 2.52-7 3a11.743 11.743 0 0 0 3-5c3.254-3.279 3.754-6.946 1.5-11-1.16 2.297-2.16 1.964-3-1a4.934 4.934 0 0 0-.5 3c-2.442-.146-3.109.687-2 2.5a4.934 4.934 0 0 1-3 .5c.315-1.726.481-3.393.5-5-1.133 1.711-2.633 2.211-4.5 1.5.78-1.073.613-2.24-.5-3.5-3.179 3.794-4.679 3.294-4.5-1.5a28.931 28.931 0 0 1-4-1.5c-9.82.06-19.82.06-30 0-3.677-1.313-7.343-1.147-11 .5a32.285 32.285 0 0 1-9 7.5 4.458 4.458 0 0 1-2-1.5c.837-1.011 1.17-2.178 1-3.5h-4c2.507-1.163 5.173-1.163 8 0 1.917-.254 3.25-1.254 4-3 1.713-2.35 4.047-3.35 7-3a41.742 41.742 0 0 1 9-1v3c5.734-.376 11.4-.376 17 0 3.498-.192 6.665-1.192 9.5-3l1 1c.11-2.348 1.277-3.848 3.5-4.5 13.846-.298 27.179-3.798 40-10.5 3.502-1.418 7.169-2.084 11-2v3z"/><path style="opacity:1" fill="#c8bb9b" d="M58.5 88.5c-1.051.722-1.718 1.722-2 3-2.97.246-4.303 1.912-4 5h4v-4c.951 1.419 1.285 3.085 1 5-1.788-.285-3.455.048-5 1 .743.682 1.41 1.349 2 2h-3c.423 2.281-.244 3.948-2 5 1.117-4.942 2.283-9.942 3.5-15 1.444-1.655 3.278-2.322 5.5-2z"/><path style="opacity:1" fill="#b09078" d="M238.5 65.5c-2.32-1.726-4.987-2.393-8-2a114.953 114.953 0 0 0-4 16c-1.175-.219-2.175.114-3 1-1.022 3.487-3.355 4.82-7 4 .268 1.599-.066 2.932-1 4-3.592 2.086-6.759 4.753-9.5 8l-1-1c-3.285 1.637-6.785 2.304-10.5 2a2.427 2.427 0 0 0-2 .5c.116 1.268.449 2.602 1 4-1.191.698-2.191 1.531-3 2.5a4.934 4.934 0 0 0-.5-3c-2.667 2.667-5.333 2.667-8 0l-1 1a29.536 29.536 0 0 0-2.5-4.5A80.376 80.376 0 0 1 189 87.5a3.942 3.942 0 0 1 2 1c.497 2.31.663 4.643.5 7 3.098.088 3.432-.412 1-1.5.916-.278 1.582-.778 2-1.5.617-.11 1.117-.444 1.5-1 .57 4.012 1.737 4.512 3.5 1.5 7.947-2.792 14.613-7.292 20-13.5 1.301-1.385 1.301-2.885 0-4.5 1.612-.72 3.112-.554 4.5.5a9.465 9.465 0 0 1 2.5-1.5c-1.076-1.726-1.243-3.56-.5-5.5.71-1.473 1.876-2.14 3.5-2v-5c2.357-.163 4.69.003 7 .5 1.473.71 2.14 1.876 2 3.5z"/><path style="opacity:1" fill="#94664d" d="M177.5 82.5c-12.821 6.702-26.154 10.202-40 10.5-2.223.652-3.39 2.152-3.5 4.5l-1-1c-2.835 1.808-6.002 2.808-9.5 3-5.6-.376-11.266-.376-17 0v-3a41.742 41.742 0 0 0-9 1c.418-.722 1.084-1.222 2-1.5 6.721.14 13.054-1.193 19-4a23.71 23.71 0 0 1 10 .5c4.944-.831 9.61-2.165 14-4h9c4.06.015 8.06-.485 12-1.5a68.492 68.492 0 0 1 14-4.5z"/><path style="opacity:1" fill="#b0815d" d="M62.5 105.5c-.617.111-1.117.444-1.5 1-1.049-1.607-2.549-2.273-4.5-2l4-2c3.507-4.082 7.84-6.582 13-7.5a94.079 94.079 0 0 0-11 7c-1.184 1.145-1.184 2.312 0 3.5z"/><path style="opacity:1" fill="#854228" d="M129.5 86.5c.667 0 1 .333 1 1-1.578 1.818-1.078 2.818 1.5 3a23.455 23.455 0 0 1 10.5-2c-4.39 1.835-9.056 3.169-14 4a23.71 23.71 0 0 0-10-.5c-5.946 2.807-12.279 4.14-19 4-.916.278-1.582.778-2 1.5-2.953-.35-5.287.65-7 3h-6c-.146-2.442.687-3.11 2.5-2 .667-1 .667-2 0-3-2.427 1.067-2.927.4-1.5-2 1.014-1.174 2.347-1.84 4-2 .617 1.82.784 3.82.5 6 .5-1.167 1.333-2 2.5-2.5 3.195-.18 6.195-.68 9-1.5 2.741-.207 5.074-1.207 7-3 6.023-.17 12.023-.67 18-1.5 1.442-.377 2.442-1.21 3-2.5z"/><path style="opacity:1" fill="#9a5f42" d="M85.5 93.5c-1.427 2.4-.927 3.067 1.5 2 .667 1 .667 2 0 3-1.813-1.11-2.646-.442-2.5 2h6c-.75 1.746-2.083 2.746-4 3-2.827-1.163-5.493-1.163-8 0l-2 1c-1.56-1.629-1.227-2.796 1-3.5a11.374 11.374 0 0 0-2-2.5c-.607.124-.94.457-1 1-.876.13-1.543-.203-2-1 3.872-2.628 8.205-4.295 13-5z"/><path style="opacity:1" fill="#a37e65" d="M215.5 88.5a33.685 33.685 0 0 0-4 5.5 20.428 20.428 0 0 1 1.5 5.5c1.676.561 3.009 1.561 4 3 .816-1.323 1.983-1.989 3.5-2a78.995 78.995 0 0 1-12 17c-.178-3.379-.178-6.545 0-9.5-.95-2.59-2.616-4.59-5-6 1.141-.741 1.141-1.575 0-2.5a470.1 470.1 0 0 1-9-2c3.715.304 7.215-.363 10.5-2l1 1c2.741-3.247 5.908-5.914 9.5-8z"/><path style="opacity:1" fill="#ede3d1" d="M54.5 100.5h1c1.135 1.713 2.802 2.38 5 2l-4 2c-3.526 1.19-6.526 3.19-9 6-.38-2.198.287-3.865 2-5 1.756-1.052 2.423-2.719 2-5h3z"/><path style="opacity:1" fill="#9d7053" d="M193.5 84.5c-1.251 2.225-.918 4.391 1 6.5-2.597.78-2.597 1.28 0 1.5-.418.722-1.084 1.222-2 1.5 2.432 1.088 2.098 1.588-1 1.5a24.935 24.935 0 0 0-.5-7 3.942 3.942 0 0 0-2-1A80.376 80.376 0 0 0 178.5 98a29.536 29.536 0 0 1 2.5 4.5l1-1c2.667 2.667 5.333 2.667 8 0 .483.948.649 1.948.5 3 .528 1.347.695 2.681.5 4-1.044-1.123-1.71-2.456-2-4-4.804 2.239-9.47 2.906-14 2a131.493 131.493 0 0 1-6.5 5c-.023-2.1.644-3.933 2-5.5-1.39-3.019-.557-3.852 2.5-2.5l1-2a6.802 6.802 0 0 0 1.5 3c.803-2.554-.197-4.388-3-5.5a9.457 9.457 0 0 0 1.5-2.5c1.049 1.017 2.216 1.184 3.5.5l-2-1c.825-1.688 1.825-1.855 3-.5.73-1.434 1.73-2.6 3-3.5-1.333-.667-1.333-1.333 0-2l-2-1c3.249-.003 5.916-1.17 8-3.5 1.068.934 2.401 1.268 4 1-.219-1.175.114-2.175 1-3 .607.124.94.457 1 1z"/><path style="opacity:1" fill="#a16f49" d="M56.5 104.5v1c-3.66 1.66-6.327 4.327-8 8 1.108.79 2.442 1.29 4 1.5a19.17 19.17 0 0 1-5 2.5c-1.123-2.479-1.123-4.812 0-7 2.474-2.81 5.474-4.81 9-6z"/><path style="opacity:1" fill="#e5d9cc" d="M56.5 105.5c1.634.707 2.968 1.873 4 3.5l-4 3 2 1c-.228.399-.562.565-1 .5-2.846.595-5.846.595-9 0 1.673-3.673 4.34-6.34 8-8z"/><path style="opacity:1" fill="#b49883" d="M103.5 100.5c10.18.06 20.18.06 30 0a28.931 28.931 0 0 0 4 1.5c-.179 4.794 1.321 5.294 4.5 1.5 1.113 1.26 1.28 2.427.5 3.5 1.867.711 3.367.211 4.5-1.5a29.812 29.812 0 0 1-.5 5 4.934 4.934 0 0 0 3-.5c-1.109-1.813-.442-2.646 2-2.5a4.934 4.934 0 0 1 .5-3c.84 2.964 1.84 3.297 3 1 2.254 4.054 1.754 7.721-1.5 11-1.235.221-2.235.888-3 2a4.457 4.457 0 0 1-1.5-2 25.513 25.513 0 0 1-4.5 4 3.647 3.647 0 0 1-1.5-1c-4.648 1.608-9.481 2.442-14.5 2.5-3.277 4.325-7.611 6.825-13 7.5.728-2.235 2.061-4.068 4-5.5-2.947-4.407-5.947-7.407-9-9 1.036-1.617 2.203-1.784 3.5-.5a4.457 4.457 0 0 1 1.5-2c1.196.346 1.196.846 0 1.5 2.595.226 5.095.726 7.5 1.5 2.228-.799 3.561.201 4 3 .605-1.981 1.605-2.315 3-1l2-4 1 2c.17-2.345-.163-4.679-1-7-5.497-3.48-11.164-4.147-17-2a65.81 65.81 0 0 0-8.5-1.5c-3.082-.521-4.082-2.021-3-4.5z"/><path style="opacity:1" fill="#8b4f31" d="M76.5 104.5v1a136.209 136.209 0 0 1-9 4.5c-1.964 1.451-3.297 3.284-4 5.5-.667 0-1 .333-1 1a94.287 94.287 0 0 0-14 7h-1l-2-3c.996.086 1.83-.248 2.5-1l1 2a7.292 7.292 0 0 1 2-3h3c.483-.948.65-1.948.5-3 1.679.215 2.679-.452 3-2 .438.065.772-.101 1-.5l-2-1 4-3c-1.032-1.627-2.366-2.793-4-3.5v-1c1.951-.273 3.451.393 4.5 2 .383-.556.883-.889 1.5-1 .035.904.535 1.57 1.5 2a52.161 52.161 0 0 1 7.5-3.5c1.641-1.129 2.641-2.629 3-4.5.06-.543.393-.876 1-1a11.374 11.374 0 0 1 2 2.5c-2.227.704-2.56 1.871-1 3.5z"/><path style="opacity:1" fill="#8f5c3e" d="M194.5 97.5a470.1 470.1 0 0 0 9 2c1.141.925 1.141 1.759 0 2.5 2.384 1.41 4.05 3.41 5 6-.178 2.955-.178 6.121 0 9.5a45.59 45.59 0 0 1-7 9c-.996.086-1.829-.248-2.5-1l-1 2c-1.373.096-2.873-.07-4.5-.5 2.448 2.3 1.781 3.633-2 4-2.403 5.193-6.403 7.86-12 8 2.31-4.2 4.143-9.033 5.5-14.5.654 1.196 1.154 1.196 1.5 0a10.756 10.756 0 0 1-2.5-3c-1.619 2.456-2.119 4.956-1.5 7.5a13.92 13.92 0 0 1-3 4l1 1a328.892 328.892 0 0 0-13 29.5c-1 .333-1.667 1-2 2a50.547 50.547 0 0 1-12 6 125.244 125.244 0 0 0-21.5 3c-.756-2.309-.256-4.309 1.5-6 5.765-1.69 9.432-5.356 11-11 .793.431 1.627.765 2.5 1 .546-.789 1.213-1.789 2-3 2.064 1.091 4.231 1.258 6.5.5 3.428-3.972 7.595-5.139 12.5-3.5a9.258 9.258 0 0 0 2.5-2 174.787 174.787 0 0 1 5-17 11.456 11.456 0 0 1-1-2.5c2.041-2.911 3.707-5.578 5-8-1.535-.496-3.035-.33-4.5.5-1.355-2.557-3.355-2.224-6 1l-1-1c-2.218 1.592-3.885 3.592-5 6-1.299-.466-2.799-.466-4.5 0a259.895 259.895 0 0 1-16 8v3a325.538 325.538 0 0 0-18.5 10c-1.897-1.516-4.064-2.183-6.5-2 .214-1.644-.12-3.144-1-4.5a4.934 4.934 0 0 1 3-.5 66.568 66.568 0 0 1 4.5-10c3.309-1.553 5.809-3.887 7.5-7 2.95-.159 6.117-.826 9.5-2l1 1a20.667 20.667 0 0 1 7-5c.383.556.883.889 1.5 1 2.505-.48 4.838-1.48 7-3 2.767-3.838 6.433-6.171 11-7a131.493 131.493 0 0 0 6.5-5c4.53.906 9.196.239 14-2 .29 1.544.956 2.877 2 4 .195-1.319.028-2.653-.5-4 .809-.969 1.809-1.802 3-2.5-.551-1.398-.884-2.732-1-4a2.427 2.427 0 0 1 2-.5z"/><path style="opacity:1" fill="#b68d6d" d="M48.5 113.5c3.154.595 6.154.595 9 0-.321 1.548-1.321 2.215-3 2a4.932 4.932 0 0 1-.5 3h-3a7.292 7.292 0 0 0-2 3l-1-2c-.67.752-1.504 1.086-2.5 1-.073-1.527.594-2.527 2-3a19.17 19.17 0 0 0 5-2.5c-1.558-.21-2.892-.71-4-1.5z"/><path style="opacity:1" fill="#b7a193" d="M62.5 116.5c-1.694 7.87-6.36 10.203-14 7a94.287 94.287 0 0 1 14-7z"/><path style="opacity:1" fill="#cbb7a9" d="M85.5 124.5a26.445 26.445 0 0 0 9.5-5c2.283.449 3.783 1.783 4.5 4 2.266.814 4.6 1.314 7 1.5a50.65 50.65 0 0 1-12 7.5c-.657 1.937-.99 3.77-1 5.5l2 1c-2.28.233-4.28 1.066-6 2.5.14 1.756-.36 3.422-1.5 5-1.085-2.157-2.251-2.324-3.5-.5 1.564 2.744 1.064 3.577-1.5 2.5-4.79 2.968-7.29 7.302-7.5 13-3.36-.71-5.193.624-5.5 4-15.705 4.265-29.205 12.431-40.5 24.5a69.912 69.912 0 0 0-11.5 7.5c-1.765.739-3.765.739-6 0a117.656 117.656 0 0 1-12.5 4v-5a150.178 150.178 0 0 0 10.5-2c.414.457.914.791 1.5 1 4.644-1.479 8.644-3.979 12-7.5a66.737 66.737 0 0 1 6-2.5 32.497 32.497 0 0 1 10-10.5 163.47 163.47 0 0 1 21-9.5c3.653-3.299 6.153-7.299 7.5-12 4.167-3.5 8-7.333 11.5-11.5 1.525-1.009 3.192-1.509 5-1.5 1.33-3.212 2.996-6.379 5-9.5-.234-1.732-1.234-2.566-3-2.5-4.377 2.726-9.044 3.726-14 3a160.058 160.058 0 0 0-13.5 8c-3.058-.824-3.224-2.158-.5-4a3.646 3.646 0 0 0-1-1.5 12.797 12.797 0 0 0 6-3l-1-1a20.495 20.495 0 0 1 3.5-2.5 21.405 21.405 0 0 1 0-5c2.692-1.202 3.526-3.036 2.5-5.5a29.857 29.857 0 0 0 7-6l-1.5-1.5a97.428 97.428 0 0 1-10.5 6c.703-2.216 2.036-4.049 4-5.5 3.11-1.416 6.11-2.916 9-4.5a5.575 5.575 0 0 0 3-1c1.096 3.195.096 5.695-3 7.5a11.371 11.371 0 0 0 2 2.5 10.912 10.912 0 0 0 5-4.5c2.887-.723 5.553-.223 8 1.5-4.393 3.012-8.06 6.679-11 11-6.351 1.265-6.518 2.932-.5 5 2.742.384 4.575-.616 5.5-3z"/><path style="opacity:1" fill="#b5916f" d="m45.5 120.5 2 3-3 4-5 4v-8c2.858.472 4.858-.528 6-3z"/><path style="opacity:1" fill="#d6c7bb" d="M-.5 196.5v-10c2.173.885 4.006.218 5.5-2l1 2c2.994-1.957 6.493-3.123 10.5-3.5 4.852-2.904 9.852-6.404 15-10.5a527.343 527.343 0 0 1 26-11l4-7c2.667-1.333 4.667-3.333 6-6l-3-2c1.52-.38 3.187-.546 5-.5 1.216-1.74 2.882-2.74 5-3a6.544 6.544 0 0 1 3-3c-1.333-.667-1.333-1.333 0-2-.59-1.299-1.59-2.132-3-2.5-5.635 3.104-11.635 5.437-18 7a163.712 163.712 0 0 1-4 6c-1.35-1.52-2.683-2.187-4-2 1.45-1.35 2.117-3.016 2-5a6.845 6.845 0 0 1 4 1l1-1c-1.189-.929-2.522-1.262-4-1a23.956 23.956 0 0 1 3-9c3.322-1.823 5.99-4.323 8-7.5a232.666 232.666 0 0 1-12 5.5c-1.925-.09-3.092-1.09-3.5-3-.67.752-1.504 1.086-2.5 1l3-4h1c7.64 3.203 12.306.87 14-7 0-.667.333-1 1-1a97.428 97.428 0 0 0 10.5-6l1.5 1.5a29.857 29.857 0 0 1-7 6c1.026 2.464.192 4.298-2.5 5.5a21.405 21.405 0 0 0 0 5 20.495 20.495 0 0 0-3.5 2.5l1 1a12.797 12.797 0 0 1-6 3c.457.414.79.914 1 1.5-2.724 1.842-2.558 3.176.5 4a160.058 160.058 0 0 1 13.5-8c4.956.726 9.623-.274 14-3 1.766-.066 2.766.768 3 2.5-2.004 3.121-3.67 6.288-5 9.5-1.808-.009-3.475.491-5 1.5-3.5 4.167-7.333 8-11.5 11.5-1.347 4.701-3.847 8.701-7.5 12a163.47 163.47 0 0 0-21 9.5 32.497 32.497 0 0 0-10 10.5 66.737 66.737 0 0 0-6 2.5c-3.356 3.521-7.356 6.021-12 7.5a3.647 3.647 0 0 1-1.5-1 150.178 150.178 0 0 1-10.5 2z"/><path style="opacity:1" fill="#996b4e" d="M153.5 171.5c-2.719 1.413-5.719 2.08-9 2a738.486 738.486 0 0 0-17 2.5c-2.739 1.026-5.072 2.526-7 4.5a3720.883 3720.883 0 0 0-14 9c.17-1.322-.163-2.489-1-3.5.971-1.204 1.971-1.704 3-1.5l-1.5-1c-2.639 1.494-5.472 2.161-8.5 2 6.021-2.974 12.354-5.474 19-7.5a14.698 14.698 0 0 0 3-3.5 18.924 18.924 0 0 0 3-5 42.302 42.302 0 0 0 8-3.5 49.642 49.642 0 0 1 6-8.5c3.369-2.411 4.869-5.744 4.5-10-2.862-1.329-5.028-.496-6.5 2.5a54.628 54.628 0 0 1-7 2 210.748 210.748 0 0 0-9.5 5.5l-1-2a32.681 32.681 0 0 1-10 5c-2.935-9.148-.602-16.482 7-22 1.541-3.87 4.375-6.37 8.5-7.5.752-.671 1.086-1.504 1-2.5l7-2c-1.691 3.113-4.191 5.447-7.5 7a66.568 66.568 0 0 0-4.5 10 4.934 4.934 0 0 0-3 .5c.88 1.356 1.214 2.856 1 4.5 2.436-.183 4.603.484 6.5 2a325.538 325.538 0 0 1 18.5-10v-3a259.895 259.895 0 0 0 16-8c1.701-.466 3.201-.466 4.5 0 1.115-2.408 2.782-4.408 5-6l1 1c2.645-3.224 4.645-3.557 6-1 1.465-.83 2.965-.996 4.5-.5-1.293 2.422-2.959 5.089-5 8 .235.873.569 1.707 1 2.5a174.787 174.787 0 0 0-5 17 9.258 9.258 0 0 1-2.5 2c-4.905-1.639-9.072-.472-12.5 3.5-2.269.758-4.436.591-6.5-.5a127.818 127.818 0 0 1-2 3 11.456 11.456 0 0 1-2.5-1c-1.568 5.644-5.235 9.31-11 11-1.756 1.691-2.256 3.691-1.5 6a125.244 125.244 0 0 1 21.5-3z"/><path style="opacity:1" fill="#8a5132" d="M158.5 129.5c-.722-.418-1.222-1.084-1.5-2a133.394 133.394 0 0 1-7.5 4 3.647 3.647 0 0 1-1.5-1 11.333 11.333 0 0 1-1.5 3.5c-5.278 1.666-9.944 3.666-14 6l1 1c-4.652-.309-8.485 1.191-11.5 4.5a12.93 12.93 0 0 1-.5-5c2.846-.309 4.346-1.975 4.5-5 2.941-.441 4.774-2.107 5.5-5a282.082 282.082 0 0 0 22-6.5c1.635-2.73 3.802-3.897 6.5-3.5a64.38 64.38 0 0 1 10-4 4.457 4.457 0 0 1 1.5 2c-2.032 1.116-4.199 2.782-6.5 5a3.943 3.943 0 0 1-2-1c-.561 3.002-2.061 5.335-4.5 7z"/><path style="opacity:1" fill="#966e51" d="M201.5 126.5a409.243 409.243 0 0 1-30 35c-.901.79-1.568 1.79-2 3l-2-1a328.892 328.892 0 0 1 13-29.5l-1-1a13.92 13.92 0 0 0 3-4c-.619-2.544-.119-5.044 1.5-7.5a10.756 10.756 0 0 0 2.5 3c-.346 1.196-.846 1.196-1.5 0-1.357 5.467-3.19 10.3-5.5 14.5 5.597-.14 9.597-2.807 12-8 3.781-.367 4.448-1.7 2-4 1.627.43 3.127.596 4.5.5l1-2c.671.752 1.504 1.086 2.5 1z"/><path style="opacity:1" fill="#bca392" d="M103.5 100.5c-1.082 2.479-.082 3.979 3 4.5a65.81 65.81 0 0 1 8.5 1.5c5.836-2.147 11.503-1.48 17 2 .837 2.321 1.17 4.655 1 7l-1-2-2 4c-1.395-1.315-2.395-.981-3 1-.439-2.799-1.772-3.799-4-3a34.041 34.041 0 0 0-7.5-1.5c1.196-.654 1.196-1.154 0-1.5a4.457 4.457 0 0 0-1.5 2c-1.297-1.284-2.464-1.117-3.5.5 3.053 1.593 6.053 4.593 9 9-1.939 1.432-3.272 3.265-4 5.5h-1c-1.803 2.501-4.303 4.167-7.5 5-1.935 3.052-3.268 6.385-4 10-1 1.333-2 1.333-3 0a6.544 6.544 0 0 1-3 3c.266 3.401-1.234 5.067-4.5 5 .262 1.478-.071 2.811-1 4-1.343-1.402-2.176-1.069-2.5 1-1.142 2.118-1.642 4.118-1.5 6a121.609 121.609 0 0 0-19 11c-4.52-.081-7.853 1.753-10 5.5a6529.506 6529.506 0 0 0-16 12 334.264 334.264 0 0 0-43 21.5v-7a317.795 317.795 0 0 0 29-9.5A622.371 622.371 0 0 1 55 176.5c2.532-1.6 5.2-2.933 8-4 5.185 1.303 8.685-.697 10.5-6a64.552 64.552 0 0 1 7.5-6 25.789 25.789 0 0 0 2-8c5.12-4.402 10.62-7.735 16.5-10 1.881-2.461 1.881-4.628 0-6.5a59.342 59.342 0 0 0 17-11.5 19.887 19.887 0 0 0-3.5-4 75.163 75.163 0 0 1-6.5 3c-1.004-2.657-3.004-4.99-6-7-2.265-1.147-4.598-1.314-7-.5-2.195 3.359-4.862 6.193-8 8.5-.925 2.384-2.758 3.384-5.5 3-6.018-2.068-5.851-3.735.5-5 2.94-4.321 6.607-7.988 11-11-2.447-1.723-5.113-2.223-8-1.5a10.912 10.912 0 0 1-5 4.5 11.371 11.371 0 0 1-2-2.5c3.096-1.805 4.096-4.305 3-7.5a5.575 5.575 0 0 1-3 1v-1l2-1h4c.17 1.322-.163 2.489-1 3.5a4.458 4.458 0 0 0 2 1.5 32.285 32.285 0 0 0 9-7.5c3.657-1.647 7.323-1.813 11-.5z"/><path style="opacity:1" fill="#e1d6cc" d="M-.5 186.5v-28a123.755 123.755 0 0 0 17-15.5 103.926 103.926 0 0 1 18-7 208.89 208.89 0 0 0 5-4.5l5-4c.996.086 1.83-.248 2.5-1 .408 1.91 1.575 2.91 3.5 3a232.666 232.666 0 0 0 12-5.5c-2.01 3.177-4.678 5.677-8 7.5a23.956 23.956 0 0 0-3 9c1.478-.262 2.811.071 4 1l-1 1a6.845 6.845 0 0 0-4-1c.117 1.984-.55 3.65-2 5 1.317-.187 2.65.48 4 2a163.712 163.712 0 0 0 4-6c6.365-1.563 12.365-3.896 18-7 1.41.368 2.41 1.201 3 2.5-1.333.667-1.333 1.333 0 2a6.544 6.544 0 0 0-3 3c-2.118.26-3.784 1.26-5 3-1.813-.046-3.48.12-5 .5l3 2c-1.333 2.667-3.333 4.667-6 6l-4 7a527.343 527.343 0 0 0-26 11c-5.148 4.096-10.148 7.596-15 10.5-4.007.377-7.506 1.543-10.5 3.5l-1-2c-1.494 2.218-3.327 2.885-5.5 2z"/><path style="opacity:1" fill="#fdfbf3" d="M309.5 158.5v16c-3.613-.018-7.113.982-10.5 3-3.428-.757-6.762-1.09-10-1a101.489 101.489 0 0 1-18.5 4c-7.843-.291-15.51-.624-23-1-3.213 1.605-6.379 2.271-9.5 2-1.309 2.391-2.309 2.391-3 0l-1 4c-1.943-2.066-4.109-2.399-6.5-1-1.147-.318-1.981-.984-2.5-2-3.702.036-7.036.036-10 0l-2 2-8-2c-2.271 1.934-4.271 1.934-6 0a7.293 7.293 0 0 0-2 3 4.933 4.933 0 0 0-2.5-1 210.749 210.749 0 0 1-21 3 43.286 43.286 0 0 1-5.5-3c-2.169.746-4.002.079-5.5-2a78.689 78.689 0 0 0 4-11c1.565-2.009 2.565-4.343 3-7 .432-1.21 1.099-2.21 2-3 .678 3.035 2.678 4.701 6 5 3.341-1.374 6.507-1.041 9.5 1 7.89-1.321 16.056-1.321 24.5 0a1165.462 1165.462 0 0 1 36.5-4c3.15.492 6.317.825 9.5 1 1.873.018 2.206-.482 1-1.5 2.068-.687 4.068-.52 6 .5l6-2c8.34.307 16.84.307 25.5 0 1.194-2.025 2.694-2.359 4.5-1a54.293 54.293 0 0 1 9-2z"/><path style="opacity:1" fill="#b7a99d" d="m167.5 163.5 2 1c-.435 2.657-1.435 4.991-3 7 .086-.996-.248-1.829-1-2.5 2.518-1.14 2.518-2.306 0-3.5.333-1 1-1.667 2-2z"/><path style="opacity:1" fill="#ab8c75" d="M137.5 157.5a49.642 49.642 0 0 0-6 8.5 42.302 42.302 0 0 1-8 3.5 457.222 457.222 0 0 1-14.5 9 54.628 54.628 0 0 1-4.5-2c1.211-1.22 1.211-2.387 0-3.5 1.727-1.743 2.394-3.576 2-5.5.825-.886 1.825-1.219 3-1v-4c4.86-.245 8.86-1.578 12-4a25.618 25.618 0 0 1 10-3.5 37.238 37.238 0 0 0 8.5-5.5 275.344 275.344 0 0 1-2.5 8z"/><path style="opacity:1" fill="#a07d63" d="M124.5 128.5c.086.996-.248 1.829-1 2.5-4.125 1.13-6.959 3.63-8.5 7.5-7.602 5.518-9.935 12.852-7 22a32.681 32.681 0 0 0 10-5l1 2a210.748 210.748 0 0 1 9.5-5.5 54.628 54.628 0 0 0 7-2c1.472-2.996 3.638-3.829 6.5-2.5.369 4.256-1.131 7.589-4.5 10a275.344 275.344 0 0 0 2.5-8 37.238 37.238 0 0 1-8.5 5.5 25.618 25.618 0 0 0-10 3.5c-3.14 2.422-7.14 3.755-12 4v4c-1.175-.219-2.175.114-3 1 .394 1.924-.273 3.757-2 5.5 1.211 1.113 1.211 2.28 0 3.5a54.628 54.628 0 0 0 4.5 2 457.222 457.222 0 0 0 14.5-9 18.924 18.924 0 0 1-3 5 62.074 62.074 0 0 1-19.5 7 27.078 27.078 0 0 1-4.5-2 17.55 17.55 0 0 1-6 3 25.914 25.914 0 0 1-4.5-4c-3.963 1.078-7.13 3.745-9.5 8a6.846 6.846 0 0 1 1 4 18.452 18.452 0 0 0-6 .5 1019.47 1019.47 0 0 0-12 6c-1.612.72-3.112.554-4.5-.5-2.976 3.215-6.476 4.382-10.5 3.5a293.533 293.533 0 0 1-24 12 58.426 58.426 0 0 1-7 8c-4.112 3.025-8.779 6.192-14 9.5v-12c5.894-1.285 11.227-3.619 16-7 4.777.506 8.777-1.327 12-5.5 7.651-1.906 14.818-5.406 21.5-10.5a103.83 103.83 0 0 0 11.5-4.5 39.879 39.879 0 0 1 9-6l-1-1c1.537-1.11 2.204-2.61 2-4.5h11v-3c4.076-.18 7.91-1.18 11.5-3l1 1c2.865-3.857 5.698-7.69 8.5-11.5-.687-2.232-1.021-4.398-1-6.5a20.79 20.79 0 0 0 2.5-1l2-4c.475-4.582 1.642-8.915 3.5-13 3.018-.3 5.018-1.967 6-5a55.078 55.078 0 0 0 9-4z"/><path style="opacity:1" fill="#f7f5e9" d="M309.5 174.5v6a122.05 122.05 0 0 0-16.5 3c-1.398-.551-2.732-.884-4-1-5 .858-9.834 2.191-14.5 4l-2-1a167.912 167.912 0 0 0-7.5 2l-2-2c-1.337 1.504-3.004 2.504-5 3-1.398-.551-2.732-.884-4-1-3.275.419-6.109 1.753-8.5 4a3.647 3.647 0 0 1-1.5-1c-6.501 2.717-13.001 3.05-19.5 1-2.824.923-5.657.59-8.5-1-4.462.922-8.795.922-13 0-1.567 1.668-3.234 2.002-5 1-1.032 1.645-2.199 1.978-3.5 1-2.866.682-5.366 2.016-7.5 4h-7a45.567 45.567 0 0 1-11 4c-.667-1.333-1.333-1.333-2 0-1.344-2.61-2.844-4.776-4.5-6.5a28.208 28.208 0 0 1-4-1.5c.372-3.797 1.706-7.13 4-10 1.498 2.079 3.331 2.746 5.5 2a43.286 43.286 0 0 0 5.5 3 210.749 210.749 0 0 0 21-3 4.933 4.933 0 0 1 2.5 1 7.293 7.293 0 0 1 2-3c1.729 1.934 3.729 1.934 6 0l8 2 2-2c2.964.036 6.298.036 10 0 .519 1.016 1.353 1.682 2.5 2 2.391-1.399 4.557-1.066 6.5 1l1-4c.691 2.391 1.691 2.391 3 0 3.121.271 6.287-.395 9.5-2 7.49.376 15.157.709 23 1a101.489 101.489 0 0 0 18.5-4c3.238-.09 6.572.243 10 1 3.387-2.018 6.887-3.018 10.5-3z"/><path style="opacity:1" fill="#b39c85" d="M144.5 173.5c-7.917 2.316-15.917 4.649-24 7 1.928-1.974 4.261-3.474 7-4.5a738.486 738.486 0 0 1 17-2.5z"/><path style="opacity:1" fill="#bfab9b" d="M-.5 206.5v-5a117.656 117.656 0 0 0 12.5-4c2.235.739 4.235.739 6 0a69.912 69.912 0 0 1 11.5-7.5c11.295-12.069 24.795-20.235 40.5-24.5.307-3.376 2.14-4.71 5.5-4 .21-5.698 2.71-10.032 7.5-13 2.564 1.077 3.064.244 1.5-2.5 1.249-1.824 2.415-1.657 3.5.5 1.14-1.578 1.64-3.244 1.5-5 1.72-1.434 3.72-2.267 6-2.5l-2-1c.01-1.73.343-3.563 1-5.5a50.65 50.65 0 0 0 12-7.5 26.724 26.724 0 0 1-7-1.5c-.717-2.217-2.217-3.551-4.5-4a26.445 26.445 0 0 1-9.5 5c3.138-2.307 5.805-5.141 8-8.5 2.402-.814 4.735-.647 7 .5 2.996 2.01 4.996 4.343 6 7 2.2-.89 4.366-1.89 6.5-3a19.887 19.887 0 0 1 3.5 4 59.342 59.342 0 0 1-17 11.5c1.881 1.872 1.881 4.039 0 6.5-5.88 2.265-11.38 5.598-16.5 10a25.789 25.789 0 0 1-2 8 64.552 64.552 0 0 0-7.5 6c-1.815 5.303-5.315 7.303-10.5 6a44.794 44.794 0 0 0-8 4A622.371 622.371 0 0 0 28.5 197a317.795 317.795 0 0 1-29 9.5z"/><path style="opacity:1" fill="#f6f3ea" d="M165.5 165.5c2.518 1.194 2.518 2.36 0 3.5.752.671 1.086 1.504 1 2.5-1.075-1.062-2.075-1.062-3 0 2.576 1.383 2.242 2.217-1 2.5.335 1.503.335 2.836 0 4a9.454 9.454 0 0 0-2.5 1.5c-1.519 5.101-3.686 9.768-6.5 14-8.095.095-16.261.095-24.5 0-2.46 1.388-5.127 2.054-8 2a91.028 91.028 0 0 1-15.5-3c.363-.683.696-1.35 1-2v-1c4.684-3.026 9.351-6.026 14-9 8.083-2.351 16.083-4.684 24-7 3.281.08 6.281-.587 9-2a50.547 50.547 0 0 0 12-6z"/><path style="opacity:1" fill="#af947f" d="M114.5 129.5c-.552 3.553-2.552 5.886-6 7a153.782 153.782 0 0 1-5 13 51.044 51.044 0 0 0-5.5 4c-.919 4.292-1.752 8.292-2.5 12a56.285 56.285 0 0 1-7 2.5c-3.249 3.221-6.915 5.721-11 7.5-6.408.473-12.408 2.14-18 5v3c-6.154 3.002-11.987 6.669-17.5 11l-1-1c-3.252 4.544-7.752 6.877-13.5 7a84.282 84.282 0 0 1-12 10c-4.773 3.381-10.106 5.715-16 7v-4a334.264 334.264 0 0 1 43-21.5 6529.506 6529.506 0 0 1 16-12c2.147-3.747 5.48-5.581 10-5.5 5.967-4.22 12.3-7.886 19-11-.142-1.882.358-3.882 1.5-6 .324-2.069 1.157-2.402 2.5-1 .929-1.189 1.262-2.522 1-4 3.266.067 4.766-1.599 4.5-5a6.544 6.544 0 0 0 3-3c1 1.333 2 1.333 3 0 .732-3.615 2.065-6.948 4-10 3.197-.833 5.697-2.499 7.5-5z"/><path style="opacity:1" fill="#ebebdf" d="M309.5 180.5v6c-1.322.17-2.489-.163-3.5-1-3.28.595-6.613 1.595-10 3l-5-1c-1.324 1.38-2.657 1.714-4 1-5.755.936-11.089 2.936-16 6-3.777-.799-7.61-.632-11.5.5-1.249 1.824-2.415 1.657-3.5-.5-1.243 2.333-2.909 3-5 2a43.772 43.772 0 0 1-9 9c-1.645-.193-3.479-.36-5.5-.5l-1.5-1.5a25.965 25.965 0 0 1-5 5c-1.333-2.667-2.667-2.667-4 0l-1-3c-.654 1.196-1.154 1.196-1.5 0 2.621-2.372 2.288-3.038-1-2a15.014 15.014 0 0 0-3.5-4c-3.264 1.41-6.598 1.077-10-1-1.667 1.333-3.333 1.333-5 0-3.865 2.431-7.865 3.431-12 3a38.355 38.355 0 0 1-10.5 5 3.647 3.647 0 0 1-1.5-1 70.342 70.342 0 0 1-13 9l-1-2a11.295 11.295 0 0 1-4 2 43.286 43.286 0 0 0-5.5-3 23.411 23.411 0 0 0-3-7c.863-1.226.863-2.56 0-4a25.099 25.099 0 0 1 5-8c1.266.59 2.599 1.09 4 1.5 1.656 1.724 3.156 3.89 4.5 6.5.667-1.333 1.333-1.333 2 0a45.567 45.567 0 0 0 11-4h7c2.134-1.984 4.634-3.318 7.5-4 1.301.978 2.468.645 3.5-1 1.766 1.002 3.433.668 5-1 4.205.922 8.538.922 13 0 2.843 1.59 5.676 1.923 8.5 1 6.499 2.05 12.999 1.717 19.5-1 .414.457.914.791 1.5 1 2.391-2.247 5.225-3.581 8.5-4 1.268.116 2.602.449 4 1 1.996-.496 3.663-1.496 5-3l2 2a167.912 167.912 0 0 1 7.5-2l2 1a75.186 75.186 0 0 1 14.5-4c1.268.116 2.602.449 4 1a122.05 122.05 0 0 1 16.5-3z"/><path style="opacity:1" fill="#e2e2d8" d="M309.5 186.5v2a120.453 120.453 0 0 0-33 5.5 23.65 23.65 0 0 0-3 3.5c-2.448 1.255-4.948 1.255-7.5 0-1.448 2.394-3.614 3.894-6.5 4.5-1.284.684-2.451.517-3.5-.5a126.09 126.09 0 0 0-12.5 17c-3.362.43-6.195-.57-8.5-3l-2 2c-3.13-.922-6.13-.922-9 0-1.261-.259-2.261-.926-3-2-1.016 1.134-1.683.801-2-1l-1 1c-.651-5.298-2.984-9.631-7-13-4.371-.311-8.871.189-13.5 1.5a79.62 79.62 0 0 1-18 6.5v3a351.735 351.735 0 0 0-13 5.5c-6.718.986-13.051.153-19-2.5-.17-1.322.163-2.489 1-3.5-2.786-2.258-3.452-1.758-2 1.5l-2 1c1.481 1.444 1.148 2.111-1 2a81.316 81.316 0 0 0-2.5 3 115.922 115.922 0 0 0-18.5-13.5c-2.547-.66-5.047-.493-7.5.5a94.443 94.443 0 0 1-6.5-2c-1.771.535-2.104 1.369-1 2.5a12.93 12.93 0 0 1-5 .5 131.569 131.569 0 0 0-3.5 7c-2.355.1-4.522 1.267-6.5 3.5-3.223 1.126-6.39 1.293-9.5.5-2.316 1.959-4.316 1.959-6 0l-1 1c.698-2.264.198-4.097-1.5-5.5a11.357 11.357 0 0 0 1.5-3.5c2.375-1.215 4.209-2.881 5.5-5a490.04 490.04 0 0 0 25-16c-.304.65-.637 1.317-1 2a91.028 91.028 0 0 0 15.5 3c2.873.054 5.54-.612 8-2 8.239.095 16.405.095 24.5 0a43.95 43.95 0 0 1-5 14c1.218 1.303.885 2.303-1 3 .438 1.006 1.104 1.006 2 0 .997-3.597 2.33-6.931 4-10 .863 1.44.863 2.774 0 4a23.411 23.411 0 0 1 3 7c1.929.88 3.763 1.88 5.5 3a11.295 11.295 0 0 0 4-2l1 2a70.342 70.342 0 0 0 13-9c.414.457.914.791 1.5 1a38.355 38.355 0 0 0 10.5-5c4.135.431 8.135-.569 12-3 1.667 1.333 3.333 1.333 5 0 3.402 2.077 6.736 2.41 10 1a15.014 15.014 0 0 1 3.5 4c3.288-1.038 3.621-.372 1 2 .346 1.196.846 1.196 1.5 0l1 3c1.333-2.667 2.667-2.667 4 0a25.965 25.965 0 0 0 5-5l1.5 1.5c2.021.14 3.855.307 5.5.5a43.772 43.772 0 0 0 9-9c2.091 1 3.757.333 5-2 1.085 2.157 2.251 2.324 3.5.5 3.89-1.132 7.723-1.299 11.5-.5 4.911-3.064 10.245-5.064 16-6 1.343.714 2.676.38 4-1l5 1c3.387-1.405 6.72-2.405 10-3 1.011.837 2.178 1.17 3.5 1z"/><path style="opacity:1" fill="#bdad9d" d="M166.5 171.5a78.689 78.689 0 0 1-4 11c-2.294 2.87-3.628 6.203-4 10a25.099 25.099 0 0 0-5 8c-1.67 3.069-3.003 6.403-4 10-.896 1.006-1.562 1.006-2 0 1.885-.697 2.218-1.697 1-3a43.95 43.95 0 0 0 5-14c2.814-4.232 4.981-8.899 6.5-14a9.454 9.454 0 0 1 2.5-1.5c.335-1.164.335-2.497 0-4 3.242-.283 3.576-1.117 1-2.5.925-1.062 1.925-1.062 3 0z"/><path style="opacity:1" fill="#dbdbd0" d="M309.5 188.5v4a53.508 53.508 0 0 0-4.5-1 1970.439 1970.439 0 0 0-20.5 4.5 37.156 37.156 0 0 0-10 7.5 81.68 81.68 0 0 1-13.5 6l-1-1c-5.597 3.984-10.43 8.817-14.5 14.5-4.089.346-7.923.179-11.5-.5-1.705 1.263-3.372 1.597-5 1-9.562 3.796-15.728.463-18.5-10-1.239-2.586-3.072-4.586-5.5-6a40.473 40.473 0 0 0-12 6c-2.498-1.098-4.998-.932-7.5.5a176.145 176.145 0 0 0-20 11c-5.102-.596-9.935-.429-14.5.5a14.828 14.828 0 0 0-6.5-2v-2a27.195 27.195 0 0 1 3-5c5.949 2.653 12.282 3.486 19 2.5a351.735 351.735 0 0 1 13-5.5v-3a79.62 79.62 0 0 0 18-6.5c4.629-1.311 9.129-1.811 13.5-1.5 4.016 3.369 6.349 7.702 7 13l1-1c.317 1.801.984 2.134 2 1 .739 1.074 1.739 1.741 3 2 2.87-.922 5.87-.922 9 0l2-2c2.305 2.43 5.138 3.43 8.5 3a126.09 126.09 0 0 1 12.5-17c1.049 1.017 2.216 1.184 3.5.5 2.886-.606 5.052-2.106 6.5-4.5 2.552 1.255 5.052 1.255 7.5 0a23.65 23.65 0 0 1 3-3.5 120.453 120.453 0 0 1 33-5.5z"/><path style="opacity:1" fill="#8d6346" d="M106.5 189.5v1a490.04 490.04 0 0 1-25 16c-4.005.998-7.339 2.998-10 6a205.788 205.788 0 0 0-19 15 25.494 25.494 0 0 0-7 5 134.718 134.718 0 0 0-22.5 19c-.528 1.316-.028 1.983 1.5 2l-15 13c-2.321.158-4.154 1.158-5.5 3L2.5 268c3.371-5.037 7.704-9.037 13-12a284.097 284.097 0 0 1 16-18 78.69 78.69 0 0 0 10-6.5c4.847-7.162 11.014-12.828 18.5-17 .224-1.631-.61-2.631-2.5-3a377.163 377.163 0 0 1-16.5 8 21.925 21.925 0 0 0-4.5 8c-1.322.17-2.489-.163-3.5-1-.915 2.48-2.415 3.147-4.5 2-5.684 1.339-10.35 4.339-14 9a135.073 135.073 0 0 0-15 8v-6a68.393 68.393 0 0 0 13-8.5 111.527 111.527 0 0 1 12-7.5 25.235 25.235 0 0 1 6.5-8c6.309 1.235 12.475-.099 18.5-4a87.58 87.58 0 0 1 8.5-7l1 1A158.671 158.671 0 0 1 85.5 193a26.596 26.596 0 0 1 2-3.5c2.482.769 4.315-.231 5.5-3 1.117.165 2.284.498 3.5 1a30.968 30.968 0 0 1 2-2c3.028.161 5.861-.506 8.5-2l1.5 1c-1.029-.204-2.029.296-3 1.5.837 1.011 1.17 2.178 1 3.5z"/><path style="opacity:1" fill="#a88871" d="M153.5 116.5a11.743 11.743 0 0 1-3 5c-.617-.111-1.117-.444-1.5-1a20.667 20.667 0 0 0-7 5l-1-1c-3.383 1.174-6.55 1.841-9.5 2l-7 2a55.078 55.078 0 0 1-9 4c-.982 3.033-2.982 4.7-6 5-1.858 4.085-3.025 8.418-3.5 13l-2 4c-.92.43-1.753.764-2.5 1-.021 2.102.313 4.268 1 6.5-2.802 3.81-5.635 7.643-8.5 11.5l-1-1c-3.59 1.82-7.424 2.82-11.5 3v3h-11c.204 1.89-.463 3.39-2 4.5l1 1a39.879 39.879 0 0 0-9 6 103.83 103.83 0 0 1-11.5 4.5c-6.682 5.094-13.849 8.594-21.5 10.5-3.223 4.173-7.223 6.006-12 5.5a84.282 84.282 0 0 0 12-10c5.748-.123 10.248-2.456 13.5-7l1 1c5.513-4.331 11.346-7.998 17.5-11v-3c5.592-2.86 11.592-4.527 18-5 4.085-1.779 7.751-4.279 11-7.5a56.285 56.285 0 0 0 7-2.5c.748-3.708 1.581-7.708 2.5-12a51.044 51.044 0 0 1 5.5-4 153.782 153.782 0 0 0 5-13c3.448-1.114 5.448-3.447 6-7h1c5.389-.675 9.723-3.175 13-7.5 5.019-.058 9.852-.892 14.5-2.5.414.457.914.791 1.5 1a25.513 25.513 0 0 0 4.5-4 4.457 4.457 0 0 0 1.5 2c.765-1.112 1.765-1.779 3-2z"/><path style="opacity:1" fill="#bdbdb2" d="M309.5 197.5v22a2968.346 2968.346 0 0 0-6-7l-5 4a7.248 7.248 0 0 1-2.5-2l-1 1c-1.295-3.298-3.295-5.965-6-8-2.595 3.268-5.928 5.268-10 6-1.387 5.175-3.72 9.842-7 14-4.143-1.037-7.81-2.37-11-4a164.588 164.588 0 0 1-17.5 11.5c-6.671-1.334-13.004-.334-19 3-5.804 1.224-11.138.224-16-3-1.27-3.203-3.27-5.87-6-8a62.885 62.885 0 0 1-16-2.5 145.396 145.396 0 0 1-36.5 12 79.952 79.952 0 0 0-10.5-2c-.039-2.589.961-4.589 3-6 5.819 1.153 11.819 1.319 18 .5 4.189-.727 8.022-2.227 11.5-4.5l1 1a60.909 60.909 0 0 1 13-7c3.473-.478 7.139-.478 11 0 .388-.928 1.055-1.595 2-2 1.788-.8 3.455-1.134 5-1 2.351 6.74 6.851 12.24 13.5 16.5 3.35.93 6.183.097 8.5-2.5 1.016 1.134 1.683.801 2-1 1.398.551 2.732.884 4 1l2-2c2.51.147 5.177.813 8 2 6.048-3.045 11.214-7.212 15.5-12.5a122.867 122.867 0 0 1 15-5c5.1-6.933 11.6-11.1 19.5-12.5 5.723-3.414 11.556-4.081 17.5-2z"/><path style="opacity:1" fill="#977258" d="M120.5 174.5a14.698 14.698 0 0 1-3 3.5c-6.646 2.026-12.979 4.526-19 7.5a30.968 30.968 0 0 0-2 2c-1.216-.502-2.383-.835-3.5-1-1.185 2.769-3.018 3.769-5.5 3a26.596 26.596 0 0 0-2 3.5A158.671 158.671 0 0 0 59 205.5l-1-1a87.58 87.58 0 0 0-8.5 7c-6.025 3.901-12.191 5.235-18.5 4a25.235 25.235 0 0 0-6.5 8 111.527 111.527 0 0 0-12 7.5 68.393 68.393 0 0 1-13 8.5v-10c5.221-3.308 9.888-6.475 14-9.5a58.426 58.426 0 0 0 7-8 293.533 293.533 0 0 0 24-12c4.024.882 7.524-.285 10.5-3.5 1.388 1.054 2.888 1.22 4.5.5a1019.47 1019.47 0 0 1 12-6 18.452 18.452 0 0 1 6-.5 6.846 6.846 0 0 0-1-4c2.37-4.255 5.537-6.922 9.5-8a25.914 25.914 0 0 0 4.5 4 17.55 17.55 0 0 0 6-3 27.078 27.078 0 0 0 4.5 2 62.074 62.074 0 0 0 19.5-7z"/><path style="opacity:1" fill="#cecec2" d="M309.5 192.5v5c-5.944-2.081-11.777-1.414-17.5 2-7.9 1.4-14.4 5.567-19.5 12.5a122.867 122.867 0 0 0-15 5c-4.286 5.288-9.452 9.455-15.5 12.5-2.823-1.187-5.49-1.853-8-2l-2 2c-1.268-.116-2.602-.449-4-1-.317 1.801-.984 2.134-2 1-2.317 2.597-5.15 3.43-8.5 2.5-6.649-4.26-11.149-9.76-13.5-16.5-1.545-.134-3.212.2-5 1-.945.405-1.612 1.072-2 2-3.861-.478-7.527-.478-11 0a60.909 60.909 0 0 0-13 7l-1-1c-3.478 2.273-7.311 3.773-11.5 4.5-6.181.819-12.181.653-18-.5.296-1.903.963-3.57 2-5 2.327.165 4.493.831 6.5 2 4.565-.929 9.398-1.096 14.5-.5a176.145 176.145 0 0 1 20-11c2.502-1.432 5.002-1.598 7.5-.5a40.473 40.473 0 0 1 12-6c2.428 1.414 4.261 3.414 5.5 6 2.772 10.463 8.938 13.796 18.5 10 1.628.597 3.295.263 5-1 3.577.679 7.411.846 11.5.5 4.07-5.683 8.903-10.516 14.5-14.5l1 1a81.68 81.68 0 0 0 13.5-6 37.156 37.156 0 0 1 10-7.5c6.846-1.541 13.68-3.041 20.5-4.5 1.533.273 3.033.606 4.5 1z"/><path style="opacity:1" fill="#a68e7c" d="M147.5 216.5a27.195 27.195 0 0 0-3 5c.067-1.459-.266-2.792-1-4 2.148.111 2.481-.556 1-2l2-1c-1.452-3.258-.786-3.758 2-1.5-.837 1.011-1.17 2.178-1 3.5z"/><path style="opacity:1" fill="#d0d0c7" d="M143.5 217.5c.734 1.208 1.067 2.541 1 4-.617-.111-1.117-.444-1.5-1-1.077 2.205-1.743 4.205-2 6l-1-1c-.71 1.473-1.876 2.14-3.5 2-11.823-11.197-23.823-12.03-36-2.5l-2 4c-6.662 3.232-13.662 4.232-21 3-5.017-1.56-9.35-4.06-13-7.5a18.489 18.489 0 0 0-2-3.5 648.505 648.505 0 0 0 9-8.5c2.661-3.002 5.995-5.002 10-6-1.291 2.119-3.125 3.785-5.5 5a11.357 11.357 0 0 1-1.5 3.5c1.698 1.403 2.198 3.236 1.5 5.5l1-1c1.684 1.959 3.684 1.959 6 0 3.11.793 6.277.626 9.5-.5 1.978-2.233 4.145-3.4 6.5-3.5a131.569 131.569 0 0 1 3.5-7 12.93 12.93 0 0 0 5-.5c-1.104-1.131-.771-1.965 1-2.5a94.443 94.443 0 0 0 6.5 2c2.453-.993 4.953-1.16 7.5-.5 6.613 3.89 12.78 8.39 18.5 13.5a81.316 81.316 0 0 1 2.5-3z"/><path style="opacity:1" fill="#bcbcb2" d="M136.5 227.5c1.538 2.051 1.204 3.718-1 5a95.492 95.492 0 0 0-10.5-6 3.647 3.647 0 0 1-1.5 1c-2.345-1.783-5.012-2.783-8-3-5.693 2.015-11.026 4.848-16 8.5-9.848 4.061-19.848 4.561-30 1.5-1.842-1.69-3.175-3.69-4-6 .067-1.459-.266-2.792-1-4 3.65 3.44 7.983 5.94 13 7.5 7.338 1.232 14.338.232 21-3l2-4c12.177-9.53 24.177-8.697 36 2.5z"/><path style="opacity:1" fill="#b1aa9d" d="M71.5 212.5a648.505 648.505 0 0 1-9 8.5 18.489 18.489 0 0 1 2 3.5c.734 1.208 1.067 2.541 1 4a9.864 9.864 0 0 1-1 6 5590.27 5590.27 0 0 1-13-5.5c.556-.383.89-.883 1-1.5a205.788 205.788 0 0 1 19-15z"/><path style="opacity:1" fill="#9e998d" d="M52.5 227.5c-.11.617-.444 1.117-1 1.5a5590.27 5590.27 0 0 0 13 5.5 9.864 9.864 0 0 0 1-6c.825 2.31 2.158 4.31 4 6a42.584 42.584 0 0 0 1.5 5 3.944 3.944 0 0 1 2-1 24.041 24.041 0 0 0 10 2c3.119-.567 6.119-.567 9 0a1026.728 1026.728 0 0 1 23.5-9c6.7 1.052 13.033 3.052 19 6a23.423 23.423 0 0 1-2.5 6c-3.366-6.238-8.699-8.904-16-8-7.865 1.288-15.365 3.788-22.5 7.5a61.13 61.13 0 0 1-18.5-.5c-1.718.531-1.885 1.198-.5 2v3h-1a29.291 29.291 0 0 0-2.5-7 6.807 6.807 0 0 1-1.5 3 44.42 44.42 0 0 1-7-6 62.626 62.626 0 0 1-11.5-6 22.36 22.36 0 0 0-4.5 3c-.838-.342-1.172-1.008-1-2a25.494 25.494 0 0 1 7-5z"/><path style="opacity:1" fill="#7c7468" d="M73.5 247.5v2a65.625 65.625 0 0 1-14.5-9c-4.184-2.451-8.684-3.784-13.5-4l1-2a22.36 22.36 0 0 1 4.5-3 62.626 62.626 0 0 0 11.5 6 44.42 44.42 0 0 0 7 6 6.807 6.807 0 0 0 1.5-3 29.291 29.291 0 0 1 2.5 7z"/><path style="opacity:1" fill="#9d9a8d" d="M309.5 225.5v4c-4.914.252-9.414 1.586-13.5 4a20.555 20.555 0 0 0-8.5-1.5 311.238 311.238 0 0 1-13.5 9.5 81.263 81.263 0 0 1-11.5-5 212.232 212.232 0 0 1-37 8.5c-6.137.73-12.137.23-18-1.5-1.249-1.636-2.916-2.803-5-3.5a211.866 211.866 0 0 1-18-5.5l-4 .5c-12.289 7.861-25.789 11.028-40.5 9.5-1.364-.871-2.53-1.871-3.5-3 7.001 1.169 14.001 1.002 21-.5a539.544 539.544 0 0 0 30-10.5 138.563 138.563 0 0 1 19 7 26.585 26.585 0 0 1 2 3.5 43.397 43.397 0 0 0 17 1 84.188 84.188 0 0 1 17-2 306.693 306.693 0 0 1 20.5-8.5 218.394 218.394 0 0 0 10.5 6 112.842 112.842 0 0 1 15.5-15 49.653 49.653 0 0 0 6 7c3.876-1.54 7.209-3.873 10-7 .589 2.363 2.089 3.363 4.5 3z"/><path style="opacity:1" fill="#7f573c" d="M9.5 266.5a41.176 41.176 0 0 1-10 7v-28a135.073 135.073 0 0 1 15-8c3.65-4.661 8.316-7.661 14-9 2.085 1.147 3.585.48 4.5-2 1.011.837 2.178 1.17 3.5 1a21.925 21.925 0 0 1 4.5-8 377.163 377.163 0 0 0 16.5-8c1.89.369 2.724 1.369 2.5 3-7.486 4.172-13.653 9.838-18.5 17a78.69 78.69 0 0 1-10 6.5 284.097 284.097 0 0 0-16 18c-5.296 2.963-9.629 6.963-13 12l1.5 1.5c1.346-1.842 3.179-2.842 5.5-3z"/><path style="opacity:1" fill="#aba99e" d="M309.5 219.5v6c-2.411.363-3.911-.637-4.5-3-2.791 3.127-6.124 5.46-10 7a49.653 49.653 0 0 1-6-7 112.842 112.842 0 0 0-15.5 15 218.394 218.394 0 0 1-10.5-6 306.693 306.693 0 0 0-20.5 8.5 84.188 84.188 0 0 0-17 2 43.397 43.397 0 0 1-17-1 26.585 26.585 0 0 0-2-3.5 138.563 138.563 0 0 0-19-7 539.544 539.544 0 0 1-30 10.5c-6.999 1.502-13.999 1.669-21 .5-.401-1.491-.568-3.158-.5-5-.383.556-.883.889-1.5 1-5.967-2.948-12.3-4.948-19-6a1026.728 1026.728 0 0 0-23.5 9c-2.881-.567-5.881-.567-9 0a24.041 24.041 0 0 1-10-2 3.944 3.944 0 0 0-2 1 42.584 42.584 0 0 1-1.5-5c10.152 3.061 20.152 2.561 30-1.5 4.974-3.652 10.307-6.485 16-8.5 2.988.217 5.655 1.217 8 3a3.647 3.647 0 0 0 1.5-1 95.492 95.492 0 0 1 10.5 6c2.204-1.282 2.538-2.949 1-5 1.624.14 2.79-.527 3.5-2l1 1c.257-1.795.923-3.795 2-6 .383.556.883.889 1.5 1v2c-1.037 1.43-1.704 3.097-2 5-2.039 1.411-3.039 3.411-3 6a79.952 79.952 0 0 1 10.5 2 145.396 145.396 0 0 0 36.5-12 62.885 62.885 0 0 0 16 2.5c2.73 2.13 4.73 4.797 6 8 4.862 3.224 10.196 4.224 16 3 5.996-3.334 12.329-4.334 19-3a164.588 164.588 0 0 0 17.5-11.5c3.19 1.63 6.857 2.963 11 4 3.28-4.158 5.613-8.825 7-14 4.072-.732 7.405-2.732 10-6 2.705 2.035 4.705 4.702 6 8l1-1a7.248 7.248 0 0 0 2.5 2l5-4c2.023 2.353 4.023 4.686 6 7z"/><path style="opacity:1" fill="#60584d" d="M45.5 236.5c4.816.216 9.316 1.549 13.5 4a65.625 65.625 0 0 0 14.5 9c.904.709 1.237 1.709 1 3a352.363 352.363 0 0 0-23-10c-3.315-.183-6.981.317-11 1.5l6 1c-7.025 1.18-13.692 3.68-20 7.5 4.259-4.151 8.592-8.318 13-12.5a30.126 30.126 0 0 1 6-3.5z"/><path style="opacity:1" fill="#918d81" d="M309.5 229.5v1c-5.263 1.381-10.096 3.714-14.5 7-2.301-1.367-4.801-2.034-7.5-2 .17 1.322-.163 2.489-1 3.5a81.686 81.686 0 0 0-13.5 4.5c-3.69-.561-7.023-1.894-10-4-16.827 4.561-33.993 6.728-51.5 6.5-1.937-.122-3.27-.955-4-2.5 5.863 1.73 11.863 2.23 18 1.5a212.232 212.232 0 0 0 37-8.5 81.263 81.263 0 0 0 11.5 5 311.238 311.238 0 0 0 13.5-9.5 20.555 20.555 0 0 1 8.5 1.5c4.086-2.414 8.586-3.748 13.5-4z"/><path style="opacity:1" fill="#918b7e" d="M207.5 243.5c-4.157-1.521-8.49-2.354-13-2.5-7.033-5.203-14.033-4.87-21 1a75.537 75.537 0 0 1-14 5 100.2 100.2 0 0 1-20 0c-2.348-2.293-4.515-2.46-6.5-.5-.667-2.667-1.333-2.667-2 0-2.322-1.337-3.822-2.837-4.5-4.5a77.488 77.488 0 0 0-12-2.5c-12.877 5.039-26.21 6.706-40 5-1.385-.802-1.218-1.469.5-2a61.13 61.13 0 0 0 18.5.5c7.135-3.712 14.635-6.212 22.5-7.5 7.301-.904 12.634 1.762 16 8a23.423 23.423 0 0 0 2.5-6c.617-.111 1.117-.444 1.5-1-.068 1.842.099 3.509.5 5 .97 1.129 2.136 2.129 3.5 3 14.711 1.528 28.211-1.639 40.5-9.5l4-.5a211.866 211.866 0 0 0 18 5.5c2.084.697 3.751 1.864 5 3.5z"/><path style="opacity:1" fill="#967d66" d="M45.5 232.5c-.172.992.162 1.658 1 2l-1 2a30.126 30.126 0 0 0-6 3.5 1333.943 1333.943 0 0 0-13 12.5c-.992-.172-1.658.162-2 1-1.528-.017-2.028-.684-1.5-2a134.718 134.718 0 0 1 22.5-19z"/><path style="opacity:1" fill="#7e776a" d="M309.5 230.5v8c-3.83.313-7.163 1.813-10 4.5-5.721-.315-10.721 1.351-15 5-3.652.897-7.319 1.73-11 2.5-3.552-.7-6.718-2.033-9.5-4-5.762.374-11.262 1.374-16.5 3-12.005.167-24.005 0-36-.5-10.777-3.388-21.777-5.054-33-5-5.643 3.885-11.976 6.218-19 7-5.538.236-11.038.736-16.5 1.5a45.254 45.254 0 0 1-9-3c-2.859.356-4.359 2.023-4.5 5v1c-1.364 1.72-2.364 3.72-3 6-.825.886-1.825 1.219-3 1a49.783 49.783 0 0 1 3-9c2.537-4.264 1.704-5.598-2.5-4-1.572-2.063-3.405-2.729-5.5-2a31.71 31.71 0 0 0-6-2c-8.258 1.29-16.757 2.623-25.5 4-3.394-.956-6.894-1.289-10.5-1l-2-1v-3c13.79 1.706 27.123.039 40-5a77.488 77.488 0 0 1 12 2.5c.678 1.663 2.178 3.163 4.5 4.5.667-2.667 1.333-2.667 2 0 1.985-1.96 4.152-1.793 6.5.5a100.2 100.2 0 0 0 20 0 75.537 75.537 0 0 0 14-5c6.967-5.87 13.967-6.203 21-1 4.51.146 8.843.979 13 2.5.73 1.545 2.063 2.378 4 2.5 17.507.228 34.673-1.939 51.5-6.5 2.977 2.106 6.31 3.439 10 4a81.686 81.686 0 0 1 13.5-4.5c.837-1.011 1.17-2.178 1-3.5 2.699-.034 5.199.633 7.5 2 4.404-3.286 9.237-5.619 14.5-7z"/><path style="opacity:1" fill="#696357" d="M126.5 253.5c-1.96-.638-3.793-.638-5.5 0-.324-2.069-1.158-2.402-2.5-1a294.207 294.207 0 0 0-6-3c-4.663.507-9.33 1.84-14 4-6.805-.13-13.471-.13-20 0-1.037-1.43-1.704-3.097-2-5 3.606-.289 7.106.044 10.5 1 8.743-1.377 17.242-2.71 25.5-4a31.71 31.71 0 0 1 6 2c2.095-.729 3.928-.063 5.5 2 4.204-1.598 5.037-.264 2.5 4z"/><path style="opacity:1" fill="#6f685b" d="M247.5 249.5c-2.469.817-5.135 1.317-8 1.5a557.678 557.678 0 0 1-30.5.5c-1.319-1.987-3.152-3.154-5.5-3.5a46.745 46.745 0 0 1-8-1.5 3.647 3.647 0 0 0-1.5 1 9.201 9.201 0 0 0-4.5-2 129.029 129.029 0 0 0-28.5 9c-10.629 1.072-21.129 1.072-31.5 0 .141-2.977 1.641-4.644 4.5-5a45.254 45.254 0 0 0 9 3 171.862 171.862 0 0 1 16.5-1.5c7.024-.782 13.357-3.115 19-7 11.223-.054 22.223 1.612 33 5 11.995.5 23.995.667 36 .5z"/><path style="opacity:1" fill="#514c40" d="M309.5 241.5v5c-3.441 1.526-7.108 2.526-11 3a65.12 65.12 0 0 1-19.5 10 82.905 82.905 0 0 0-20-4 1882.525 1882.525 0 0 1-36.5 3.5 16.2 16.2 0 0 1-3.5 1.5c-4.797-1.368-9.964-2.534-15.5-3.5-1.249-1.824-2.415-1.657-3.5.5-5.187-1.03-10.187-1.03-15 0-6.68 2.671-13.18 4.838-19.5 6.5 11.467 4.651 23.467 6.818 36 6.5 9.637-.667 19.304-1.333 29-2a233.58 233.58 0 0 0 31 5.5c15.99 1.351 31.99 2.517 48 3.5v4a815.326 815.326 0 0 1-75-8.5 6601.847 6601.847 0 0 0-53-1.5c-18.808-4.093-37.808-5.093-57-3a19.22 19.22 0 0 0-1-6c1.175.219 2.175-.114 3-1 .636-2.28 1.636-4.28 3-6 2.429 2.562 4.929 3.228 7.5 2a4.457 4.457 0 0 0 1.5 2c4.333-1.333 8.667-1.333 13 0 3.183-1.348 6.349-1.681 9.5-1 .324-2.069 1.158-2.402 2.5-1 7.23-3.39 14.73-6.057 22.5-8 9.47 1.238 19.47 2.905 30 5a411.933 411.933 0 0 1 38-3c2.424.03 4.757.363 7 1 3.365-2.295 6.532-1.795 9.5 1.5 4.984 1.921 9.984 1.921 15 0a91.709 91.709 0 0 1 24-12.5z"/><path style="opacity:1" fill="#3d3930" d="M76.5 256.5a36.082 36.082 0 0 0 4 7v3c-19.697 3.521-39.697 4.854-60 4 8.871-.692 17.871-1.359 27-2 5.348.597 10.681.097 16-1.5 3.562-2.843 3.062-5.343-1.5-7.5-1.532-1.195-3.032-1.195-4.5 0a154.729 154.729 0 0 1-9-4c-2.144 1.453-3.977 1.12-5.5-1-6.415 1.316-12.248 3.316-17.5 6l-2-1a17.883 17.883 0 0 1-6 3 99.77 99.77 0 0 1 8-7.5 148.168 148.168 0 0 1 31-6.5c6.684 2.677 13.35 5.344 20 8z"/><path style="opacity:1" fill="#635e52" d="M309.5 238.5v3a91.709 91.709 0 0 0-24 12.5c-5.016 1.921-10.016 1.921-15 0-2.968-3.295-6.135-3.795-9.5-1.5a26.718 26.718 0 0 0-7-1 411.933 411.933 0 0 0-38 3c-10.53-2.095-20.53-3.762-30-5a123.377 123.377 0 0 0-22.5 8c-1.342-1.402-2.176-1.069-2.5 1-3.151-.681-6.317-.348-9.5 1-4.333-1.333-8.667-1.333-13 0a4.457 4.457 0 0 1-1.5-2c-2.571 1.228-5.071.562-7.5-2v-1c10.371 1.072 20.871 1.072 31.5 0a129.029 129.029 0 0 1 28.5-9 9.201 9.201 0 0 1 4.5 2 3.647 3.647 0 0 1 1.5-1c2.609.73 5.276 1.23 8 1.5 2.348.346 4.181 1.513 5.5 3.5 9.962.115 20.129-.052 30.5-.5 2.865-.183 5.531-.683 8-1.5 5.238-1.626 10.738-2.626 16.5-3 2.782 1.967 5.948 3.3 9.5 4 3.681-.77 7.348-1.603 11-2.5 4.279-3.649 9.279-5.315 15-5 2.837-2.687 6.17-4.187 10-4.5z"/><path style="opacity:1" fill="#34312a" d="M20.5 270.5c-2.892-.903-5.892-1.236-9-1 .53-3.533 2.53-5.867 6-7a17.883 17.883 0 0 0 6-3l2 1c5.252-2.684 11.085-4.684 17.5-6 1.523 2.12 3.356 2.453 5.5 1a154.729 154.729 0 0 0 9 4c1.468-1.195 2.968-1.195 4.5 0 4.562 2.157 5.062 4.657 1.5 7.5-5.319 1.597-10.652 2.097-16 1.5-9.129.641-18.129 1.308-27 2z"/><path style="opacity:1" fill="#4c463b" d="M126.5 253.5a49.783 49.783 0 0 0-3 9c-1.548.321-2.215 1.321-2 3-1.174 1.014-1.84 2.347-2 4a174.621 174.621 0 0 1-32 2l-3.5-7c-1.011-.837-2.178-1.17-3.5-1a31.12 31.12 0 0 1 2-2l-4-8c6.529-.13 13.195-.13 20 0 4.67-2.16 9.337-3.493 14-4 1.977.96 3.977 1.96 6 3 1.342-1.402 2.176-1.069 2.5 1 1.707-.638 3.54-.638 5.5 0z"/><path style="opacity:1" fill="#91745b" d="M73.5 247.5h1l2 1c.296 1.903.963 3.57 2 5l4 8a31.12 31.12 0 0 0-2 2 36.082 36.082 0 0 1-4-7c-.489-1.495-1.155-2.829-2-4 .237-1.291-.096-2.291-1-3v-2z"/><path style="opacity:1" fill="#3a372e" d="M309.5 247.5v2a95.633 95.633 0 0 0-20 12.5 62.068 62.068 0 0 0-8.5 2.5c-6.306-.797-12.306-1.797-18-3a52.146 52.146 0 0 1-6.5 5.5c.444 1.762.944 1.595 1.5-.5 2.481 2.983 5.148 3.649 8 2 2 2.667 4 2.667 6 0 3.016.639 5.85.639 8.5 0 3.905 1.679 8.239 3.345 13 5a3.647 3.647 0 0 0 1.5-1c4.797 1.853 9.63 2.519 14.5 2v3c-16.01-.983-32.01-2.149-48-3.5a233.58 233.58 0 0 1-31-5.5c-9.696.667-19.363 1.333-29 2-3.25-1.525-6.75-2.525-10.5-3l-1 1c-5.996-2.02-5.829-3.52.5-4.5-.84-1.666-.34-1.833 1.5-.5l3-2c2.349.016 4.682.016 7 0 1.657.984 3.323 1.984 5 3 3.803-.736 7.803-.736 12 0 6.679-.353 13.012-1.687 19-4l4 2c5.871-.533 11.871-1.533 18-3 7.957 1.101 16.124 1.601 24.5 1.5 5.246-1.781 9.58-4.781 13-9 4.634-.042 8.634-1.542 12-4.5z"/><path style="opacity:1" fill="#302f29" d="M309.5 249.5v25c-4.87.519-9.703-.147-14.5-2a3.647 3.647 0 0 1-1.5 1c-4.761-1.655-9.095-3.321-13-5-2.65.639-5.484.639-8.5 0-2 2.667-4 2.667-6 0-2.852 1.649-5.519.983-8-2-.556 2.095-1.056 2.262-1.5.5a52.146 52.146 0 0 0 6.5-5.5c5.694 1.203 11.694 2.203 18 3a62.068 62.068 0 0 1 8.5-2.5 95.633 95.633 0 0 1 20-12.5z"/><path style="opacity:1" fill="#413d33" d="M309.5 246.5v1c-3.366 2.958-7.366 4.458-12 4.5-3.42 4.219-7.754 7.219-13 9-8.376.101-16.543-.399-24.5-1.5-6.129 1.467-12.129 2.467-18 3l-4-2c-5.988 2.313-12.321 3.647-19 4-4.197-.736-8.197-.736-12 0a660.832 660.832 0 0 0-5-3c-2.318.016-4.651.016-7 0l-3 2c-1.84-1.333-2.34-1.166-1.5.5-6.329.98-6.496 2.48-.5 4.5l1-1c3.75.475 7.25 1.475 10.5 3-12.533.318-24.533-1.849-36-6.5 6.32-1.662 12.82-3.829 19.5-6.5 4.813-1.03 9.813-1.03 15 0 1.085-2.157 2.251-2.324 3.5-.5 5.536.966 10.703 2.132 15.5 3.5a16.2 16.2 0 0 0 3.5-1.5 1882.525 1882.525 0 0 0 36.5-3.5 82.905 82.905 0 0 1 20 4 65.12 65.12 0 0 0 19.5-10c3.892-.474 7.559-1.474 11-3z"/><path style="opacity:1" fill="#867c67" d="M121.5 265.5c1.955.947 2.289 2.281 1 4 12.978.299 25.978.466 39 .5a547.717 547.717 0 0 1 22 3.5c1.53.14 2.53.807 3 2a82.73 82.73 0 0 0-14-1c-3.563-1.817-7.563-2.983-12-3.5-13.52-1.491-26.687.009-39.5 4.5-1.749-.248-2.582-1.248-2.5-3a5.727 5.727 0 0 1 1-3c.16-1.653.826-2.986 2-4z"/><path style="opacity:1" fill="#4d483d" d="M74.5 252.5c.845 1.171 1.511 2.505 2 4a22270.16 22270.16 0 0 1-20-8 148.168 148.168 0 0 0-31 6.5 99.77 99.77 0 0 0-8 7.5c-3.47 1.133-5.47 3.467-6 7 3.108-.236 6.108.097 9 1 20.303.854 40.303-.479 60-4 .901.79 1.568 1.79 2 3-25.393 3.384-51.06 4.884-77 4.5-.916.278-1.582.778-2 1.5-1.105 1.1-2.438 1.767-4 2v-4a41.176 41.176 0 0 0 10-7l15-13c.342-.838 1.008-1.172 2-1 6.308-3.82 12.975-6.32 20-7.5l-6-1c4.019-1.183 7.685-1.683 11-1.5a352.363 352.363 0 0 1 23 10z"/><path style="opacity:1" fill="#a19782" d="M172.5 274.5a198.764 198.764 0 0 0-44 .5 54.628 54.628 0 0 1-7 2c-1.824.66-3.157 1.827-4 3.5a45.777 45.777 0 0 0-3 7 36.602 36.602 0 0 0-4 7l-2 1a20.69 20.69 0 0 1 1-5 38.715 38.715 0 0 0 2.5-5c.914 1.154 1.747.987 2.5-.5a4.457 4.457 0 0 1-2-1.5 6.846 6.846 0 0 0 1-4c-7.3.727-14.633 1.227-22 1.5 1.134 1.016.8 1.683-1 2 2.095.556 2.262 1.056.5 1.5-1.03-.336-1.53-1.003-1.5-2l-1-2a31.12 31.12 0 0 1 2-2 183.587 183.587 0 0 0 23-3c1.874-.11 3.374.556 4.5 2 .3-1.566-.2-2.899-1.5-4l2-1c-.082 1.752.751 2.752 2.5 3 12.813-4.491 25.98-5.991 39.5-4.5 4.437.517 8.437 1.683 12 3.5z"/><path style="opacity:1" fill="#5c584c" d="M82.5 269.5c.838.342 1.172 1.008 1 2-26.406 3.364-53.072 4.697-80 4 .418-.722 1.084-1.222 2-1.5 25.94.384 51.607-1.116 77-4.5z"/><path style="opacity:1" fill="#6b6453" d="M119.5 269.5a5.727 5.727 0 0 0-1 3l-2 1a110.434 110.434 0 0 1-28 0 44.043 44.043 0 0 1-1-2 174.621 174.621 0 0 0 32-2z"/><path style="opacity:1" fill="#756f61" d="M83.5 271.5a19.62 19.62 0 0 1 2 3.5 1022.329 1022.329 0 0 1-86 4.5v-2c1.562-.233 2.895-.9 4-2 26.928.697 53.594-.636 80-4z"/><path style="opacity:1" fill="#726b5a" d="M123.5 262.5a19.22 19.22 0 0 1 1 6c19.192-2.093 38.192-1.093 57 3a378.853 378.853 0 0 0 21 3.5c16.683.286 33.35.953 50 2a739.855 739.855 0 0 0 38 5c6.05 2.371 12.383 3.871 19 4.5v1a178.717 178.717 0 0 1-39-6.5 889.888 889.888 0 0 0-79-5.5h-5c-.47-1.193-1.47-1.86-3-2a547.717 547.717 0 0 0-22-3.5 1909.663 1909.663 0 0 1-39-.5c1.289-1.719.955-3.053-1-4-.215-1.679.452-2.679 2-3z"/><path style="opacity:1" fill="#615b4d" d="M181.5 271.5c17.667.429 35.333.929 53 1.5a815.326 815.326 0 0 0 75 8.5v5c-6.617-.629-12.95-2.129-19-4.5a739.855 739.855 0 0 1-38-5 1095.922 1095.922 0 0 0-50-2 378.853 378.853 0 0 1-21-3.5z"/><path style="opacity:1" fill="#857d6b" d="M191.5 275.5a889.888 889.888 0 0 1 79 5.5 178.717 178.717 0 0 0 39 6.5v6a449531.08 449531.08 0 0 1-64-13.5 874.812 874.812 0 0 1-46-2c-2.957-.279-5.623-1.113-8-2.5z"/><path style="opacity:1" fill="#8c8475" d="M80.5 263.5c1.322-.17 2.489.163 3.5 1l3.5 7c.304.65.637 1.317 1 2a110.434 110.434 0 0 0 28 0c1.3 1.101 1.8 2.434 1.5 4-1.126-1.444-2.626-2.11-4.5-2a183.587 183.587 0 0 1-23 3 31.12 31.12 0 0 0-2 2c-3.406-1.253-7.073-1.92-11-2a1258.476 1258.476 0 0 1-78 3v-2a1022.329 1022.329 0 0 0 86-4.5 19.62 19.62 0 0 0-2-3.5c.172-.992-.162-1.658-1-2-.432-1.21-1.099-2.21-2-3v-3z"/><path style="opacity:1" fill="#dad4c2" d="M309.5 312.5v10a1846.129 1846.129 0 0 1-40.5-14h-6c-7.997-3.542-16.164-5.542-24.5-6-9.796-3.16-19.63-4.827-29.5-5-9.967-2.44-19.134-5.94-27.5-10.5-13.33-4.476-26.997-6.143-41-5-8.876 1.95-16.876 5.616-24 11a20.093 20.093 0 0 1-6 1.5 36.602 36.602 0 0 1 4-7 142.623 142.623 0 0 1 25-8.5 100.2 100.2 0 0 1 20 0 310.448 310.448 0 0 1 24 5 600.768 600.768 0 0 0 46.5 13.5c7.11-1.506 13.943-.672 20.5 2.5a299.697 299.697 0 0 1 59 12.5z"/><path style="opacity:1" fill="#cdc8b6" d="M136.5 276.5c23.122-.987 45.456 2.513 67 10.5 15.888 1.684 31.388 4.851 46.5 9.5 1.169.509 2.002 1.342 2.5 2.5 8.062 1.828 16.062 2.494 24 2 6.1 1.548 12.1 3.215 18 5a6.978 6.978 0 0 1 3.5 2.5c3.621-.142 7.455-.142 11.5 0v4a299.697 299.697 0 0 0-59-12.5c-6.557-3.172-13.39-4.006-20.5-2.5a600.768 600.768 0 0 1-46.5-13.5 310.448 310.448 0 0 0-24-5 100.2 100.2 0 0 0-20 0 142.623 142.623 0 0 0-25 8.5 45.777 45.777 0 0 1 3-7 190.17 190.17 0 0 1 19-4z"/><path style="opacity:1" fill="#99927f" d="M172.5 274.5a82.73 82.73 0 0 1 14 1h5c2.377 1.387 5.043 2.221 8 2.5a874.812 874.812 0 0 0 46 2c21.359 4.507 42.692 9.007 64 13.5v5a2152.523 2152.523 0 0 0-82-17.5c-18.787.429-37.12-1.738-55-6.5z"/><path style="opacity:1" fill="#a5a195" d="m88.5 280.5 1 2a2567.037 2567.037 0 0 0-90 8v-9a1258.476 1258.476 0 0 0 78-3c3.927.08 7.594.747 11 2z"/><path style="opacity:1" fill="#b9b3a4" d="M109.5 290.5c-.25-1.422-1.083-2.422-2.5-3a34.041 34.041 0 0 1-7.5 1.5 7.248 7.248 0 0 0-2 2.5 21.032 21.032 0 0 1 2 7c-1.322-.17-2.489.163-3.5 1a2.427 2.427 0 0 1-.5-2c.543-.06.876-.393 1-1a18.665 18.665 0 0 0-3-5c-.17-1.322.163-2.489 1-3.5-3.177-1.945-6.677-2.779-10.5-2.5-4.854.294-9.688.794-14.5 1.5-7.669 4.643-15.669 5.809-24 3.5a90724.3 90724.3 0 0 1-46 2v-2a2567.037 2567.037 0 0 1 90-8c-.03.997.47 1.664 1.5 2 1.762-.444 1.595-.944-.5-1.5 1.8-.317 2.134-.984 1-2 7.367-.273 14.7-.773 22-1.5a6.846 6.846 0 0 1-1 4 4.457 4.457 0 0 0 2 1.5c-.753 1.487-1.586 1.654-2.5.5a38.715 38.715 0 0 1-2.5 5z"/><path style="opacity:1" fill="#d9d3c2" d="M109.5 290.5a20.69 20.69 0 0 0-1 5 43.986 43.986 0 0 1-5 7c-1.716-1.049-3.049-2.382-4-4a21.032 21.032 0 0 0-2-7 7.248 7.248 0 0 1 2-2.5 34.041 34.041 0 0 0 7.5-1.5c1.417.578 2.25 1.578 2.5 3z"/><path style="opacity:1" fill="#f6f0df" d="M249.5 380.5h-11a771.05 771.05 0 0 1 4-9c-.941.011-1.608-.489-2-1.5l1.5-4.5c.763 2.563 1.263 2.563 1.5 0a38.345 38.345 0 0 0-5-5.5l4-2c-1.103-1.68-.77-3.18 1-4.5a6.802 6.802 0 0 0-3-1.5c1.26-1.113 2.427-1.28 3.5-.5a15.256 15.256 0 0 1 1.5-4.5c-1.154-.914-.987-1.747.5-2.5l1 2a11.333 11.333 0 0 1 1.5-3.5c-1.017-1.049-1.184-2.216-.5-3.5 1.242-2.041 3.075-3.207 5.5-3.5-1.599-1.786-2.433-3.953-2.5-6.5a380.298 380.298 0 0 0-16.5-8 3.647 3.647 0 0 0-1.5 1c-.442-2.179-1.442-2.845-3-2-7.066-2.564-13.732-5.23-20-8h-5a4.934 4.934 0 0 1-.5-3c-2.698.05-4.864-.95-6.5-3-2.056.702-3.889.035-5.5-2a3.647 3.647 0 0 0-1.5 1c-1.337-1.504-3.004-2.504-5-3l-1 1c-3.038-2.429-6.371-3.095-10-2a36.824 36.824 0 0 0-11-5c-4.781.369-9.447.369-14 0a523.894 523.894 0 0 1-15.5 2.5 250.932 250.932 0 0 1-23 13 9.454 9.454 0 0 0-1.5 2.5l-1-1a4.934 4.934 0 0 0-.5 3c-1.823-2.641-3.157-5.641-4-9 3.15-.382 5.817-1.716 8-4 1.342 1.402 2.176 1.069 2.5-1l1 1c3.628-2.319 7.295-4.652 11-7l1 1c7.217-4.048 14.55-5.715 22-5l1-2a432.46 432.46 0 0 1 16.5 4 3.647 3.647 0 0 0 1.5-1c3.983 1.84 7.65 3.507 11 5a3.647 3.647 0 0 1 1.5-1 970.45 970.45 0 0 1 49.5 16c2.499-.6 4.499.4 6 3 2.089-.245 4.089-.245 6 0a831.685 831.685 0 0 1 20.5 9c2.184-.608 4.184.059 6 2a3.647 3.647 0 0 0 1.5-1c1.015 2.602 2.848 4.435 5.5 5.5-1.333.667-1.333 1.333 0 2-1.82 1.805-2.986 3.972-3.5 6.5-.324-2.069-1.158-2.402-2.5-1a48.165 48.165 0 0 0-2.5 5c-.718-.951-1.551-1.117-2.5-.5-1.333.667-1.333 1.333 0 2-.971 1.204-1.971 1.704-3 1.5 1.109 1.714.442 2.381-2 2-.239 1.967.094 3.801 1 5.5-3.631 3.02-5.465 6.854-5.5 11.5l2-2c-.148 1.325.018 2.492.5 3.5-4.523.287-5.523 1.953-3 5a11.494 11.494 0 0 1-5 3.5c1.289 1.719.955 3.053-1 4z"/><path style="opacity:1" fill="#c5c3b7" d="M93.5 291.5c-5.015-.35-9.848.317-14.5 2a3.944 3.944 0 0 0-2-1c-7.309 2.297-14.475 3.964-21.5 5a3.647 3.647 0 0 1-1.5-1c-7.264 2.077-14.597 2.743-22 2l-2 2c-4.623.058-9.29.058-14 0a11.296 11.296 0 0 0-4 2 48.989 48.989 0 0 0-8-1l-1 2c-1.011-.837-2.178-1.17-3.5-1v-10a90724.3 90724.3 0 0 0 46-2c8.331 2.309 16.331 1.143 24-3.5a171.113 171.113 0 0 1 14.5-1.5c3.823-.279 7.323.555 10.5 2.5-.837 1.011-1.17 2.178-1 3.5z"/><path style="opacity:1" fill="#aea896" d="M172.5 274.5c17.88 4.762 36.213 6.929 55 6.5a2152.523 2152.523 0 0 1 82 17.5v4a336.557 336.557 0 0 0-30-4.5 626.277 626.277 0 0 1-39.5-11.5l-3 1a204.868 204.868 0 0 0-37.5-4.5c-20.618-6.412-41.618-8.578-63-6.5a190.17 190.17 0 0 0-19 4c.843-1.673 2.176-2.84 4-3.5a54.628 54.628 0 0 0 7-2 198.764 198.764 0 0 1 44-.5z"/><path style="opacity:1" fill="#bdb8a7" d="M136.5 276.5c21.382-2.078 42.382.088 63 6.5a204.868 204.868 0 0 1 37.5 4.5l3-1a626.277 626.277 0 0 0 39.5 11.5 336.557 336.557 0 0 1 30 4.5v6a155.158 155.158 0 0 0-11.5 0 6.978 6.978 0 0 0-3.5-2.5c-5.9-1.785-11.9-3.452-18-5-7.938.494-15.938-.172-24-2-.498-1.158-1.331-1.991-2.5-2.5-15.112-4.649-30.612-7.816-46.5-9.5-21.544-7.987-43.878-11.487-67-10.5z"/><path style="opacity:1" fill="#dad8cc" d="M93.5 291.5a18.665 18.665 0 0 1 3 5c-.124.607-.457.94-1 1a58.153 58.153 0 0 0-15.5 2l-1-1a290.742 290.742 0 0 0-14 7c-5.13-.714-9.797.619-14 4-2.09-1.291-3.424-.624-4 2l-1-1c.077 1.238-.09 2.238-.5 3a4.451 4.451 0 0 1-1.5-2 6.807 6.807 0 0 1-1.5 3c-1.57-.194-3.07-.194-4.5 0-.52 2.992-2.02 3.992-4.5 3-1.634.468-2.8 1.468-3.5 3l-1-2c-.84 2.964-1.84 3.297-3 1-1.17 2.116-2.67 2.782-4.5 2a15.645 15.645 0 0 1-4 2.5c1.333 1.333 1.333 2.667 0 4a12.174 12.174 0 0 1 4.5 3.5c1.657.671 3.657.671 6 0 9.904 5.206 19.07 11.206 27.5 18 .512 3.342 2.512 5.176 6 5.5-.55 1.398-.884 2.732-1 4 .95.617 1.782.451 2.5-.5.72 1.612.554 3.112-.5 4.5 2.189.677 2.522 1.844 1 3.5l1.5 3 1-1c.233 2.28 1.066 4.28 2.5 6-1.319 2.032-1.319 4.032 0 6h-20a5.577 5.577 0 0 1 1-3l-3-4a3.646 3.646 0 0 1 1-1.5c-3.292-2.249-5.625-5.249-7-9 .845-1.558.178-2.558-2-3 .84-1.666.34-1.833-1.5-.5a14.506 14.506 0 0 1-5-4l-1 1c-2.211-3.075-4.878-4.742-8-5l-1-3c-1.666.84-1.833.34-.5-1.5a11.339 11.339 0 0 1-3.5-1.5l-1 1c-2.774-2.858-5.774-4.525-9-5a105.03 105.03 0 0 1-8.5-5v-34c1.322-.17 2.489.163 3.5 1l1-2c2.592.101 5.259.434 8 1a11.296 11.296 0 0 1 4-2c4.71.058 9.377.058 14 0l2-2c7.403.743 14.736.077 22-2 .414.457.914.791 1.5 1 7.025-1.036 14.191-2.703 21.5-5a3.944 3.944 0 0 1 2 1c4.652-1.683 9.485-2.35 14.5-2z"/><path style="opacity:1" fill="#f1ebde" d="M100.5 303.5c1.051.722 1.718 1.722 2 3 .175 2.121-.159 4.121-1 6-.476 2.571-1.81 4.571-4 6-1.904.238-3.238 1.238-4 3-6.194 4.743-8.36 11.076-6.5 19a23.978 23.978 0 0 0 2.5 6c2.137 3.473 5.137 5.806 9 7 4.108 1.367 8.108 1.034 12-1a373.863 373.863 0 0 1-2 12.5 8.43 8.43 0 0 0 4 .5c-.087 3.098.413 3.432 1.5 1 1.425 4.758 1.925 9.425 1.5 14h-17a23.978 23.978 0 0 1-2.5-6l-1 1a19.897 19.897 0 0 1-3.5-4c-1.465 1.109-2.465.609-3-1.5l1-1a4.934 4.934 0 0 0-3-.5c.514-2.012.68-4.012.5-6l-1-1c-.423 1.456-1.256 1.956-2.5 1.5.799-1.749.132-3.082-2-4 1.246-6.756-.421-12.756-5-18 2.429-.451 2.596-1.285.5-2.5-2.454 1.513-4.12.846-5-2a3.647 3.647 0 0 1-1.5 1c-2.587-3.831-4.92-7.164-7-10 1.08-3.976 3.414-5.476 7-4.5a65.016 65.016 0 0 0 6-6c5.14-3.306 10.14-5.973 15-8-1.473-.71-2.14-1.876-2-3.5 3.944.387 7.61-.28 11-2z"/><path style="opacity:1" fill="#b69a85" d="m108.5 295.5-1 6a18.748 18.748 0 0 1-4 5h-1c-.282-1.278-.949-2.278-2-3a5.727 5.727 0 0 0-1-3v-2c.951 1.618 2.284 2.951 4 4a43.986 43.986 0 0 0 5-7z"/><path style="opacity:1" fill="#efe9d9" d="M285.5 380.5h-36c1.955-.947 2.289-2.281 1-4a11.494 11.494 0 0 0 5-3.5c-2.523-3.047-1.523-4.713 3-5-.482-1.008-.648-2.175-.5-3.5l-2 2c.035-4.646 1.869-8.48 5.5-11.5-.906-1.699-1.239-3.533-1-5.5 2.442.381 3.109-.286 2-2 1.029.204 2.029-.296 3-1.5-1.333-.667-1.333-1.333 0-2 .949-.617 1.782-.451 2.5.5a48.165 48.165 0 0 1 2.5-5c1.342-1.402 2.176-1.069 2.5 1 .514-2.528 1.68-4.695 3.5-6.5-1.333-.667-1.333-1.333 0-2-2.652-1.065-4.485-2.898-5.5-5.5a3.647 3.647 0 0 1-1.5 1c-1.816-1.941-3.816-2.608-6-2a831.685 831.685 0 0 0-20.5-9c-1.911-.245-3.911-.245-6 0-1.501-2.6-3.501-3.6-6-3a970.45 970.45 0 0 0-49.5-16 3.647 3.647 0 0 0-1.5 1 900.114 900.114 0 0 1-11-5 3.647 3.647 0 0 1-1.5 1 432.46 432.46 0 0 0-16.5-4l-1 2c-7.45-.715-14.783.952-22 5l-1-1a3358.308 3358.308 0 0 0-11 7l-1-1c-.324 2.069-1.158 2.402-2.5 1-2.183 2.284-4.85 3.618-8 4-.667 0-1-.333-1-1a18.748 18.748 0 0 0 4-5c10.394-3.353 20.727-7.853 31-13.5 14.774-3.536 28.441-1.536 41 6a164.216 164.216 0 0 1 27.5 8.5c4.792.895 9.458.895 14 0a202.4 202.4 0 0 0 16.5 5 3.647 3.647 0 0 0 1.5-1 449.597 449.597 0 0 0 46.5 15 3.647 3.647 0 0 0 1.5-1 432.143 432.143 0 0 0 7 5l3-1a23.643 23.643 0 0 1 7.5 7 3.647 3.647 0 0 0 1.5-1c.318 1.561 1.151 2.728 2.5 3.5-2.642.563-3.309 2.063-2 4.5a51.064 51.064 0 0 1-4 5.5 3.943 3.943 0 0 1 1 2c-.84 1.171-1.673 2.338-2.5 3.5l-1-1a66.87 66.87 0 0 1-1.5 5.5c.259 1.261.926 2.261 2 3a1093.768 1093.768 0 0 0-10 14c2.186.604 2.352 1.77.5 3.5-1.011.837-2.178 1.17-3.5 1-.17 1.322.163 2.489 1 3.5-1.237.232-2.237.732-3 1.5z"/><path style="opacity:1" fill="#fdf8e5" d="M238.5 380.5h-44c1.975-2.343 3.641-5.01 5-8-.569-2.737-2.236-4.237-5-4.5a7.248 7.248 0 0 0 2-2.5c-.957-4.112-1.291-8.446-1-13a47.79 47.79 0 0 0 6-10l-2-1c1.937-2.829 2.937-5.996 3-9.5-.175-1.658-.842-2.991-2-4 1.801-.317 2.134-.984 1-2-1.049-.492-2.049-.326-3 .5a50.562 50.562 0 0 0-12.5-8 3.647 3.647 0 0 1-1.5 1c-3.829-2.095-7.496-3.762-11-5a35.193 35.193 0 0 0-4.5 1l-1-2c-2 1.333-4 1.333-6 0a70.206 70.206 0 0 0-15 3 3.943 3.943 0 0 1-2-1 219.24 219.24 0 0 1-12.5 6.5c-2.085 1.743-3.752 3.743-5 6a269.265 269.265 0 0 0 8 15.5c2.473.236 4.14 1.569 5 4a4.457 4.457 0 0 1-2 1.5c3.025.154 4.691 1.654 5 4.5 3.426-.15 3.759 1.016 1 3.5h-4c1.517 2.585 3.351 4.085 5.5 4.5 1.779-1.517 1.279-2.351-1.5-2.5 2.363-1.495 4.03-.662 5 2.5-.603 1.135-.936 2.135-1 3-1.354-1.684-3.021-2.184-5-1.5l3 1c-.951.718-1.117 1.551-.5 2.5 2.604-1.277 5.437-1.11 8.5.5 1.333.667 1.333 1.333 0 2 2.118.26 3.784 1.26 5 3l-1 1a20.826 20.826 0 0 1 3 7.5h-46c.425-4.575-.075-9.242-1.5-14-1.087 2.432-1.587 2.098-1.5-1a8.43 8.43 0 0 1-4-.5 373.863 373.863 0 0 0 2-12.5c9.439-5.223 12.939-13.223 10.5-24-2.137-6.307-6.304-10.307-12.5-12a4.934 4.934 0 0 1 .5-3l1 1a9.454 9.454 0 0 1 1.5-2.5 250.932 250.932 0 0 0 23-13 523.894 523.894 0 0 0 15.5-2.5c4.553.369 9.219.369 14 0a36.824 36.824 0 0 1 11 5c3.629-1.095 6.962-.429 10 2l1-1c1.996.496 3.663 1.496 5 3a3.647 3.647 0 0 1 1.5-1c1.611 2.035 3.444 2.702 5.5 2 1.636 2.05 3.802 3.05 6.5 3a4.934 4.934 0 0 0 .5 3h5c6.268 2.77 12.934 5.436 20 8 1.558-.845 2.558-.179 3 2a3.647 3.647 0 0 1 1.5-1 380.298 380.298 0 0 1 16.5 8c.067 2.547.901 4.714 2.5 6.5-2.425.293-4.258 1.459-5.5 3.5-.684 1.284-.517 2.451.5 3.5a11.333 11.333 0 0 0-1.5 3.5l-1-2c-1.487.753-1.654 1.586-.5 2.5a15.256 15.256 0 0 0-1.5 4.5c-1.073-.78-2.24-.613-3.5.5a6.802 6.802 0 0 1 3 1.5c-1.77 1.32-2.103 2.82-1 4.5l-4 2a38.345 38.345 0 0 1 5 5.5c-.237 2.563-.737 2.563-1.5 0l-1.5 4.5c.392 1.011 1.059 1.511 2 1.5a771.05 771.05 0 0 0-4 9z"/><path style="opacity:1" fill="#fefbea" d="M194.5 380.5h-33a20.826 20.826 0 0 0-3-7.5l1-1c-1.216-1.74-2.882-2.74-5-3 1.333-.667 1.333-1.333 0-2-3.063-1.61-5.896-1.777-8.5-.5-.617-.949-.451-1.782.5-2.5l-3-1c1.979-.684 3.646-.184 5 1.5.064-.865.397-1.865 1-3-.97-3.162-2.637-3.995-5-2.5 2.779.149 3.279.983 1.5 2.5-2.149-.415-3.983-1.915-5.5-4.5h4c2.759-2.484 2.426-3.65-1-3.5-.309-2.846-1.975-4.346-5-4.5a4.457 4.457 0 0 0 2-1.5c-.86-2.431-2.527-3.764-5-4a269.265 269.265 0 0 1-8-15.5c1.248-2.257 2.915-4.257 5-6a219.24 219.24 0 0 0 12.5-6.5 3.943 3.943 0 0 0 2 1 70.206 70.206 0 0 1 15-3c2 1.333 4 1.333 6 0l1 2a35.193 35.193 0 0 1 4.5-1c3.504 1.238 7.171 2.905 11 5a3.647 3.647 0 0 0 1.5-1 50.562 50.562 0 0 1 12.5 8c.951-.826 1.951-.992 3-.5 1.134 1.016.801 1.683-1 2 1.158 1.009 1.825 2.342 2 4-.063 3.504-1.063 6.671-3 9.5l2 1a47.79 47.79 0 0 1-6 10c-.291 4.554.043 8.888 1 13a7.248 7.248 0 0 1-2 2.5c2.764.263 4.431 1.763 5 4.5-1.359 2.99-3.025 5.657-5 8z"/><path style="opacity:1" fill="#fefdf1" d="M161.5 318.5c5.447 1.602 11.113 2.768 17 3.5 5.189 2.06 9.523 4.393 13 7-2.391.691-2.391 1.691 0 3-1.333 1-1.333 2 0 3a4.457 4.457 0 0 0-2 1.5c1.029-.204 2.029.296 3 1.5-1.544.29-2.877.956-4 2l2 1c-1.323 2.663-3.656 4.996-7 7 .116 1.268.449 2.602 1 4-3.856 1.659-6.856 3.659-9 6 2.123 1.194 4.457 1.86 7 2-.845 1.558-.179 2.558 2 3l-3 2.5c3.251 1.954 4.251 4.621 3 8l-1-2-6 3c-4.721-1.227-8.721-3.56-12-7 1.556-2.201 2.723-2.201 3.5 0 .614-5.058.114-9.725-1.5-14-2.767-2.208-5.767-3.041-9-2.5-1.134-1.016-.801-1.683 1-2a9.454 9.454 0 0 1-2.5-1.5c-.423 1.456-1.256 1.956-2.5 1.5-.14-1.264-.14-2.431 0-3.5-2.3 2.331-3.966 2.164-5-.5l1-1c-2.386-2.598-4.552-4.764-6.5-6.5-1.966-4.137-2.966-8.471-3-13 .414.457.914.791 1.5 1 5.868-3.867 12.201-6.2 19-7z"/><path style="opacity:1" fill="#653a1e" d="M93.5 321.5c.762-1.762 2.096-2.762 4-3a2.429 2.429 0 0 1 2 .5c-.95.718-1.117 1.551-.5 2.5l3-4c.853 1.625 1.853 1.958 3 1 3.068 1.799 4.902 4.466 5.5 8a35.193 35.193 0 0 0-4.5 1c-.833-1.5-2-2.667-3.5-3.5 1.249-1.824 2.415-1.657 3.5.5.268-2.09-.732-3.424-3-4-1.252 2.514-1.752 5.18-1.5 8-2.442-.146-3.11.687-2 2.5l-4 1 2 1c-1.444.781-2.777.614-4-.5-.879-3.552-.879-6.218 0-8 2.748-1.144 4.581-.144 5.5 3 .711-1.867.211-3.367-1.5-4.5-1.558-.21-2.891-.71-4-1.5z"/><path style="opacity:1" fill="#eae5d9" d="M99.5 300.5c.61.891.943 1.891 1 3-3.39 1.72-7.056 2.387-11 2-.14 1.624.527 2.79 2 3.5-4.86 2.027-9.86 4.694-15 8a65.016 65.016 0 0 1-6 6c-3.586-.976-5.92.524-7 4.5 2.08 2.836 4.413 6.169 7 10a3.647 3.647 0 0 0 1.5-1c.88 2.846 2.546 3.513 5 2 2.096 1.215 1.929 2.049-.5 2.5 4.579 5.244 6.246 11.244 5 18 2.132.918 2.799 2.251 2 4 1.244.456 2.077-.044 2.5-1.5l1 1c.18 1.988.014 3.988-.5 6a4.934 4.934 0 0 1 3 .5l-1 1c.535 2.109 1.535 2.609 3 1.5a19.897 19.897 0 0 0 3.5 4l1-1a23.978 23.978 0 0 0 2.5 6h-12c-1.075-2.581-2.742-4.747-5-6.5.713-1.343.38-2.676-1-4 .976-2.147.809-4.314-.5-6.5-.667-1.333-1.333-1.333-2 0-.065-2.383-.898-3.05-2.5-2-.12-3.229-1.453-6.229-4-9a73.984 73.984 0 0 0-11-10.5 59.092 59.092 0 0 0-11-7l1-1a14.759 14.759 0 0 1-3-4.5c-1.232-.645-2.565-.811-4-.5l3-2.5c-.346-1.196-.846-1.196-1.5 0-.687-3.471.313-3.805 3-1 .772-1.349 1.94-2.182 3.5-2.5l-1-1c1.607-1.049 2.273-2.549 2-4.5 3.602.033 6.602-1.301 9-4a3.647 3.647 0 0 1 1.5 1l14.5-8.5c1.867-.711 3.367-.211 4.5 1.5l2-4a3.944 3.944 0 0 0 2 1 44.136 44.136 0 0 1 13.5-4z"/><path style="opacity:1" fill="#e5e0d0" d="M309.5 322.5v58h-24c.763-.768 1.763-1.268 3-1.5-.837-1.011-1.17-2.178-1-3.5 1.322.17 2.489-.163 3.5-1 1.852-1.73 1.686-2.896-.5-3.5 3.272-4.658 6.605-9.325 10-14-1.074-.739-1.741-1.739-2-3a66.87 66.87 0 0 0 1.5-5.5l1 1c.827-1.162 1.66-2.329 2.5-3.5a3.943 3.943 0 0 0-1-2 51.064 51.064 0 0 0 4-5.5c-1.309-2.437-.642-3.937 2-4.5-1.349-.772-2.182-1.939-2.5-3.5a3.647 3.647 0 0 1-1.5 1 23.643 23.643 0 0 0-7.5-7l-3 1a432.143 432.143 0 0 1-7-5 3.647 3.647 0 0 1-1.5 1 449.597 449.597 0 0 1-46.5-15 3.647 3.647 0 0 1-1.5 1 202.4 202.4 0 0 1-16.5-5c-4.542.895-9.208.895-14 0a164.216 164.216 0 0 0-27.5-8.5c-12.559-7.536-26.226-9.536-41-6-10.273 5.647-20.606 10.147-31 13.5l1-6 2-1a20.093 20.093 0 0 0 6-1.5c7.124-5.384 15.124-9.05 24-11 14.003-1.143 27.67.524 41 5 8.366 4.56 17.533 8.06 27.5 10.5 9.87.173 19.704 1.84 29.5 5 8.336.458 16.503 2.458 24.5 6h6a1846.129 1846.129 0 0 0 40.5 14z"/><path style="opacity:1" fill="#7d5433" d="M102.5 306.5h1c0 .667.333 1 1 1 .843 3.359 2.177 6.359 4 9 6.196 1.693 10.363 5.693 12.5 12 2.439 10.777-1.061 18.777-10.5 24-3.892 2.034-7.892 2.367-12 1-.8-1.542-1.134-3.208-1-5-3.273.029-3.94-1.304-2-4-.056-1.237-.556-2.237-1.5-3-1 1.333-2 1.333-3 0-.595 1.399-.428 2.732.5 4-.457.798-1.124 1.131-2 1a23.978 23.978 0 0 1-2.5-6c-1.86-7.924.306-14.257 6.5-19 1.109.79 2.442 1.29 4 1.5 1.711 1.133 2.211 2.633 1.5 4.5-.919-3.144-2.752-4.144-5.5-3-.879 1.782-.879 4.448 0 8 1.223 1.114 2.556 1.281 4 .5l-2-1 4-1c-1.11-1.813-.442-2.646 2-2.5-.252-2.82.248-5.486 1.5-8 2.268.576 3.268 1.91 3 4-1.085-2.157-2.251-2.324-3.5-.5 1.5.833 2.667 2 3.5 3.5a35.193 35.193 0 0 1 4.5-1c-.598-3.534-2.432-6.201-5.5-8-1.147.958-2.147.625-3-1l-3 4c-.617-.949-.45-1.782.5-2.5a2.429 2.429 0 0 0-2-.5c2.19-1.429 3.524-3.429 4-6 .841-1.879 1.175-3.879 1-6z"/><path style="opacity:1" fill="#c1ae92" d="M110.5 330.5c1.837.139 2.17.806 1 2-.798-.457-1.131-1.124-1-2z"/><path style="opacity:1" fill="#b9a487" d="M114.5 325.5a2.428 2.428 0 0 1 2 .5c-1.57 2.927-3.904 3.927-7 3 2.084-.697 3.751-1.864 5-3.5z"/><path style="opacity:1" fill="#e2d7c5" d="M101.5 312.5h4v3c-2.473.412-3.806-.588-4-3z"/><path style="opacity:1" fill="#ceccc0" d="M-.5 336.5a105.03 105.03 0 0 0 8.5 5c3.226.475 6.226 2.142 9 5l1-1a11.339 11.339 0 0 0 3.5 1.5c-1.333 1.84-1.166 2.34.5 1.5l1 3c3.122.258 5.789 1.925 8 5l1-1a14.506 14.506 0 0 0 5 4c1.84-1.333 2.34-1.166 1.5.5 2.178.442 2.845 1.442 2 3 1.375 3.751 3.708 6.751 7 9-.457.414-.79.914-1 1.5l3 4a5.577 5.577 0 0 0-1 3h-49v-44z"/><path style="opacity:1" fill="#e3dfd3" d="M95.5 297.5a2.427 2.427 0 0 0 .5 2c1.011-.837 2.178-1.17 3.5-1v2a44.136 44.136 0 0 0-13.5 4 3.944 3.944 0 0 1-2-1l-2 4c-1.133-1.711-2.633-2.211-4.5-1.5L63 314.5a3.647 3.647 0 0 0-1.5-1c-2.398 2.699-5.398 4.033-9 4 .273 1.951-.393 3.451-2 4.5l1 1c-1.56.318-2.728 1.151-3.5 2.5-2.687-2.805-3.687-2.471-3 1 .654-1.196 1.154-1.196 1.5 0l-3 2.5c1.435-.311 2.768-.145 4 .5a14.759 14.759 0 0 0 3 4.5l-1 1a59.092 59.092 0 0 1 11 7 73.984 73.984 0 0 1 11 10.5c2.547 2.771 3.88 5.771 4 9 1.602-1.05 2.435-.383 2.5 2 .667-1.333 1.333-1.333 2 0 1.309 2.186 1.476 4.353.5 6.5 1.38 1.324 1.713 2.657 1 4 2.258 1.753 3.925 3.919 5 6.5h-18c-1.319-1.968-1.319-3.968 0-6-1.434-1.72-2.267-3.72-2.5-6l-1 1-1.5-3c1.522-1.656 1.189-2.823-1-3.5 1.054-1.388 1.22-2.888.5-4.5-.718.951-1.55 1.117-2.5.5.116-1.268.45-2.602 1-4-3.488-.324-5.488-2.158-6-5.5-8.43-6.794-17.596-12.794-27.5-18-2.343.671-4.343.671-6 0a12.174 12.174 0 0 0-4.5-3.5c1.333-1.333 1.333-2.667 0-4a15.645 15.645 0 0 0 4-2.5c1.83.782 3.33.116 4.5-2 1.16 2.297 2.16 1.964 3-1l1 2c.7-1.532 1.866-2.532 3.5-3 2.48.992 3.98-.008 4.5-3 1.43-.194 2.93-.194 4.5 0a6.807 6.807 0 0 0 1.5-3 4.451 4.451 0 0 0 1.5 2c.41-.762.577-1.762.5-3l1 1c.576-2.624 1.91-3.291 4-2 4.203-3.381 8.87-4.714 14-4a290.742 290.742 0 0 1 14-7l1 1a58.153 58.153 0 0 1 15.5-2z"/><path style="opacity:1" fill="#60371d" d="M104.5 330.5c3.876.903 4.376 2.236 1.5 4-.667.667-.667 1.333 0 2 1.101-1.894 2.434-2.561 4-2a29.144 29.144 0 0 1 2.5 5c1.843-1.439 3.51-1.272 5 .5a17.758 17.758 0 0 1-7 1.5c.005-2.818-1.328-3.985-4-3.5 2.511 2.379 1.844 3.545-2 3.5-3.142-.658-5.809-2.158-8-4.5 1.243-.311 2.243.189 3 1.5 1.33-1.847.997-3.347-1-4.5 2.224-3.309 3.557-2.809 4 1.5l1-.5c-.03-1.429.303-2.929 1-4.5z"/><path style="opacity:1" fill="#967552" d="M98.5 353.5c-3.863-1.194-6.863-3.527-9-7 .876.131 1.543-.202 2-1-.928-1.268-1.095-2.601-.5-4 1 1.333 2 1.333 3 0 .944.763 1.444 1.763 1.5 3-1.94 2.696-1.273 4.029 2 4-.134 1.792.2 3.458 1 5z"/></svg>