<svg width="211" height="53" fill="none" xmlns="http://www.w3.org/2000/svg"><path d="M1.973 50v-7.308h.7v3.276h2.24v.644h-2.24V50h-.7zm6.118.056c-.681 0-1.292-.159-1.834-.476a3.387 3.387 0 0 1-1.274-1.316c-.308-.56-.462-1.2-.462-1.918 0-.728.154-1.367.462-1.918.308-.56.733-.999 1.274-1.316.542-.317 1.153-.476 1.834-.476.69 0 1.302.159 1.834.476.541.317.966.756 1.274 1.316.308.55.462 1.19.462 1.918 0 .719-.154 1.358-.462 1.918-.308.56-.732.999-1.274 1.316-.532.317-1.143.476-1.834.476zm0-.616c.55 0 1.04-.13 1.47-.392.439-.261.78-.625 1.022-1.092.252-.467.378-1.003.378-1.61 0-.616-.126-1.153-.378-1.61a2.591 2.591 0 0 0-1.022-1.078 2.77 2.77 0 0 0-1.47-.392c-.541 0-1.031.13-1.47.392a2.682 2.682 0 0 0-1.036 1.078c-.242.457-.364.994-.364 1.61 0 .607.122 1.143.364 1.61.252.467.598.83 1.036 1.092.439.261.929.392 1.47.392zm9.652.56v-7.308h3.08c.803 0 1.438.159 1.904.476.467.317.7.78.7 1.386 0 .597-.228 1.05-.686 1.358-.448.308-1.03.462-1.75.462l.196-.21c.86 0 1.49.159 1.89.476.402.317.602.784.602 1.4 0 .625-.228 1.11-.686 1.456-.448.336-1.143.504-2.086.504h-3.164zm.686-.574h2.464c.682 0 1.2-.112 1.554-.336.355-.224.532-.583.532-1.078 0-.504-.158-.868-.476-1.092-.308-.233-.807-.35-1.498-.35H18.43v2.856zm0-3.402h2.352c.616 0 1.092-.117 1.428-.35.346-.233.518-.579.518-1.036 0-.457-.172-.798-.518-1.022-.336-.233-.812-.35-1.428-.35H18.43v2.758zm14.54 4.032c-.737 0-1.39-.159-1.96-.476a3.529 3.529 0 0 1-1.33-1.316c-.317-.56-.476-1.2-.476-1.918 0-.728.15-1.367.448-1.918.308-.56.728-.999 1.26-1.316a3.431 3.431 0 0 1 1.792-.476c.663 0 1.256.154 1.778.462.532.308.948.742 1.246 1.302.308.55.462 1.19.462 1.918 0 .028-.004.06-.014.098v.098h-6.454v-.546h6.076l-.28.266c.01-.57-.112-1.078-.364-1.526a2.67 2.67 0 0 0-.994-1.064c-.42-.261-.905-.392-1.456-.392-.541 0-1.026.13-1.456.392a2.67 2.67 0 0 0-.994 1.064c-.242.448-.364.961-.364 1.54v.126c0 .597.13 1.13.392 1.596.27.457.64.817 1.106 1.078.467.252.999.378 1.596.378.467 0 .9-.084 1.302-.252.41-.168.756-.425 1.036-.77l.406.462a3.05 3.05 0 0 1-1.204.896 4.042 4.042 0 0 1-1.554.294zm7.668-.084.07-.602c.056.01.112.023.168.042.065.01.121.014.168.014.317 0 .57-.117.756-.35.187-.243.327-.565.42-.966.102-.401.172-.854.21-1.358.046-.504.084-1.017.112-1.54l.126-2.52h5.124V50h-.7v-6.902l.196.224h-4.172l.182-.238-.112 2.184a34.078 34.078 0 0 1-.154 1.82 9.22 9.22 0 0 1-.294 1.54c-.13.448-.318.803-.56 1.064-.243.252-.556.378-.938.378-.093 0-.191-.01-.294-.028a6.738 6.738 0 0 1-.308-.07zM54.595 50v-7.308h.7v6.23l5.208-6.23h.616V50h-.7v-6.23L55.211 50h-.616zm17.005.056c-.644 0-1.227-.15-1.75-.448a3.303 3.303 0 0 1-1.232-1.274c-.299-.56-.448-1.223-.448-1.988 0-.765.15-1.423.448-1.974a3.28 3.28 0 0 1 1.232-1.288 3.464 3.464 0 0 1 1.75-.448c.69 0 1.307.159 1.848.476.55.308.98.742 1.288 1.302.317.56.476 1.204.476 1.932s-.159 1.372-.476 1.932c-.308.56-.737.999-1.288 1.316-.541.308-1.157.462-1.848.462zm-3.668 2.66V42.692h.672v2.394l-.112 1.274.14 1.274v5.082h-.7zm3.626-3.29a3.03 3.03 0 0 0 1.512-.378 2.75 2.75 0 0 0 1.05-1.092c.261-.467.392-1.003.392-1.61 0-.616-.13-1.153-.392-1.61a2.655 2.655 0 0 0-1.05-1.078 2.945 2.945 0 0 0-1.512-.392c-.56 0-1.064.13-1.512.392a2.778 2.778 0 0 0-1.05 1.078c-.252.457-.378.994-.378 1.61 0 .607.126 1.143.378 1.61.261.467.611.83 1.05 1.092a3.03 3.03 0 0 0 1.512.378zm9.71.574v-7.308h.7v3.332h4.956v-3.332h.7V50h-.7v-3.36h-4.956V50h-.7zm20.173 0v-7.308h.7V50h-.7zm-4.13-4.648c.915.01 1.606.21 2.072.602.476.383.714.947.714 1.694 0 .775-.252 1.367-.756 1.778-.504.41-1.232.611-2.184.602L94.427 50v-7.308h.7v2.632l2.184.028zm-.182 4.116c.747.01 1.312-.14 1.694-.448.383-.308.574-.765.574-1.372 0-.588-.191-1.027-.574-1.316-.373-.29-.938-.439-1.694-.448l-2.002-.014v3.57l2.002.028zm11.797.532v-7.308h.7v6.23l5.208-6.23h.616V50h-.7v-6.23L109.542 50h-.616zm3.234-8.428c-.569 0-1.041-.15-1.414-.448-.364-.308-.555-.733-.574-1.274h.518c.019.383.163.686.434.91.28.224.625.336 1.036.336.411 0 .751-.112 1.022-.336.28-.224.425-.527.434-.91h.532c-.009.541-.201.966-.574 1.274-.364.299-.835.448-1.414.448zM129.625 50v-7.308h.686l3.458 5.782h-.308l3.472-5.782h.644V50h-.644v-6.468l.14.056-3.318 5.474h-.322l-3.332-5.516.168-.028V50h-.644zm19.322 0v-1.666l-.028-.252v-2.744c0-.681-.186-1.2-.56-1.554-.364-.355-.9-.532-1.61-.532-.504 0-.975.089-1.414.266a3.702 3.702 0 0 0-1.106.658l-.35-.504a3.804 3.804 0 0 1 1.316-.756 4.676 4.676 0 0 1 1.61-.28c.906 0 1.601.229 2.086.686.486.457.728 1.139.728 2.044V50h-.672zm-2.632.056c-.541 0-1.012-.084-1.414-.252a2.125 2.125 0 0 1-.91-.742 1.968 1.968 0 0 1-.308-1.092c0-.373.084-.71.252-1.008.178-.308.467-.555.868-.742.402-.196.938-.294 1.61-.294h2.688v.546h-2.674c-.756 0-1.288.14-1.596.42-.298.28-.448.63-.448 1.05 0 .467.178.84.532 1.12.355.28.854.42 1.498.42.616 0 1.134-.14 1.554-.42.43-.28.747-.686.952-1.218l.196.476a2.56 2.56 0 0 1-1.008 1.274c-.466.308-1.064.462-1.792.462zm9.928-.056v-7.308h4.998v.63h-4.494l.196-.196V50h-.7zm14.838 0v-1.666l-.028-.252v-2.744c0-.681-.186-1.2-.56-1.554-.364-.355-.9-.532-1.61-.532-.504 0-.975.089-1.414.266a3.702 3.702 0 0 0-1.106.658l-.35-.504a3.804 3.804 0 0 1 1.316-.756 4.676 4.676 0 0 1 1.61-.28c.906 0 1.601.229 2.086.686.486.457.728 1.139.728 2.044V50h-.672zm-2.632.056c-.541 0-1.012-.084-1.414-.252a2.125 2.125 0 0 1-.91-.742 1.968 1.968 0 0 1-.308-1.092c0-.373.084-.71.252-1.008.178-.308.467-.555.868-.742.402-.196.938-.294 1.61-.294h2.688v.546h-2.674c-.756 0-1.288.14-1.596.42-.298.28-.448.63-.448 1.05 0 .467.178.84.532 1.12.355.28.854.42 1.498.42.616 0 1.134-.14 1.554-.42.43-.28.747-.686.952-1.218l.196.476a2.56 2.56 0 0 1-1.008 1.274c-.466.308-1.064.462-1.792.462zm11.557.014c-.504 0-1.013-.08-1.526-.238a3.885 3.885 0 0 1-1.358-.728l.266-.518c.354.299.765.523 1.232.672.466.14.933.205 1.4.196.476 0 .891-.07 1.246-.21.364-.14.644-.331.84-.574a1.26 1.26 0 0 0 .294-.812c0-.439-.196-.78-.588-1.022-.392-.243-.929-.364-1.61-.364h-1.176v-.532h1.148c.392 0 .737-.051 1.036-.154.308-.103.546-.252.714-.448a1.06 1.06 0 0 0 .266-.714c0-.299-.103-.55-.308-.756-.196-.215-.467-.373-.812-.476a3.874 3.874 0 0 0-1.134-.154 4.975 4.975 0 0 0-2.268.63l-.224-.56c.41-.224.826-.392 1.246-.504.42-.112.844-.173 1.274-.182a4.2 4.2 0 0 1 1.484.224c.448.15.802.369 1.064.658.261.28.392.62.392 1.022 0 .364-.112.681-.336.952-.215.261-.514.467-.896.616-.374.15-.794.224-1.26.224l.056-.224c.84 0 1.488.163 1.946.49.466.327.7.765.7 1.316 0 .439-.14.821-.42 1.148-.28.327-.658.579-1.134.756a4.347 4.347 0 0 1-1.554.266zm9.343-.07v-7.308h.7v6.23l5.208-6.23h.616V50h-.7v-6.23L189.965 50h-.616zm13.323 0v-7.308h.7v3.332h4.956v-3.332h.7V50h-.7v-3.36h-4.956V50h-.7z" fill="#919191"/><path d="M26.472 27.192c-1.707 0-3.285-.277-4.736-.832a11.614 11.614 0 0 1-3.744-2.4 11.217 11.217 0 0 1-2.464-3.616c-.576-1.387-.864-2.901-.864-4.544 0-1.643.288-3.157.864-4.544a10.975 10.975 0 0 1 2.496-3.616 11.188 11.188 0 0 1 3.744-2.368c1.45-.576 3.03-.864 4.736-.864 1.707 0 3.264.267 4.672.8a9.308 9.308 0 0 1 3.648 2.432l-1.472 1.504c-.939-.939-1.973-1.61-3.104-2.016-1.13-.405-2.347-.608-3.648-.608-1.387 0-2.667.235-3.84.704a8.955 8.955 0 0 0-3.04 1.952 9.156 9.156 0 0 0-2.016 2.944c-.47 1.11-.704 2.336-.704 3.68 0 1.323.235 2.55.704 3.68a9.535 9.535 0 0 0 2.016 2.976 9.646 9.646 0 0 0 3.04 1.952c1.173.448 2.443.672 3.808.672 1.28 0 2.485-.192 3.616-.576 1.152-.384 2.208-1.035 3.168-1.952l1.344 1.792c-1.067.939-2.315 1.653-3.744 2.144-1.43.47-2.923.704-4.48.704zm5.952-3.136V15.8h2.272v8.544l-2.272-.288zm15.342 3.104c-1.621 0-3.083-.363-4.384-1.088a8.31 8.31 0 0 1-3.04-3.04c-.747-1.301-1.12-2.784-1.12-4.448 0-1.685.373-3.168 1.12-4.448a8.068 8.068 0 0 1 3.04-3.008c1.28-.725 2.741-1.088 4.384-1.088 1.664 0 3.136.363 4.416 1.088a7.776 7.776 0 0 1 3.04 3.008c.747 1.28 1.12 2.763 1.12 4.448 0 1.664-.373 3.147-1.12 4.448a8.001 8.001 0 0 1-3.04 3.04c-1.301.725-2.773 1.088-4.416 1.088zm0-2.016c1.216 0 2.293-.267 3.232-.8a5.884 5.884 0 0 0 2.208-2.304c.555-1.003.832-2.155.832-3.456 0-1.323-.277-2.475-.832-3.456a5.662 5.662 0 0 0-2.208-2.272c-.939-.555-2.005-.832-3.2-.832-1.195 0-2.261.277-3.2.832-.939.533-1.685 1.29-2.24 2.272-.555.981-.832 2.133-.832 3.456 0 1.301.277 2.453.832 3.456a6.117 6.117 0 0 0 2.24 2.304c.939.533 1.995.8 3.168.8zM60.981 27V3.256h2.271V27H60.98zm15.281.16c-1.6 0-3.04-.363-4.32-1.088a7.902 7.902 0 0 1-2.976-3.008c-.725-1.301-1.088-2.795-1.088-4.48 0-1.707.363-3.2 1.088-4.48a7.674 7.674 0 0 1 2.976-2.976c1.28-.725 2.72-1.088 4.32-1.088 1.472 0 2.784.33 3.936.992 1.174.661 2.102 1.632 2.784 2.912.704 1.259 1.056 2.805 1.056 4.64 0 1.813-.341 3.36-1.024 4.64-.682 1.28-1.61 2.261-2.784 2.944-1.152.661-2.474.992-3.968.992zm.16-2.016c1.195 0 2.262-.267 3.2-.8a5.819 5.819 0 0 0 2.24-2.304c.555-1.003.832-2.155.832-3.456 0-1.323-.277-2.475-.832-3.456a5.604 5.604 0 0 0-2.24-2.272c-.938-.555-2.005-.832-3.2-.832-1.173 0-2.23.277-3.168.832-.938.533-1.685 1.29-2.24 2.272-.554.981-.832 2.133-.832 3.456 0 1.301.278 2.453.832 3.456a6.116 6.116 0 0 0 2.24 2.304c.939.533 1.995.8 3.168.8zM82.758 27v-5.056l.224-3.392-.32-3.392V3.256h2.272V27h-2.176zm8.632 6.368c-.79 0-1.547-.128-2.272-.384a4.923 4.923 0 0 1-1.824-1.152l1.056-1.696c.426.405.885.715 1.376.928a4.022 4.022 0 0 0 1.696.352c.746 0 1.386-.213 1.92-.64.554-.405 1.077-1.13 1.568-2.176l1.088-2.464.256-.352 6.912-15.584h2.24L96.99 29.016c-.47 1.088-.992 1.952-1.568 2.592-.555.64-1.163 1.088-1.824 1.344-.662.277-1.398.416-2.208.416zm4.48-5.888L88.126 10.2h2.368l6.848 15.424-1.472 1.856z" fill="#E1A661"/><path d="M123.637 27.192a14.53 14.53 0 0 1-4.8-.8c-1.515-.555-2.688-1.259-3.52-2.112l.928-1.824c.789.768 1.845 1.419 3.168 1.952 1.344.512 2.752.768 4.224.768 1.408 0 2.549-.17 3.424-.512.896-.363 1.546-.843 1.952-1.44a3.34 3.34 0 0 0 .64-1.984c0-.875-.256-1.579-.768-2.112-.491-.533-1.142-.95-1.952-1.248a20.03 20.03 0 0 0-2.688-.832c-.982-.235-1.963-.48-2.944-.736a13.39 13.39 0 0 1-2.72-1.088 5.852 5.852 0 0 1-1.984-1.76c-.491-.747-.736-1.717-.736-2.912 0-1.11.288-2.123.864-3.04.597-.939 1.504-1.685 2.72-2.24 1.216-.576 2.773-.864 4.672-.864 1.258 0 2.506.181 3.744.544 1.237.341 2.304.821 3.2 1.44l-.801 1.888a10.519 10.519 0 0 0-3.071-1.408 11.497 11.497 0 0 0-3.104-.448c-1.344 0-2.454.181-3.328.544-.875.363-1.526.853-1.952 1.472-.406.597-.608 1.28-.608 2.048 0 .875.245 1.579.736 2.112.512.533 1.173.95 1.984 1.248.832.299 1.738.565 2.72.8.981.235 1.952.49 2.912.768.981.277 1.877.64 2.688 1.088.832.427 1.493 1.003 1.984 1.728.512.725.768 1.675.768 2.848a5.56 5.56 0 0 1-.896 3.04c-.598.917-1.515 1.664-2.752 2.24-1.216.555-2.784.832-4.704.832zm18.343-.032c-1.579 0-2.795-.427-3.648-1.28-.853-.853-1.28-2.059-1.28-3.616V6.488h2.272v15.648c0 .981.245 1.739.736 2.272.512.533 1.237.8 2.176.8 1.003 0 1.835-.288 2.496-.864l.8 1.632a4.185 4.185 0 0 1-1.632.896 6.444 6.444 0 0 1-1.92.288zm-7.936-15.072V10.2h10.4v1.888h-10.4zm21.878 15.072c-1.621 0-3.082-.363-4.384-1.088a8.313 8.313 0 0 1-3.04-3.04c-.746-1.301-1.12-2.784-1.12-4.448 0-1.685.374-3.168 1.12-4.448a8.07 8.07 0 0 1 3.04-3.008c1.28-.725 2.742-1.088 4.384-1.088 1.664 0 3.136.363 4.416 1.088a7.77 7.77 0 0 1 3.04 3.008c.747 1.28 1.12 2.763 1.12 4.448 0 1.664-.373 3.147-1.12 4.448a7.994 7.994 0 0 1-3.04 3.04c-1.301.725-2.773 1.088-4.416 1.088zm0-2.016c1.216 0 2.294-.267 3.232-.8a5.88 5.88 0 0 0 2.208-2.304c.555-1.003.832-2.155.832-3.456 0-1.323-.277-2.475-.832-3.456a5.658 5.658 0 0 0-2.208-2.272c-.938-.555-2.005-.832-3.2-.832-1.194 0-2.261.277-3.2.832-.938.533-1.685 1.29-2.24 2.272-.554.981-.832 2.133-.832 3.456 0 1.301.278 2.453.832 3.456a6.124 6.124 0 0 0 2.24 2.304c.939.533 1.995.8 3.168.8zM169.137 27V10.2h2.176v4.576l-.224-.8c.469-1.28 1.258-2.25 2.368-2.912 1.109-.683 2.485-1.024 4.128-1.024v2.208h-.256a1.06 1.06 0 0 0-.256-.032c-1.771 0-3.158.544-4.16 1.632-1.003 1.067-1.504 2.592-1.504 4.576V27h-2.272zm19.573.16c-1.749 0-3.285-.363-4.608-1.088a8.179 8.179 0 0 1-3.104-3.04c-.746-1.301-1.12-2.784-1.12-4.448 0-1.664.352-3.136 1.056-4.416a7.981 7.981 0 0 1 2.944-3.008c1.259-.747 2.667-1.12 4.224-1.12 1.579 0 2.976.363 4.192 1.088 1.238.704 2.208 1.707 2.912 3.008.704 1.28 1.056 2.763 1.056 4.448 0 .107-.01.224-.032.352v.352h-14.624v-1.696h13.408l-.896.672c0-1.216-.266-2.293-.8-3.232-.512-.96-1.216-1.707-2.112-2.24-.896-.533-1.93-.8-3.104-.8-1.152 0-2.186.267-3.104.8a5.564 5.564 0 0 0-2.144 2.24c-.512.96-.768 2.059-.768 3.296v.352c0 1.28.278 2.41.832 3.392a6.221 6.221 0 0 0 2.368 2.272c1.024.533 2.187.8 3.488.8a7.36 7.36 0 0 0 2.848-.544 5.924 5.924 0 0 0 2.304-1.664l1.28 1.472c-.746.896-1.685 1.579-2.816 2.048-1.109.47-2.336.704-3.68.704z" fill="#303030"/></svg>