<svg width="18" height="16" fill="none" xmlns="http://www.w3.org/2000/svg">
    <path d="M9 15.5c-.538-.477-1.146-.973-1.788-1.5h-.008c-2.263-1.85-4.827-3.943-5.96-6.452A6.185 6.185 0 0 1 .666 5 4.492 4.492 0 0 1 5.249.5a5.132 5.132 0 0 1 2.774.82c.363.235.692.52.976.847.287-.326.615-.61.978-.848A5.127 5.127 0 0 1 12.749.5 4.492 4.492 0 0 1 17.333 5a6.186 6.186 0 0 1-.579 2.553c-1.132 2.508-3.696 4.6-5.958 6.447l-.008.007c-.644.524-1.25 1.02-1.788 1.5V15.5zM5.25 2.167a2.946 2.946 0 0 0-2.084.826A2.785 2.785 0 0 0 2.333 5c.01.642.155 1.275.426 1.857A10.262 10.262 0 0 0 4.89 9.75c.826.833 1.776 1.64 2.598 2.318.227.188.459.377.69.566l.146.12c.223.181.453.37.675.554l.011-.01.005-.004h.005l.008-.006h.008l.015-.012.034-.028.006-.005.01-.006h.004l.008-.007.553-.454.145-.12c.234-.19.466-.38.693-.567.822-.678 1.773-1.484 2.599-2.322a10.25 10.25 0 0 0 2.13-2.892A4.531 4.531 0 0 0 15.666 5a2.786 2.786 0 0 0-.833-2 2.946 2.946 0 0 0-2.084-.833 3.323 3.323 0 0 0-2.491 1.092L8.999 4.71 7.741 3.26a3.323 3.323 0 0 0-2.492-1.092z"
          fill="#303030"/>
</svg>